G04 #@! TF.FileFunction,Legend,Top*
%FSLAX46Y46*%
G04 Gerber Fmt 4.6, Leading zero omitted, Abs format (unit mm)*
G04 Created by KiCad (PCBNEW 4.0.4+dfsg1-stable) date Sat Nov 11 18:47:18 2017*
%MOMM*%
%LPD*%
G01*
G04 APERTURE LIST*
%ADD10C,0.100000*%
%ADD11C,0.150000*%
G04 APERTURE END LIST*
D10*
D11*
X65684400Y-75399900D02*
X65671700Y-78600300D01*
X65671700Y-78600300D02*
X65671700Y-78663800D01*
X65671700Y-78663800D02*
X65671700Y-78689200D01*
X65671700Y-78689200D02*
X65062100Y-78714600D01*
X65354200Y-78701900D02*
X61531500Y-78701900D01*
X61531500Y-78701900D02*
X61518800Y-75425300D01*
X61518800Y-75425300D02*
X65646300Y-75412600D01*
X52420000Y-85690000D02*
X51720000Y-85690000D01*
X51720000Y-84490000D02*
X52420000Y-84490000D01*
X52420000Y-87722000D02*
X51720000Y-87722000D01*
X51720000Y-86522000D02*
X52420000Y-86522000D01*
X57754000Y-82388000D02*
X57054000Y-82388000D01*
X57054000Y-81188000D02*
X57754000Y-81188000D01*
X53340000Y-94615000D02*
X53340000Y-93218000D01*
X53213000Y-94869000D02*
X53213000Y-93091000D01*
X53086000Y-95250000D02*
X53086000Y-92710000D01*
X52959000Y-92583000D02*
X52959000Y-95377000D01*
X52832000Y-95504000D02*
X52832000Y-92456000D01*
X52705000Y-92329000D02*
X52705000Y-95631000D01*
X52578000Y-95758000D02*
X52578000Y-92202000D01*
X53721000Y-96647000D02*
X49149000Y-96647000D01*
X49149000Y-96647000D02*
X48387000Y-95885000D01*
X48387000Y-95885000D02*
X48387000Y-92075000D01*
X48387000Y-92075000D02*
X49149000Y-91313000D01*
X49149000Y-91313000D02*
X53721000Y-91313000D01*
X53721000Y-91313000D02*
X53721000Y-96647000D01*
X48895000Y-93980000D02*
X49657000Y-93980000D01*
X49276000Y-94361000D02*
X49276000Y-93599000D01*
X53467000Y-93980000D02*
G75*
G03X53467000Y-93980000I-2413000J0D01*
G01*
X69946000Y-85436000D02*
X69246000Y-85436000D01*
X69246000Y-84236000D02*
X69946000Y-84236000D01*
X67472000Y-81630000D02*
X67472000Y-80930000D01*
X68672000Y-80930000D02*
X68672000Y-81630000D01*
X45212000Y-75057000D02*
X45212000Y-76454000D01*
X45339000Y-74803000D02*
X45339000Y-76581000D01*
X45466000Y-74422000D02*
X45466000Y-76962000D01*
X45593000Y-77089000D02*
X45593000Y-74295000D01*
X45720000Y-74168000D02*
X45720000Y-77216000D01*
X45847000Y-77343000D02*
X45847000Y-74041000D01*
X45974000Y-73914000D02*
X45974000Y-77470000D01*
X44831000Y-73025000D02*
X49403000Y-73025000D01*
X49403000Y-73025000D02*
X50165000Y-73787000D01*
X50165000Y-73787000D02*
X50165000Y-77597000D01*
X50165000Y-77597000D02*
X49403000Y-78359000D01*
X49403000Y-78359000D02*
X44831000Y-78359000D01*
X44831000Y-78359000D02*
X44831000Y-73025000D01*
X49657000Y-75692000D02*
X48895000Y-75692000D01*
X49276000Y-75311000D02*
X49276000Y-76073000D01*
X49911000Y-75692000D02*
G75*
G03X49911000Y-75692000I-2413000J0D01*
G01*
X47371000Y-70104000D02*
X48768000Y-70104000D01*
X47117000Y-69977000D02*
X48895000Y-69977000D01*
X46736000Y-69850000D02*
X49276000Y-69850000D01*
X49403000Y-69723000D02*
X46609000Y-69723000D01*
X46482000Y-69596000D02*
X49530000Y-69596000D01*
X49657000Y-69469000D02*
X46355000Y-69469000D01*
X46228000Y-69342000D02*
X49784000Y-69342000D01*
X45339000Y-70485000D02*
X45339000Y-65913000D01*
X45339000Y-65913000D02*
X46101000Y-65151000D01*
X46101000Y-65151000D02*
X49911000Y-65151000D01*
X49911000Y-65151000D02*
X50673000Y-65913000D01*
X50673000Y-65913000D02*
X50673000Y-70485000D01*
X50673000Y-70485000D02*
X45339000Y-70485000D01*
X48006000Y-65659000D02*
X48006000Y-66421000D01*
X47625000Y-66040000D02*
X48387000Y-66040000D01*
X50419000Y-67818000D02*
G75*
G03X50419000Y-67818000I-2413000J0D01*
G01*
X54006000Y-68234000D02*
X54706000Y-68234000D01*
X54706000Y-69434000D02*
X54006000Y-69434000D01*
X64380000Y-82940000D02*
X64380000Y-83465000D01*
X60080000Y-87240000D02*
X60080000Y-86715000D01*
X64380000Y-87240000D02*
X64380000Y-86715000D01*
X60080000Y-82940000D02*
X60605000Y-82940000D01*
X60080000Y-87240000D02*
X60605000Y-87240000D01*
X64380000Y-87240000D02*
X63855000Y-87240000D01*
X64380000Y-82940000D02*
X63855000Y-82940000D01*
X55210000Y-66661000D02*
X54010000Y-66661000D01*
X54010000Y-64911000D02*
X55210000Y-64911000D01*
X51824000Y-88733000D02*
X52824000Y-88733000D01*
X52824000Y-90083000D02*
X51824000Y-90083000D01*
X70520000Y-81630000D02*
X70520000Y-80930000D01*
X71720000Y-80930000D02*
X71720000Y-81630000D01*
X58262000Y-79594000D02*
X57562000Y-79594000D01*
X57562000Y-78394000D02*
X58262000Y-78394000D01*
X36068000Y-65278000D02*
X36068000Y-66421000D01*
X39116000Y-65278000D02*
X39116000Y-66421000D01*
X42926000Y-66421000D02*
X42926000Y-70104000D01*
X42926000Y-70104000D02*
X32258000Y-70104000D01*
X32258000Y-70104000D02*
X32258000Y-66421000D01*
X42926000Y-65278000D02*
X42926000Y-66421000D01*
X42926000Y-66421000D02*
X32258000Y-66421000D01*
X32258000Y-66421000D02*
X32258000Y-65278000D01*
X37592000Y-65278000D02*
X32258000Y-65278000D01*
X37592000Y-65278000D02*
X42926000Y-65278000D01*
X59791600Y-95034100D02*
X59804300Y-91833700D01*
X59804300Y-91833700D02*
X59804300Y-91770200D01*
X59804300Y-91770200D02*
X59804300Y-91744800D01*
X59804300Y-91744800D02*
X60413900Y-91719400D01*
X60121800Y-91732100D02*
X63944500Y-91732100D01*
X63944500Y-91732100D02*
X63957200Y-95008700D01*
X63957200Y-95008700D02*
X59829700Y-95021400D01*
X63271495Y-72782181D02*
X63842924Y-72782181D01*
X63557209Y-73782181D02*
X63557209Y-72782181D01*
X64128638Y-72877419D02*
X64176257Y-72829800D01*
X64271495Y-72782181D01*
X64509591Y-72782181D01*
X64604829Y-72829800D01*
X64652448Y-72877419D01*
X64700067Y-72972657D01*
X64700067Y-73067895D01*
X64652448Y-73210752D01*
X64081019Y-73782181D01*
X64700067Y-73782181D01*
X51903334Y-87347143D02*
X51855715Y-87394762D01*
X51712858Y-87442381D01*
X51617620Y-87442381D01*
X51474762Y-87394762D01*
X51379524Y-87299524D01*
X51331905Y-87204286D01*
X51284286Y-87013810D01*
X51284286Y-86870952D01*
X51331905Y-86680476D01*
X51379524Y-86585238D01*
X51474762Y-86490000D01*
X51617620Y-86442381D01*
X51712858Y-86442381D01*
X51855715Y-86490000D01*
X51903334Y-86537619D01*
X52855715Y-87442381D02*
X52284286Y-87442381D01*
X52570000Y-87442381D02*
X52570000Y-86442381D01*
X52474762Y-86585238D01*
X52379524Y-86680476D01*
X52284286Y-86728095D01*
X51903334Y-89379143D02*
X51855715Y-89426762D01*
X51712858Y-89474381D01*
X51617620Y-89474381D01*
X51474762Y-89426762D01*
X51379524Y-89331524D01*
X51331905Y-89236286D01*
X51284286Y-89045810D01*
X51284286Y-88902952D01*
X51331905Y-88712476D01*
X51379524Y-88617238D01*
X51474762Y-88522000D01*
X51617620Y-88474381D01*
X51712858Y-88474381D01*
X51855715Y-88522000D01*
X51903334Y-88569619D01*
X52284286Y-88569619D02*
X52331905Y-88522000D01*
X52427143Y-88474381D01*
X52665239Y-88474381D01*
X52760477Y-88522000D01*
X52808096Y-88569619D01*
X52855715Y-88664857D01*
X52855715Y-88760095D01*
X52808096Y-88902952D01*
X52236667Y-89474381D01*
X52855715Y-89474381D01*
X57237334Y-84045143D02*
X57189715Y-84092762D01*
X57046858Y-84140381D01*
X56951620Y-84140381D01*
X56808762Y-84092762D01*
X56713524Y-83997524D01*
X56665905Y-83902286D01*
X56618286Y-83711810D01*
X56618286Y-83568952D01*
X56665905Y-83378476D01*
X56713524Y-83283238D01*
X56808762Y-83188000D01*
X56951620Y-83140381D01*
X57046858Y-83140381D01*
X57189715Y-83188000D01*
X57237334Y-83235619D01*
X57570667Y-83140381D02*
X58189715Y-83140381D01*
X57856381Y-83521333D01*
X57999239Y-83521333D01*
X58094477Y-83568952D01*
X58142096Y-83616571D01*
X58189715Y-83711810D01*
X58189715Y-83949905D01*
X58142096Y-84045143D01*
X58094477Y-84092762D01*
X57999239Y-84140381D01*
X57713524Y-84140381D01*
X57618286Y-84092762D01*
X57570667Y-84045143D01*
X50887334Y-98147143D02*
X50839715Y-98194762D01*
X50696858Y-98242381D01*
X50601620Y-98242381D01*
X50458762Y-98194762D01*
X50363524Y-98099524D01*
X50315905Y-98004286D01*
X50268286Y-97813810D01*
X50268286Y-97670952D01*
X50315905Y-97480476D01*
X50363524Y-97385238D01*
X50458762Y-97290000D01*
X50601620Y-97242381D01*
X50696858Y-97242381D01*
X50839715Y-97290000D01*
X50887334Y-97337619D01*
X51792096Y-97242381D02*
X51315905Y-97242381D01*
X51268286Y-97718571D01*
X51315905Y-97670952D01*
X51411143Y-97623333D01*
X51649239Y-97623333D01*
X51744477Y-97670952D01*
X51792096Y-97718571D01*
X51839715Y-97813810D01*
X51839715Y-98051905D01*
X51792096Y-98147143D01*
X51744477Y-98194762D01*
X51649239Y-98242381D01*
X51411143Y-98242381D01*
X51315905Y-98194762D01*
X51268286Y-98147143D01*
X69429334Y-87093143D02*
X69381715Y-87140762D01*
X69238858Y-87188381D01*
X69143620Y-87188381D01*
X69000762Y-87140762D01*
X68905524Y-87045524D01*
X68857905Y-86950286D01*
X68810286Y-86759810D01*
X68810286Y-86616952D01*
X68857905Y-86426476D01*
X68905524Y-86331238D01*
X69000762Y-86236000D01*
X69143620Y-86188381D01*
X69238858Y-86188381D01*
X69381715Y-86236000D01*
X69429334Y-86283619D01*
X70286477Y-86188381D02*
X70096000Y-86188381D01*
X70000762Y-86236000D01*
X69953143Y-86283619D01*
X69857905Y-86426476D01*
X69810286Y-86616952D01*
X69810286Y-86997905D01*
X69857905Y-87093143D01*
X69905524Y-87140762D01*
X70000762Y-87188381D01*
X70191239Y-87188381D01*
X70286477Y-87140762D01*
X70334096Y-87093143D01*
X70381715Y-86997905D01*
X70381715Y-86759810D01*
X70334096Y-86664571D01*
X70286477Y-86616952D01*
X70191239Y-86569333D01*
X70000762Y-86569333D01*
X69905524Y-86616952D01*
X69857905Y-86664571D01*
X69810286Y-86759810D01*
X66529143Y-81446666D02*
X66576762Y-81494285D01*
X66624381Y-81637142D01*
X66624381Y-81732380D01*
X66576762Y-81875238D01*
X66481524Y-81970476D01*
X66386286Y-82018095D01*
X66195810Y-82065714D01*
X66052952Y-82065714D01*
X65862476Y-82018095D01*
X65767238Y-81970476D01*
X65672000Y-81875238D01*
X65624381Y-81732380D01*
X65624381Y-81637142D01*
X65672000Y-81494285D01*
X65719619Y-81446666D01*
X66052952Y-80875238D02*
X66005333Y-80970476D01*
X65957714Y-81018095D01*
X65862476Y-81065714D01*
X65814857Y-81065714D01*
X65719619Y-81018095D01*
X65672000Y-80970476D01*
X65624381Y-80875238D01*
X65624381Y-80684761D01*
X65672000Y-80589523D01*
X65719619Y-80541904D01*
X65814857Y-80494285D01*
X65862476Y-80494285D01*
X65957714Y-80541904D01*
X66005333Y-80589523D01*
X66052952Y-80684761D01*
X66052952Y-80875238D01*
X66100571Y-80970476D01*
X66148190Y-81018095D01*
X66243429Y-81065714D01*
X66433905Y-81065714D01*
X66529143Y-81018095D01*
X66576762Y-80970476D01*
X66624381Y-80875238D01*
X66624381Y-80684761D01*
X66576762Y-80589523D01*
X66529143Y-80541904D01*
X66433905Y-80494285D01*
X66243429Y-80494285D01*
X66148190Y-80541904D01*
X66100571Y-80589523D01*
X66052952Y-80684761D01*
X47331334Y-72239143D02*
X47283715Y-72286762D01*
X47140858Y-72334381D01*
X47045620Y-72334381D01*
X46902762Y-72286762D01*
X46807524Y-72191524D01*
X46759905Y-72096286D01*
X46712286Y-71905810D01*
X46712286Y-71762952D01*
X46759905Y-71572476D01*
X46807524Y-71477238D01*
X46902762Y-71382000D01*
X47045620Y-71334381D01*
X47140858Y-71334381D01*
X47283715Y-71382000D01*
X47331334Y-71429619D01*
X47807524Y-72334381D02*
X47998000Y-72334381D01*
X48093239Y-72286762D01*
X48140858Y-72239143D01*
X48236096Y-72096286D01*
X48283715Y-71905810D01*
X48283715Y-71524857D01*
X48236096Y-71429619D01*
X48188477Y-71382000D01*
X48093239Y-71334381D01*
X47902762Y-71334381D01*
X47807524Y-71382000D01*
X47759905Y-71429619D01*
X47712286Y-71524857D01*
X47712286Y-71762952D01*
X47759905Y-71858190D01*
X47807524Y-71905810D01*
X47902762Y-71953429D01*
X48093239Y-71953429D01*
X48188477Y-71905810D01*
X48236096Y-71858190D01*
X48283715Y-71762952D01*
X44553143Y-68460857D02*
X44600762Y-68508476D01*
X44648381Y-68651333D01*
X44648381Y-68746571D01*
X44600762Y-68889429D01*
X44505524Y-68984667D01*
X44410286Y-69032286D01*
X44219810Y-69079905D01*
X44076952Y-69079905D01*
X43886476Y-69032286D01*
X43791238Y-68984667D01*
X43696000Y-68889429D01*
X43648381Y-68746571D01*
X43648381Y-68651333D01*
X43696000Y-68508476D01*
X43743619Y-68460857D01*
X44648381Y-67508476D02*
X44648381Y-68079905D01*
X44648381Y-67794191D02*
X43648381Y-67794191D01*
X43791238Y-67889429D01*
X43886476Y-67984667D01*
X43934095Y-68079905D01*
X43648381Y-66889429D02*
X43648381Y-66794190D01*
X43696000Y-66698952D01*
X43743619Y-66651333D01*
X43838857Y-66603714D01*
X44029333Y-66556095D01*
X44267429Y-66556095D01*
X44457905Y-66603714D01*
X44553143Y-66651333D01*
X44600762Y-66698952D01*
X44648381Y-66794190D01*
X44648381Y-66889429D01*
X44600762Y-66984667D01*
X44553143Y-67032286D01*
X44457905Y-67079905D01*
X44267429Y-67127524D01*
X44029333Y-67127524D01*
X43838857Y-67079905D01*
X43743619Y-67032286D01*
X43696000Y-66984667D01*
X43648381Y-66889429D01*
X53713143Y-67291143D02*
X53665524Y-67338762D01*
X53522667Y-67386381D01*
X53427429Y-67386381D01*
X53284571Y-67338762D01*
X53189333Y-67243524D01*
X53141714Y-67148286D01*
X53094095Y-66957810D01*
X53094095Y-66814952D01*
X53141714Y-66624476D01*
X53189333Y-66529238D01*
X53284571Y-66434000D01*
X53427429Y-66386381D01*
X53522667Y-66386381D01*
X53665524Y-66434000D01*
X53713143Y-66481619D01*
X54665524Y-67386381D02*
X54094095Y-67386381D01*
X54379809Y-67386381D02*
X54379809Y-66386381D01*
X54284571Y-66529238D01*
X54189333Y-66624476D01*
X54094095Y-66672095D01*
X55617905Y-67386381D02*
X55046476Y-67386381D01*
X55332190Y-67386381D02*
X55332190Y-66386381D01*
X55236952Y-66529238D01*
X55141714Y-66624476D01*
X55046476Y-66672095D01*
X61253810Y-82167381D02*
X61253810Y-81167381D01*
X62301429Y-82072143D02*
X62253810Y-82119762D01*
X62110953Y-82167381D01*
X62015715Y-82167381D01*
X61872857Y-82119762D01*
X61777619Y-82024524D01*
X61730000Y-81929286D01*
X61682381Y-81738810D01*
X61682381Y-81595952D01*
X61730000Y-81405476D01*
X61777619Y-81310238D01*
X61872857Y-81215000D01*
X62015715Y-81167381D01*
X62110953Y-81167381D01*
X62253810Y-81215000D01*
X62301429Y-81262619D01*
X63253810Y-82167381D02*
X62682381Y-82167381D01*
X62968095Y-82167381D02*
X62968095Y-81167381D01*
X62872857Y-81310238D01*
X62777619Y-81405476D01*
X62682381Y-81453095D01*
X54443334Y-64138381D02*
X53967143Y-64138381D01*
X53967143Y-63138381D01*
X55300477Y-64138381D02*
X54729048Y-64138381D01*
X55014762Y-64138381D02*
X55014762Y-63138381D01*
X54919524Y-63281238D01*
X54824286Y-63376476D01*
X54729048Y-63424095D01*
X52157334Y-88360381D02*
X51824000Y-87884190D01*
X51585905Y-88360381D02*
X51585905Y-87360381D01*
X51966858Y-87360381D01*
X52062096Y-87408000D01*
X52109715Y-87455619D01*
X52157334Y-87550857D01*
X52157334Y-87693714D01*
X52109715Y-87788952D01*
X52062096Y-87836571D01*
X51966858Y-87884190D01*
X51585905Y-87884190D01*
X53109715Y-88360381D02*
X52538286Y-88360381D01*
X52824000Y-88360381D02*
X52824000Y-87360381D01*
X52728762Y-87503238D01*
X52633524Y-87598476D01*
X52538286Y-87646095D01*
X40092381Y-75580762D02*
X41092381Y-75342667D01*
X40378095Y-75152190D01*
X41092381Y-74961714D01*
X40092381Y-74723619D01*
X41092381Y-73818857D02*
X41092381Y-74390286D01*
X41092381Y-74104572D02*
X40092381Y-74104572D01*
X40235238Y-74199810D01*
X40330476Y-74295048D01*
X40378095Y-74390286D01*
X32218381Y-98694762D02*
X33218381Y-98456667D01*
X32504095Y-98266190D01*
X33218381Y-98075714D01*
X32218381Y-97837619D01*
X32313619Y-97504286D02*
X32266000Y-97456667D01*
X32218381Y-97361429D01*
X32218381Y-97123333D01*
X32266000Y-97028095D01*
X32313619Y-96980476D01*
X32408857Y-96932857D01*
X32504095Y-96932857D01*
X32646952Y-96980476D01*
X33218381Y-97551905D01*
X33218381Y-96932857D01*
X69577143Y-81446666D02*
X69624762Y-81494285D01*
X69672381Y-81637142D01*
X69672381Y-81732380D01*
X69624762Y-81875238D01*
X69529524Y-81970476D01*
X69434286Y-82018095D01*
X69243810Y-82065714D01*
X69100952Y-82065714D01*
X68910476Y-82018095D01*
X68815238Y-81970476D01*
X68720000Y-81875238D01*
X68672381Y-81732380D01*
X68672381Y-81637142D01*
X68720000Y-81494285D01*
X68767619Y-81446666D01*
X69005714Y-80589523D02*
X69672381Y-80589523D01*
X68624762Y-80827619D02*
X69339048Y-81065714D01*
X69339048Y-80446666D01*
X57745334Y-81251143D02*
X57697715Y-81298762D01*
X57554858Y-81346381D01*
X57459620Y-81346381D01*
X57316762Y-81298762D01*
X57221524Y-81203524D01*
X57173905Y-81108286D01*
X57126286Y-80917810D01*
X57126286Y-80774952D01*
X57173905Y-80584476D01*
X57221524Y-80489238D01*
X57316762Y-80394000D01*
X57459620Y-80346381D01*
X57554858Y-80346381D01*
X57697715Y-80394000D01*
X57745334Y-80441619D01*
X58078667Y-80346381D02*
X58745334Y-80346381D01*
X58316762Y-81346381D01*
X36830095Y-62698381D02*
X36830095Y-63507905D01*
X36877714Y-63603143D01*
X36925333Y-63650762D01*
X37020571Y-63698381D01*
X37211048Y-63698381D01*
X37306286Y-63650762D01*
X37353905Y-63603143D01*
X37401524Y-63507905D01*
X37401524Y-62698381D01*
X38401524Y-63698381D02*
X37830095Y-63698381D01*
X38115809Y-63698381D02*
X38115809Y-62698381D01*
X38020571Y-62841238D01*
X37925333Y-62936476D01*
X37830095Y-62984095D01*
X60680695Y-96556581D02*
X61252124Y-96556581D01*
X60966409Y-97556581D02*
X60966409Y-96556581D01*
X62109267Y-97556581D02*
X61537838Y-97556581D01*
X61823552Y-97556581D02*
X61823552Y-96556581D01*
X61728314Y-96699438D01*
X61633076Y-96794676D01*
X61537838Y-96842295D01*
M02*
