G04 #@! TF.FileFunction,Legend,Bot*
%FSLAX46Y46*%
G04 Gerber Fmt 4.6, Leading zero omitted, Abs format (unit mm)*
G04 Created by KiCad (PCBNEW 4.0.2+dfsg1-stable) date Mo 13 Nov 2017 21:14:13 CET*
%MOMM*%
G01*
G04 APERTURE LIST*
%ADD10C,0.100000*%
%ADD11C,0.300000*%
%ADD12C,0.150000*%
G04 APERTURE END LIST*
D10*
D11*
X79292857Y-98248571D02*
X79292857Y-96748571D01*
X77578571Y-98391429D02*
X77721428Y-98320000D01*
X77864285Y-98177143D01*
X78078571Y-97962857D01*
X78221428Y-97891429D01*
X78364285Y-97891429D01*
X78292857Y-98248571D02*
X78435714Y-98177143D01*
X78578571Y-98034286D01*
X78650000Y-97748571D01*
X78650000Y-97248571D01*
X78578571Y-96962857D01*
X78435714Y-96820000D01*
X78292857Y-96748571D01*
X78007143Y-96748571D01*
X77864285Y-96820000D01*
X77721428Y-96962857D01*
X77650000Y-97248571D01*
X77650000Y-97748571D01*
X77721428Y-98034286D01*
X77864285Y-98177143D01*
X78007143Y-98248571D01*
X78292857Y-98248571D01*
X77007142Y-98248571D02*
X77007142Y-96748571D01*
X76507142Y-97820000D01*
X76007142Y-96748571D01*
X76007142Y-98248571D01*
X75292856Y-98248571D02*
X75292856Y-97248571D01*
X75292856Y-96748571D02*
X75364285Y-96820000D01*
X75292856Y-96891429D01*
X75221428Y-96820000D01*
X75292856Y-96748571D01*
X75292856Y-96891429D01*
X74721427Y-98248571D02*
X73935713Y-97248571D01*
X74721427Y-97248571D02*
X73935713Y-98248571D01*
X72792856Y-98177143D02*
X72935713Y-98248571D01*
X73221427Y-98248571D01*
X73364284Y-98177143D01*
X73435713Y-98034286D01*
X73435713Y-97462857D01*
X73364284Y-97320000D01*
X73221427Y-97248571D01*
X72935713Y-97248571D01*
X72792856Y-97320000D01*
X72721427Y-97462857D01*
X72721427Y-97605714D01*
X73435713Y-97748571D01*
X72078570Y-98248571D02*
X72078570Y-97248571D01*
X72078570Y-97534286D02*
X72007142Y-97391429D01*
X71935713Y-97320000D01*
X71792856Y-97248571D01*
X71649999Y-97248571D01*
X71149999Y-97677143D02*
X70007142Y-97677143D01*
X69507142Y-96748571D02*
X68649999Y-96748571D01*
X69078570Y-98248571D02*
X69078570Y-96748571D01*
X67578571Y-98177143D02*
X67721428Y-98248571D01*
X68007142Y-98248571D01*
X68149999Y-98177143D01*
X68221428Y-98034286D01*
X68221428Y-97462857D01*
X68149999Y-97320000D01*
X68007142Y-97248571D01*
X67721428Y-97248571D01*
X67578571Y-97320000D01*
X67507142Y-97462857D01*
X67507142Y-97605714D01*
X68221428Y-97748571D01*
X66935714Y-98177143D02*
X66792857Y-98248571D01*
X66507142Y-98248571D01*
X66364285Y-98177143D01*
X66292857Y-98034286D01*
X66292857Y-97962857D01*
X66364285Y-97820000D01*
X66507142Y-97748571D01*
X66721428Y-97748571D01*
X66864285Y-97677143D01*
X66935714Y-97534286D01*
X66935714Y-97462857D01*
X66864285Y-97320000D01*
X66721428Y-97248571D01*
X66507142Y-97248571D01*
X66364285Y-97320000D01*
X65864285Y-97248571D02*
X65292856Y-97248571D01*
X65649999Y-96748571D02*
X65649999Y-98034286D01*
X65578571Y-98177143D01*
X65435713Y-98248571D01*
X65292856Y-98248571D01*
X64792856Y-98248571D02*
X64792856Y-96748571D01*
X64792856Y-97320000D02*
X64649999Y-97248571D01*
X64364285Y-97248571D01*
X64221428Y-97320000D01*
X64149999Y-97391429D01*
X64078570Y-97534286D01*
X64078570Y-97962857D01*
X64149999Y-98105714D01*
X64221428Y-98177143D01*
X64364285Y-98248571D01*
X64649999Y-98248571D01*
X64792856Y-98177143D01*
X63221427Y-98248571D02*
X63364285Y-98177143D01*
X63435713Y-98105714D01*
X63507142Y-97962857D01*
X63507142Y-97534286D01*
X63435713Y-97391429D01*
X63364285Y-97320000D01*
X63221427Y-97248571D01*
X63007142Y-97248571D01*
X62864285Y-97320000D01*
X62792856Y-97391429D01*
X62721427Y-97534286D01*
X62721427Y-97962857D01*
X62792856Y-98105714D01*
X62864285Y-98177143D01*
X63007142Y-98248571D01*
X63221427Y-98248571D01*
X61435713Y-98248571D02*
X61435713Y-97462857D01*
X61507142Y-97320000D01*
X61649999Y-97248571D01*
X61935713Y-97248571D01*
X62078570Y-97320000D01*
X61435713Y-98177143D02*
X61578570Y-98248571D01*
X61935713Y-98248571D01*
X62078570Y-98177143D01*
X62149999Y-98034286D01*
X62149999Y-97891429D01*
X62078570Y-97748571D01*
X61935713Y-97677143D01*
X61578570Y-97677143D01*
X61435713Y-97605714D01*
X60721427Y-98248571D02*
X60721427Y-97248571D01*
X60721427Y-97534286D02*
X60649999Y-97391429D01*
X60578570Y-97320000D01*
X60435713Y-97248571D01*
X60292856Y-97248571D01*
X59149999Y-98248571D02*
X59149999Y-96748571D01*
X59149999Y-98177143D02*
X59292856Y-98248571D01*
X59578570Y-98248571D01*
X59721428Y-98177143D01*
X59792856Y-98105714D01*
X59864285Y-97962857D01*
X59864285Y-97534286D01*
X59792856Y-97391429D01*
X59721428Y-97320000D01*
X59578570Y-97248571D01*
X59292856Y-97248571D01*
X59149999Y-97320000D01*
X56578570Y-98248571D02*
X57292856Y-98248571D01*
X57292856Y-96748571D01*
X56292856Y-96748571D02*
X55435713Y-96748571D01*
X55864284Y-98248571D02*
X55864284Y-96748571D01*
X54078570Y-98105714D02*
X54149999Y-98177143D01*
X54364285Y-98248571D01*
X54507142Y-98248571D01*
X54721427Y-98177143D01*
X54864285Y-98034286D01*
X54935713Y-97891429D01*
X55007142Y-97605714D01*
X55007142Y-97391429D01*
X54935713Y-97105714D01*
X54864285Y-96962857D01*
X54721427Y-96820000D01*
X54507142Y-96748571D01*
X54364285Y-96748571D01*
X54149999Y-96820000D01*
X54078570Y-96891429D01*
X52721427Y-96748571D02*
X53435713Y-96748571D01*
X53507142Y-97462857D01*
X53435713Y-97391429D01*
X53292856Y-97320000D01*
X52935713Y-97320000D01*
X52792856Y-97391429D01*
X52721427Y-97462857D01*
X52649999Y-97605714D01*
X52649999Y-97962857D01*
X52721427Y-98105714D01*
X52792856Y-98177143D01*
X52935713Y-98248571D01*
X53292856Y-98248571D01*
X53435713Y-98177143D01*
X53507142Y-98105714D01*
X51292856Y-96748571D02*
X52007142Y-96748571D01*
X52078571Y-97462857D01*
X52007142Y-97391429D01*
X51864285Y-97320000D01*
X51507142Y-97320000D01*
X51364285Y-97391429D01*
X51292856Y-97462857D01*
X51221428Y-97605714D01*
X51221428Y-97962857D01*
X51292856Y-98105714D01*
X51364285Y-98177143D01*
X51507142Y-98248571D01*
X51864285Y-98248571D01*
X52007142Y-98177143D01*
X52078571Y-98105714D01*
X50507143Y-98248571D02*
X50221428Y-98248571D01*
X50078571Y-98177143D01*
X50007143Y-98105714D01*
X49864285Y-97891429D01*
X49792857Y-97605714D01*
X49792857Y-97034286D01*
X49864285Y-96891429D01*
X49935714Y-96820000D01*
X50078571Y-96748571D01*
X50364285Y-96748571D01*
X50507143Y-96820000D01*
X50578571Y-96891429D01*
X50650000Y-97034286D01*
X50650000Y-97391429D01*
X50578571Y-97534286D01*
X50507143Y-97605714D01*
X50364285Y-97677143D01*
X50078571Y-97677143D01*
X49935714Y-97605714D01*
X49864285Y-97534286D01*
X49792857Y-97391429D01*
X48935714Y-97391429D02*
X49078572Y-97320000D01*
X49150000Y-97248571D01*
X49221429Y-97105714D01*
X49221429Y-97034286D01*
X49150000Y-96891429D01*
X49078572Y-96820000D01*
X48935714Y-96748571D01*
X48650000Y-96748571D01*
X48507143Y-96820000D01*
X48435714Y-96891429D01*
X48364286Y-97034286D01*
X48364286Y-97105714D01*
X48435714Y-97248571D01*
X48507143Y-97320000D01*
X48650000Y-97391429D01*
X48935714Y-97391429D01*
X49078572Y-97462857D01*
X49150000Y-97534286D01*
X49221429Y-97677143D01*
X49221429Y-97962857D01*
X49150000Y-98105714D01*
X49078572Y-98177143D01*
X48935714Y-98248571D01*
X48650000Y-98248571D01*
X48507143Y-98177143D01*
X48435714Y-98105714D01*
X48364286Y-97962857D01*
X48364286Y-97677143D01*
X48435714Y-97534286D01*
X48507143Y-97462857D01*
X48650000Y-97391429D01*
X79507143Y-99148571D02*
X79007143Y-100648571D01*
X78507143Y-99148571D01*
X77221429Y-100648571D02*
X78078572Y-100648571D01*
X77650000Y-100648571D02*
X77650000Y-99148571D01*
X77792857Y-99362857D01*
X77935715Y-99505714D01*
X78078572Y-99577143D01*
X76578572Y-100505714D02*
X76507144Y-100577143D01*
X76578572Y-100648571D01*
X76650001Y-100577143D01*
X76578572Y-100505714D01*
X76578572Y-100648571D01*
X75578572Y-99148571D02*
X75435715Y-99148571D01*
X75292858Y-99220000D01*
X75221429Y-99291429D01*
X75150000Y-99434286D01*
X75078572Y-99720000D01*
X75078572Y-100077143D01*
X75150000Y-100362857D01*
X75221429Y-100505714D01*
X75292858Y-100577143D01*
X75435715Y-100648571D01*
X75578572Y-100648571D01*
X75721429Y-100577143D01*
X75792858Y-100505714D01*
X75864286Y-100362857D01*
X75935715Y-100077143D01*
X75935715Y-99720000D01*
X75864286Y-99434286D01*
X75792858Y-99291429D01*
X75721429Y-99220000D01*
X75578572Y-99148571D01*
X72507144Y-100648571D02*
X73364287Y-100648571D01*
X72935715Y-100648571D02*
X72935715Y-99148571D01*
X73078572Y-99362857D01*
X73221430Y-99505714D01*
X73364287Y-99577143D01*
X71078573Y-100648571D02*
X71935716Y-100648571D01*
X71507144Y-100648571D02*
X71507144Y-99148571D01*
X71650001Y-99362857D01*
X71792859Y-99505714D01*
X71935716Y-99577143D01*
X70435716Y-100077143D02*
X69292859Y-100077143D01*
X68650002Y-99291429D02*
X68578573Y-99220000D01*
X68435716Y-99148571D01*
X68078573Y-99148571D01*
X67935716Y-99220000D01*
X67864287Y-99291429D01*
X67792859Y-99434286D01*
X67792859Y-99577143D01*
X67864287Y-99791429D01*
X68721430Y-100648571D01*
X67792859Y-100648571D01*
X66864288Y-99148571D02*
X66721431Y-99148571D01*
X66578574Y-99220000D01*
X66507145Y-99291429D01*
X66435716Y-99434286D01*
X66364288Y-99720000D01*
X66364288Y-100077143D01*
X66435716Y-100362857D01*
X66507145Y-100505714D01*
X66578574Y-100577143D01*
X66721431Y-100648571D01*
X66864288Y-100648571D01*
X67007145Y-100577143D01*
X67078574Y-100505714D01*
X67150002Y-100362857D01*
X67221431Y-100077143D01*
X67221431Y-99720000D01*
X67150002Y-99434286D01*
X67078574Y-99291429D01*
X67007145Y-99220000D01*
X66864288Y-99148571D01*
X64935717Y-100648571D02*
X65792860Y-100648571D01*
X65364288Y-100648571D02*
X65364288Y-99148571D01*
X65507145Y-99362857D01*
X65650003Y-99505714D01*
X65792860Y-99577143D01*
X64435717Y-99148571D02*
X63435717Y-99148571D01*
X64078574Y-100648571D01*
X79364286Y-102620000D02*
X78650000Y-102620000D01*
X79507143Y-103048571D02*
X79007143Y-101548571D01*
X78507143Y-103048571D01*
X78221429Y-102048571D02*
X77650000Y-102048571D01*
X78007143Y-103048571D02*
X78007143Y-101762857D01*
X77935715Y-101620000D01*
X77792857Y-101548571D01*
X77650000Y-101548571D01*
X76507143Y-102048571D02*
X76507143Y-103048571D01*
X77150000Y-102048571D02*
X77150000Y-102834286D01*
X77078572Y-102977143D01*
X76935714Y-103048571D01*
X76721429Y-103048571D01*
X76578572Y-102977143D01*
X76507143Y-102905714D01*
X75364286Y-101548571D02*
X75364286Y-102620000D01*
X75435714Y-102834286D01*
X75578571Y-102977143D01*
X75792857Y-103048571D01*
X75935714Y-103048571D01*
X74007143Y-102048571D02*
X74007143Y-103048571D01*
X74650000Y-102048571D02*
X74650000Y-102834286D01*
X74578572Y-102977143D01*
X74435714Y-103048571D01*
X74221429Y-103048571D01*
X74078572Y-102977143D01*
X74007143Y-102905714D01*
X72650000Y-102048571D02*
X72650000Y-103262857D01*
X72721429Y-103405714D01*
X72792857Y-103477143D01*
X72935714Y-103548571D01*
X73150000Y-103548571D01*
X73292857Y-103477143D01*
X72650000Y-102977143D02*
X72792857Y-103048571D01*
X73078571Y-103048571D01*
X73221429Y-102977143D01*
X73292857Y-102905714D01*
X73364286Y-102762857D01*
X73364286Y-102334286D01*
X73292857Y-102191429D01*
X73221429Y-102120000D01*
X73078571Y-102048571D01*
X72792857Y-102048571D01*
X72650000Y-102120000D01*
X71364286Y-102977143D02*
X71507143Y-103048571D01*
X71792857Y-103048571D01*
X71935714Y-102977143D01*
X72007143Y-102834286D01*
X72007143Y-102262857D01*
X71935714Y-102120000D01*
X71792857Y-102048571D01*
X71507143Y-102048571D01*
X71364286Y-102120000D01*
X71292857Y-102262857D01*
X71292857Y-102405714D01*
X72007143Y-102548571D01*
X70650000Y-102048571D02*
X70650000Y-103048571D01*
X70650000Y-102191429D02*
X70578572Y-102120000D01*
X70435714Y-102048571D01*
X70221429Y-102048571D01*
X70078572Y-102120000D01*
X70007143Y-102262857D01*
X70007143Y-103048571D01*
X68650000Y-103048571D02*
X68650000Y-101548571D01*
X68650000Y-102977143D02*
X68792857Y-103048571D01*
X69078571Y-103048571D01*
X69221429Y-102977143D01*
X69292857Y-102905714D01*
X69364286Y-102762857D01*
X69364286Y-102334286D01*
X69292857Y-102191429D01*
X69221429Y-102120000D01*
X69078571Y-102048571D01*
X68792857Y-102048571D01*
X68650000Y-102120000D01*
X67435714Y-102262857D02*
X67935714Y-102262857D01*
X67935714Y-103048571D02*
X67935714Y-101548571D01*
X67221428Y-101548571D01*
X66007143Y-103048571D02*
X66007143Y-101548571D01*
X66007143Y-102977143D02*
X66150000Y-103048571D01*
X66435714Y-103048571D01*
X66578572Y-102977143D01*
X66650000Y-102905714D01*
X66721429Y-102762857D01*
X66721429Y-102334286D01*
X66650000Y-102191429D01*
X66578572Y-102120000D01*
X66435714Y-102048571D01*
X66150000Y-102048571D01*
X66007143Y-102120000D01*
X65292857Y-103048571D02*
X65292857Y-101548571D01*
X65292857Y-102120000D02*
X65150000Y-102048571D01*
X64864286Y-102048571D01*
X64721429Y-102120000D01*
X64650000Y-102191429D01*
X64578571Y-102334286D01*
X64578571Y-102762857D01*
X64650000Y-102905714D01*
X64721429Y-102977143D01*
X64864286Y-103048571D01*
X65150000Y-103048571D01*
X65292857Y-102977143D01*
X62792857Y-103048571D02*
X62792857Y-101548571D01*
X62435714Y-101548571D01*
X62221429Y-101620000D01*
X62078571Y-101762857D01*
X62007143Y-101905714D01*
X61935714Y-102191429D01*
X61935714Y-102405714D01*
X62007143Y-102691429D01*
X62078571Y-102834286D01*
X62221429Y-102977143D01*
X62435714Y-103048571D01*
X62792857Y-103048571D01*
X61364286Y-102620000D02*
X60650000Y-102620000D01*
X61507143Y-103048571D02*
X61007143Y-101548571D01*
X60507143Y-103048571D01*
X59150000Y-103048571D02*
X59650000Y-102334286D01*
X60007143Y-103048571D02*
X60007143Y-101548571D01*
X59435715Y-101548571D01*
X59292857Y-101620000D01*
X59221429Y-101691429D01*
X59150000Y-101834286D01*
X59150000Y-102048571D01*
X59221429Y-102191429D01*
X59292857Y-102262857D01*
X59435715Y-102334286D01*
X60007143Y-102334286D01*
X57650000Y-102905714D02*
X57721429Y-102977143D01*
X57935715Y-103048571D01*
X58078572Y-103048571D01*
X58292857Y-102977143D01*
X58435715Y-102834286D01*
X58507143Y-102691429D01*
X58578572Y-102405714D01*
X58578572Y-102191429D01*
X58507143Y-101905714D01*
X58435715Y-101762857D01*
X58292857Y-101620000D01*
X58078572Y-101548571D01*
X57935715Y-101548571D01*
X57721429Y-101620000D01*
X57650000Y-101691429D01*
X56078572Y-101548571D02*
X55221429Y-101548571D01*
X55650000Y-103048571D02*
X55650000Y-101548571D01*
X53935715Y-103048571D02*
X54792858Y-103048571D01*
X54364286Y-103048571D02*
X54364286Y-101548571D01*
X54507143Y-101762857D01*
X54650001Y-101905714D01*
X54792858Y-101977143D01*
X53221430Y-103048571D02*
X52935715Y-103048571D01*
X52792858Y-102977143D01*
X52721430Y-102905714D01*
X52578572Y-102691429D01*
X52507144Y-102405714D01*
X52507144Y-101834286D01*
X52578572Y-101691429D01*
X52650001Y-101620000D01*
X52792858Y-101548571D01*
X53078572Y-101548571D01*
X53221430Y-101620000D01*
X53292858Y-101691429D01*
X53364287Y-101834286D01*
X53364287Y-102191429D01*
X53292858Y-102334286D01*
X53221430Y-102405714D01*
X53078572Y-102477143D01*
X52792858Y-102477143D01*
X52650001Y-102405714D01*
X52578572Y-102334286D01*
X52507144Y-102191429D01*
X78864286Y-103948571D02*
X78864286Y-105020000D01*
X78935714Y-105234286D01*
X79078571Y-105377143D01*
X79292857Y-105448571D01*
X79435714Y-105448571D01*
X77507143Y-104448571D02*
X77507143Y-105448571D01*
X78150000Y-104448571D02*
X78150000Y-105234286D01*
X78078572Y-105377143D01*
X77935714Y-105448571D01*
X77721429Y-105448571D01*
X77578572Y-105377143D01*
X77507143Y-105305714D01*
X76578571Y-105448571D02*
X76721429Y-105377143D01*
X76792857Y-105234286D01*
X76792857Y-103948571D01*
X76007143Y-105448571D02*
X76007143Y-104448571D01*
X76007143Y-103948571D02*
X76078572Y-104020000D01*
X76007143Y-104091429D01*
X75935715Y-104020000D01*
X76007143Y-103948571D01*
X76007143Y-104091429D01*
X74650000Y-105448571D02*
X74650000Y-104662857D01*
X74721429Y-104520000D01*
X74864286Y-104448571D01*
X75150000Y-104448571D01*
X75292857Y-104520000D01*
X74650000Y-105377143D02*
X74792857Y-105448571D01*
X75150000Y-105448571D01*
X75292857Y-105377143D01*
X75364286Y-105234286D01*
X75364286Y-105091429D01*
X75292857Y-104948571D01*
X75150000Y-104877143D01*
X74792857Y-104877143D01*
X74650000Y-104805714D01*
X73935714Y-104448571D02*
X73935714Y-105448571D01*
X73935714Y-104591429D02*
X73864286Y-104520000D01*
X73721428Y-104448571D01*
X73507143Y-104448571D01*
X73364286Y-104520000D01*
X73292857Y-104662857D01*
X73292857Y-105448571D01*
X72507143Y-105377143D02*
X72507143Y-105448571D01*
X72578571Y-105591429D01*
X72650000Y-105662857D01*
X70721428Y-105448571D02*
X70721428Y-103948571D01*
X70364285Y-103948571D01*
X70150000Y-104020000D01*
X70007142Y-104162857D01*
X69935714Y-104305714D01*
X69864285Y-104591429D01*
X69864285Y-104805714D01*
X69935714Y-105091429D01*
X70007142Y-105234286D01*
X70150000Y-105377143D01*
X70364285Y-105448571D01*
X70721428Y-105448571D01*
X69221428Y-105448571D02*
X69221428Y-103948571D01*
X68721428Y-105020000D01*
X68221428Y-103948571D01*
X68221428Y-105448571D01*
X66721428Y-105448571D02*
X67578571Y-105448571D01*
X67149999Y-105448571D02*
X67149999Y-103948571D01*
X67292856Y-104162857D01*
X67435714Y-104305714D01*
X67578571Y-104377143D01*
X65650000Y-103948571D02*
X65650000Y-105020000D01*
X65721428Y-105234286D01*
X65864285Y-105377143D01*
X66078571Y-105448571D01*
X66221428Y-105448571D01*
X65078571Y-103948571D02*
X64078571Y-103948571D01*
X65078571Y-105448571D01*
X64078571Y-105448571D01*
D12*
X37665691Y-94122762D02*
X37665691Y-92122762D01*
X36903786Y-92122762D01*
X36713310Y-92218000D01*
X36618071Y-92313238D01*
X36522833Y-92503714D01*
X36522833Y-92789429D01*
X36618071Y-92979905D01*
X36713310Y-93075143D01*
X36903786Y-93170381D01*
X37665691Y-93170381D01*
X34618071Y-94122762D02*
X35760929Y-94122762D01*
X35189500Y-94122762D02*
X35189500Y-92122762D01*
X35379976Y-92408476D01*
X35570452Y-92598952D01*
X35760929Y-92694190D01*
X57800762Y-65447309D02*
X55800762Y-65447309D01*
X55800762Y-66209214D01*
X55896000Y-66399690D01*
X55991238Y-66494929D01*
X56181714Y-66590167D01*
X56467429Y-66590167D01*
X56657905Y-66494929D01*
X56753143Y-66399690D01*
X56848381Y-66209214D01*
X56848381Y-65447309D01*
X55991238Y-67352071D02*
X55896000Y-67447309D01*
X55800762Y-67637786D01*
X55800762Y-68113976D01*
X55896000Y-68304452D01*
X55991238Y-68399690D01*
X56181714Y-68494929D01*
X56372190Y-68494929D01*
X56657905Y-68399690D01*
X57800762Y-67256833D01*
X57800762Y-68494929D01*
X72278762Y-98732309D02*
X70278762Y-98732309D01*
X70278762Y-99494214D01*
X70374000Y-99684690D01*
X70469238Y-99779929D01*
X70659714Y-99875167D01*
X70945429Y-99875167D01*
X71135905Y-99779929D01*
X71231143Y-99684690D01*
X71326381Y-99494214D01*
X71326381Y-98732309D01*
X70278762Y-100541833D02*
X70278762Y-101779929D01*
X71040667Y-101113262D01*
X71040667Y-101398976D01*
X71135905Y-101589452D01*
X71231143Y-101684690D01*
X71421619Y-101779929D01*
X71897810Y-101779929D01*
X72088286Y-101684690D01*
X72183524Y-101589452D01*
X72278762Y-101398976D01*
X72278762Y-100827548D01*
X72183524Y-100637071D01*
X72088286Y-100541833D01*
X76538691Y-77612762D02*
X76538691Y-75612762D01*
X75776786Y-75612762D01*
X75586310Y-75708000D01*
X75491071Y-75803238D01*
X75395833Y-75993714D01*
X75395833Y-76279429D01*
X75491071Y-76469905D01*
X75586310Y-76565143D01*
X75776786Y-76660381D01*
X76538691Y-76660381D01*
X73681548Y-76279429D02*
X73681548Y-77612762D01*
X74157738Y-75517524D02*
X74633929Y-76946095D01*
X73395833Y-76946095D01*
M02*
