G04 #@! TF.FileFunction,Legend,Top*
%FSLAX46Y46*%
G04 Gerber Fmt 4.6, Leading zero omitted, Abs format (unit mm)*
G04 Created by KiCad (PCBNEW 4.0.2+dfsg1-stable) date Mo 13 Nov 2017 21:14:13 CET*
%MOMM*%
G01*
G04 APERTURE LIST*
%ADD10C,0.100000*%
%ADD11C,0.300000*%
%ADD12C,0.150000*%
G04 APERTURE END LIST*
D10*
D11*
X72821429Y-104400000D02*
X72750000Y-104542857D01*
X72607143Y-104685714D01*
X72392857Y-104900000D01*
X72321429Y-105042857D01*
X72321429Y-105185714D01*
X72678571Y-105114286D02*
X72607143Y-105257143D01*
X72464286Y-105400000D01*
X72178571Y-105471429D01*
X71678571Y-105471429D01*
X71392857Y-105400000D01*
X71250000Y-105257143D01*
X71178571Y-105114286D01*
X71178571Y-104828572D01*
X71250000Y-104685714D01*
X71392857Y-104542857D01*
X71678571Y-104471429D01*
X72178571Y-104471429D01*
X72464286Y-104542857D01*
X72607143Y-104685714D01*
X72678571Y-104828572D01*
X72678571Y-105114286D01*
X72607143Y-102757143D02*
X72678571Y-102542857D01*
X72678571Y-102185714D01*
X72607143Y-102042857D01*
X72535714Y-101971428D01*
X72392857Y-101900000D01*
X72250000Y-101900000D01*
X72107143Y-101971428D01*
X72035714Y-102042857D01*
X71964286Y-102185714D01*
X71892857Y-102471428D01*
X71821429Y-102614286D01*
X71750000Y-102685714D01*
X71607143Y-102757143D01*
X71464286Y-102757143D01*
X71321429Y-102685714D01*
X71250000Y-102614286D01*
X71178571Y-102471428D01*
X71178571Y-102114286D01*
X71250000Y-101900000D01*
X72678571Y-101257143D02*
X71678571Y-101257143D01*
X71178571Y-101257143D02*
X71250000Y-101328572D01*
X71321429Y-101257143D01*
X71250000Y-101185715D01*
X71178571Y-101257143D01*
X71321429Y-101257143D01*
X71678571Y-99900000D02*
X72892857Y-99900000D01*
X73035714Y-99971429D01*
X73107143Y-100042857D01*
X73178571Y-100185714D01*
X73178571Y-100400000D01*
X73107143Y-100542857D01*
X72607143Y-99900000D02*
X72678571Y-100042857D01*
X72678571Y-100328571D01*
X72607143Y-100471429D01*
X72535714Y-100542857D01*
X72392857Y-100614286D01*
X71964286Y-100614286D01*
X71821429Y-100542857D01*
X71750000Y-100471429D01*
X71678571Y-100328571D01*
X71678571Y-100042857D01*
X71750000Y-99900000D01*
X71678571Y-99185714D02*
X72678571Y-99185714D01*
X71821429Y-99185714D02*
X71750000Y-99114286D01*
X71678571Y-98971428D01*
X71678571Y-98757143D01*
X71750000Y-98614286D01*
X71892857Y-98542857D01*
X72678571Y-98542857D01*
X72678571Y-97185714D02*
X71892857Y-97185714D01*
X71750000Y-97257143D01*
X71678571Y-97400000D01*
X71678571Y-97685714D01*
X71750000Y-97828571D01*
X72607143Y-97185714D02*
X72678571Y-97328571D01*
X72678571Y-97685714D01*
X72607143Y-97828571D01*
X72464286Y-97900000D01*
X72321429Y-97900000D01*
X72178571Y-97828571D01*
X72107143Y-97685714D01*
X72107143Y-97328571D01*
X72035714Y-97185714D01*
X72678571Y-96257142D02*
X72607143Y-96400000D01*
X72464286Y-96471428D01*
X71178571Y-96471428D01*
X73607143Y-76978571D02*
X73107143Y-76264286D01*
X72750000Y-76978571D02*
X72750000Y-75478571D01*
X73321428Y-75478571D01*
X73464286Y-75550000D01*
X73535714Y-75621429D01*
X73607143Y-75764286D01*
X73607143Y-75978571D01*
X73535714Y-76121429D01*
X73464286Y-76192857D01*
X73321428Y-76264286D01*
X72750000Y-76264286D01*
X74750000Y-76192857D02*
X74250000Y-76192857D01*
X74250000Y-76978571D02*
X74250000Y-75478571D01*
X74964286Y-75478571D01*
X76964285Y-75478571D02*
X77249999Y-75478571D01*
X77392857Y-75550000D01*
X77535714Y-75692857D01*
X77607142Y-75978571D01*
X77607142Y-76478571D01*
X77535714Y-76764286D01*
X77392857Y-76907143D01*
X77249999Y-76978571D01*
X76964285Y-76978571D01*
X76821428Y-76907143D01*
X76678571Y-76764286D01*
X76607142Y-76478571D01*
X76607142Y-75978571D01*
X76678571Y-75692857D01*
X76821428Y-75550000D01*
X76964285Y-75478571D01*
X78250000Y-75478571D02*
X78250000Y-76692857D01*
X78321428Y-76835714D01*
X78392857Y-76907143D01*
X78535714Y-76978571D01*
X78821428Y-76978571D01*
X78964286Y-76907143D01*
X79035714Y-76835714D01*
X79107143Y-76692857D01*
X79107143Y-75478571D01*
X79607143Y-75478571D02*
X80464286Y-75478571D01*
X80035715Y-76978571D02*
X80035715Y-75478571D01*
X73978571Y-70371428D02*
X72478571Y-70371428D01*
X73907143Y-68585714D02*
X73978571Y-68371428D01*
X73978571Y-68014285D01*
X73907143Y-67871428D01*
X73835714Y-67799999D01*
X73692857Y-67728571D01*
X73550000Y-67728571D01*
X73407143Y-67799999D01*
X73335714Y-67871428D01*
X73264286Y-68014285D01*
X73192857Y-68299999D01*
X73121429Y-68442857D01*
X73050000Y-68514285D01*
X72907143Y-68585714D01*
X72764286Y-68585714D01*
X72621429Y-68514285D01*
X72550000Y-68442857D01*
X72478571Y-68299999D01*
X72478571Y-67942857D01*
X72550000Y-67728571D01*
X73978571Y-67085714D02*
X72978571Y-67085714D01*
X72478571Y-67085714D02*
X72550000Y-67157143D01*
X72621429Y-67085714D01*
X72550000Y-67014286D01*
X72478571Y-67085714D01*
X72621429Y-67085714D01*
X72978571Y-65728571D02*
X74192857Y-65728571D01*
X74335714Y-65800000D01*
X74407143Y-65871428D01*
X74478571Y-66014285D01*
X74478571Y-66228571D01*
X74407143Y-66371428D01*
X73907143Y-65728571D02*
X73978571Y-65871428D01*
X73978571Y-66157142D01*
X73907143Y-66300000D01*
X73835714Y-66371428D01*
X73692857Y-66442857D01*
X73264286Y-66442857D01*
X73121429Y-66371428D01*
X73050000Y-66300000D01*
X72978571Y-66157142D01*
X72978571Y-65871428D01*
X73050000Y-65728571D01*
X72978571Y-65014285D02*
X73978571Y-65014285D01*
X73121429Y-65014285D02*
X73050000Y-64942857D01*
X72978571Y-64799999D01*
X72978571Y-64585714D01*
X73050000Y-64442857D01*
X73192857Y-64371428D01*
X73978571Y-64371428D01*
X73978571Y-63014285D02*
X73192857Y-63014285D01*
X73050000Y-63085714D01*
X72978571Y-63228571D01*
X72978571Y-63514285D01*
X73050000Y-63657142D01*
X73907143Y-63014285D02*
X73978571Y-63157142D01*
X73978571Y-63514285D01*
X73907143Y-63657142D01*
X73764286Y-63728571D01*
X73621429Y-63728571D01*
X73478571Y-63657142D01*
X73407143Y-63514285D01*
X73407143Y-63157142D01*
X73335714Y-63014285D01*
X73978571Y-62085713D02*
X73907143Y-62228571D01*
X73764286Y-62299999D01*
X72478571Y-62299999D01*
X30100000Y-69978571D02*
X30600000Y-71478571D01*
X31100000Y-69978571D01*
X32457143Y-71335714D02*
X32385714Y-71407143D01*
X32171428Y-71478571D01*
X32028571Y-71478571D01*
X31814286Y-71407143D01*
X31671428Y-71264286D01*
X31600000Y-71121429D01*
X31528571Y-70835714D01*
X31528571Y-70621429D01*
X31600000Y-70335714D01*
X31671428Y-70192857D01*
X31814286Y-70050000D01*
X32028571Y-69978571D01*
X32171428Y-69978571D01*
X32385714Y-70050000D01*
X32457143Y-70121429D01*
X33957143Y-71335714D02*
X33885714Y-71407143D01*
X33671428Y-71478571D01*
X33528571Y-71478571D01*
X33314286Y-71407143D01*
X33171428Y-71264286D01*
X33100000Y-71121429D01*
X33028571Y-70835714D01*
X33028571Y-70621429D01*
X33100000Y-70335714D01*
X33171428Y-70192857D01*
X33314286Y-70050000D01*
X33528571Y-69978571D01*
X33671428Y-69978571D01*
X33885714Y-70050000D01*
X33957143Y-70121429D01*
X33457143Y-92950000D02*
X33314286Y-92878571D01*
X33100000Y-92878571D01*
X32885715Y-92950000D01*
X32742857Y-93092857D01*
X32671429Y-93235714D01*
X32600000Y-93521429D01*
X32600000Y-93735714D01*
X32671429Y-94021429D01*
X32742857Y-94164286D01*
X32885715Y-94307143D01*
X33100000Y-94378571D01*
X33242857Y-94378571D01*
X33457143Y-94307143D01*
X33528572Y-94235714D01*
X33528572Y-93735714D01*
X33242857Y-93735714D01*
X34171429Y-94378571D02*
X34171429Y-92878571D01*
X35028572Y-94378571D01*
X35028572Y-92878571D01*
X35742858Y-94378571D02*
X35742858Y-92878571D01*
X36100001Y-92878571D01*
X36314286Y-92950000D01*
X36457144Y-93092857D01*
X36528572Y-93235714D01*
X36600001Y-93521429D01*
X36600001Y-93735714D01*
X36528572Y-94021429D01*
X36457144Y-94164286D01*
X36314286Y-94307143D01*
X36100001Y-94378571D01*
X35742858Y-94378571D01*
X41378571Y-83135714D02*
X41378571Y-83850000D01*
X39878571Y-83850000D01*
X39878571Y-82350000D02*
X39878571Y-82064286D01*
X39950000Y-81921428D01*
X40092857Y-81778571D01*
X40378571Y-81707143D01*
X40878571Y-81707143D01*
X41164286Y-81778571D01*
X41307143Y-81921428D01*
X41378571Y-82064286D01*
X41378571Y-82350000D01*
X41307143Y-82492857D01*
X41164286Y-82635714D01*
X40878571Y-82707143D01*
X40378571Y-82707143D01*
X40092857Y-82635714D01*
X39950000Y-82492857D01*
X39878571Y-82350000D01*
X41378571Y-79921428D02*
X39878571Y-79921428D01*
X41378571Y-79207142D02*
X39878571Y-79207142D01*
X41378571Y-78349999D01*
X39878571Y-78349999D01*
X33668571Y-102868571D02*
X33668571Y-101368571D01*
X35382857Y-103011429D02*
X35240000Y-102940000D01*
X35097143Y-102797143D01*
X34882857Y-102582857D01*
X34740000Y-102511429D01*
X34597143Y-102511429D01*
X34668571Y-102868571D02*
X34525714Y-102797143D01*
X34382857Y-102654286D01*
X34311428Y-102368571D01*
X34311428Y-101868571D01*
X34382857Y-101582857D01*
X34525714Y-101440000D01*
X34668571Y-101368571D01*
X34954285Y-101368571D01*
X35097143Y-101440000D01*
X35240000Y-101582857D01*
X35311428Y-101868571D01*
X35311428Y-102368571D01*
X35240000Y-102654286D01*
X35097143Y-102797143D01*
X34954285Y-102868571D01*
X34668571Y-102868571D01*
X35954286Y-102868571D02*
X35954286Y-101368571D01*
X36454286Y-102440000D01*
X36954286Y-101368571D01*
X36954286Y-102868571D01*
X37668572Y-102868571D02*
X37668572Y-101868571D01*
X37668572Y-101368571D02*
X37597143Y-101440000D01*
X37668572Y-101511429D01*
X37740000Y-101440000D01*
X37668572Y-101368571D01*
X37668572Y-101511429D01*
X38240001Y-102868571D02*
X39025715Y-101868571D01*
X38240001Y-101868571D02*
X39025715Y-102868571D01*
X40168572Y-102797143D02*
X40025715Y-102868571D01*
X39740001Y-102868571D01*
X39597144Y-102797143D01*
X39525715Y-102654286D01*
X39525715Y-102082857D01*
X39597144Y-101940000D01*
X39740001Y-101868571D01*
X40025715Y-101868571D01*
X40168572Y-101940000D01*
X40240001Y-102082857D01*
X40240001Y-102225714D01*
X39525715Y-102368571D01*
X40882858Y-102868571D02*
X40882858Y-101868571D01*
X40882858Y-102154286D02*
X40954286Y-102011429D01*
X41025715Y-101940000D01*
X41168572Y-101868571D01*
X41311429Y-101868571D01*
X41811429Y-102297143D02*
X42954286Y-102297143D01*
X43454286Y-101368571D02*
X44311429Y-101368571D01*
X43882858Y-102868571D02*
X43882858Y-101368571D01*
X45382857Y-102797143D02*
X45240000Y-102868571D01*
X44954286Y-102868571D01*
X44811429Y-102797143D01*
X44740000Y-102654286D01*
X44740000Y-102082857D01*
X44811429Y-101940000D01*
X44954286Y-101868571D01*
X45240000Y-101868571D01*
X45382857Y-101940000D01*
X45454286Y-102082857D01*
X45454286Y-102225714D01*
X44740000Y-102368571D01*
X46025714Y-102797143D02*
X46168571Y-102868571D01*
X46454286Y-102868571D01*
X46597143Y-102797143D01*
X46668571Y-102654286D01*
X46668571Y-102582857D01*
X46597143Y-102440000D01*
X46454286Y-102368571D01*
X46240000Y-102368571D01*
X46097143Y-102297143D01*
X46025714Y-102154286D01*
X46025714Y-102082857D01*
X46097143Y-101940000D01*
X46240000Y-101868571D01*
X46454286Y-101868571D01*
X46597143Y-101940000D01*
X47097143Y-101868571D02*
X47668572Y-101868571D01*
X47311429Y-101368571D02*
X47311429Y-102654286D01*
X47382857Y-102797143D01*
X47525715Y-102868571D01*
X47668572Y-102868571D01*
X48168572Y-102868571D02*
X48168572Y-101368571D01*
X48168572Y-101940000D02*
X48311429Y-101868571D01*
X48597143Y-101868571D01*
X48740000Y-101940000D01*
X48811429Y-102011429D01*
X48882858Y-102154286D01*
X48882858Y-102582857D01*
X48811429Y-102725714D01*
X48740000Y-102797143D01*
X48597143Y-102868571D01*
X48311429Y-102868571D01*
X48168572Y-102797143D01*
X49740001Y-102868571D02*
X49597143Y-102797143D01*
X49525715Y-102725714D01*
X49454286Y-102582857D01*
X49454286Y-102154286D01*
X49525715Y-102011429D01*
X49597143Y-101940000D01*
X49740001Y-101868571D01*
X49954286Y-101868571D01*
X50097143Y-101940000D01*
X50168572Y-102011429D01*
X50240001Y-102154286D01*
X50240001Y-102582857D01*
X50168572Y-102725714D01*
X50097143Y-102797143D01*
X49954286Y-102868571D01*
X49740001Y-102868571D01*
X51525715Y-102868571D02*
X51525715Y-102082857D01*
X51454286Y-101940000D01*
X51311429Y-101868571D01*
X51025715Y-101868571D01*
X50882858Y-101940000D01*
X51525715Y-102797143D02*
X51382858Y-102868571D01*
X51025715Y-102868571D01*
X50882858Y-102797143D01*
X50811429Y-102654286D01*
X50811429Y-102511429D01*
X50882858Y-102368571D01*
X51025715Y-102297143D01*
X51382858Y-102297143D01*
X51525715Y-102225714D01*
X52240001Y-102868571D02*
X52240001Y-101868571D01*
X52240001Y-102154286D02*
X52311429Y-102011429D01*
X52382858Y-101940000D01*
X52525715Y-101868571D01*
X52668572Y-101868571D01*
X53811429Y-102868571D02*
X53811429Y-101368571D01*
X53811429Y-102797143D02*
X53668572Y-102868571D01*
X53382858Y-102868571D01*
X53240000Y-102797143D01*
X53168572Y-102725714D01*
X53097143Y-102582857D01*
X53097143Y-102154286D01*
X53168572Y-102011429D01*
X53240000Y-101940000D01*
X53382858Y-101868571D01*
X53668572Y-101868571D01*
X53811429Y-101940000D01*
X35668573Y-103768571D02*
X36168573Y-105268571D01*
X36668573Y-103768571D01*
X37954287Y-105268571D02*
X37097144Y-105268571D01*
X37525716Y-105268571D02*
X37525716Y-103768571D01*
X37382859Y-103982857D01*
X37240001Y-104125714D01*
X37097144Y-104197143D01*
X38597144Y-105125714D02*
X38668572Y-105197143D01*
X38597144Y-105268571D01*
X38525715Y-105197143D01*
X38597144Y-105125714D01*
X38597144Y-105268571D01*
X39597144Y-103768571D02*
X39740001Y-103768571D01*
X39882858Y-103840000D01*
X39954287Y-103911429D01*
X40025716Y-104054286D01*
X40097144Y-104340000D01*
X40097144Y-104697143D01*
X40025716Y-104982857D01*
X39954287Y-105125714D01*
X39882858Y-105197143D01*
X39740001Y-105268571D01*
X39597144Y-105268571D01*
X39454287Y-105197143D01*
X39382858Y-105125714D01*
X39311430Y-104982857D01*
X39240001Y-104697143D01*
X39240001Y-104340000D01*
X39311430Y-104054286D01*
X39382858Y-103911429D01*
X39454287Y-103840000D01*
X39597144Y-103768571D01*
X42668572Y-105268571D02*
X41811429Y-105268571D01*
X42240001Y-105268571D02*
X42240001Y-103768571D01*
X42097144Y-103982857D01*
X41954286Y-104125714D01*
X41811429Y-104197143D01*
X44097143Y-105268571D02*
X43240000Y-105268571D01*
X43668572Y-105268571D02*
X43668572Y-103768571D01*
X43525715Y-103982857D01*
X43382857Y-104125714D01*
X43240000Y-104197143D01*
X44740000Y-104697143D02*
X45882857Y-104697143D01*
X46525714Y-103911429D02*
X46597143Y-103840000D01*
X46740000Y-103768571D01*
X47097143Y-103768571D01*
X47240000Y-103840000D01*
X47311429Y-103911429D01*
X47382857Y-104054286D01*
X47382857Y-104197143D01*
X47311429Y-104411429D01*
X46454286Y-105268571D01*
X47382857Y-105268571D01*
X48311428Y-103768571D02*
X48454285Y-103768571D01*
X48597142Y-103840000D01*
X48668571Y-103911429D01*
X48740000Y-104054286D01*
X48811428Y-104340000D01*
X48811428Y-104697143D01*
X48740000Y-104982857D01*
X48668571Y-105125714D01*
X48597142Y-105197143D01*
X48454285Y-105268571D01*
X48311428Y-105268571D01*
X48168571Y-105197143D01*
X48097142Y-105125714D01*
X48025714Y-104982857D01*
X47954285Y-104697143D01*
X47954285Y-104340000D01*
X48025714Y-104054286D01*
X48097142Y-103911429D01*
X48168571Y-103840000D01*
X48311428Y-103768571D01*
X50239999Y-105268571D02*
X49382856Y-105268571D01*
X49811428Y-105268571D02*
X49811428Y-103768571D01*
X49668571Y-103982857D01*
X49525713Y-104125714D01*
X49382856Y-104197143D01*
X50739999Y-103768571D02*
X51739999Y-103768571D01*
X51097142Y-105268571D01*
D12*
X65684400Y-75399900D02*
X65671700Y-78600300D01*
X65671700Y-78600300D02*
X65671700Y-78663800D01*
X65671700Y-78663800D02*
X65671700Y-78689200D01*
X65671700Y-78689200D02*
X65062100Y-78714600D01*
X65354200Y-78701900D02*
X61531500Y-78701900D01*
X61531500Y-78701900D02*
X61518800Y-75425300D01*
X61518800Y-75425300D02*
X65646300Y-75412600D01*
X52420000Y-85690000D02*
X51720000Y-85690000D01*
X51720000Y-84490000D02*
X52420000Y-84490000D01*
X52420000Y-87722000D02*
X51720000Y-87722000D01*
X51720000Y-86522000D02*
X52420000Y-86522000D01*
X57754000Y-82388000D02*
X57054000Y-82388000D01*
X57054000Y-81188000D02*
X57754000Y-81188000D01*
X53340000Y-94615000D02*
X53340000Y-93218000D01*
X53213000Y-94869000D02*
X53213000Y-93091000D01*
X53086000Y-95250000D02*
X53086000Y-92710000D01*
X52959000Y-92583000D02*
X52959000Y-95377000D01*
X52832000Y-95504000D02*
X52832000Y-92456000D01*
X52705000Y-92329000D02*
X52705000Y-95631000D01*
X52578000Y-95758000D02*
X52578000Y-92202000D01*
X53721000Y-96647000D02*
X49149000Y-96647000D01*
X49149000Y-96647000D02*
X48387000Y-95885000D01*
X48387000Y-95885000D02*
X48387000Y-92075000D01*
X48387000Y-92075000D02*
X49149000Y-91313000D01*
X49149000Y-91313000D02*
X53721000Y-91313000D01*
X53721000Y-91313000D02*
X53721000Y-96647000D01*
X48895000Y-93980000D02*
X49657000Y-93980000D01*
X49276000Y-94361000D02*
X49276000Y-93599000D01*
X53467000Y-93980000D02*
G75*
G03X53467000Y-93980000I-2413000J0D01*
G01*
X69946000Y-85436000D02*
X69246000Y-85436000D01*
X69246000Y-84236000D02*
X69946000Y-84236000D01*
X67472000Y-81630000D02*
X67472000Y-80930000D01*
X68672000Y-80930000D02*
X68672000Y-81630000D01*
X45212000Y-75057000D02*
X45212000Y-76454000D01*
X45339000Y-74803000D02*
X45339000Y-76581000D01*
X45466000Y-74422000D02*
X45466000Y-76962000D01*
X45593000Y-77089000D02*
X45593000Y-74295000D01*
X45720000Y-74168000D02*
X45720000Y-77216000D01*
X45847000Y-77343000D02*
X45847000Y-74041000D01*
X45974000Y-73914000D02*
X45974000Y-77470000D01*
X44831000Y-73025000D02*
X49403000Y-73025000D01*
X49403000Y-73025000D02*
X50165000Y-73787000D01*
X50165000Y-73787000D02*
X50165000Y-77597000D01*
X50165000Y-77597000D02*
X49403000Y-78359000D01*
X49403000Y-78359000D02*
X44831000Y-78359000D01*
X44831000Y-78359000D02*
X44831000Y-73025000D01*
X49657000Y-75692000D02*
X48895000Y-75692000D01*
X49276000Y-75311000D02*
X49276000Y-76073000D01*
X49911000Y-75692000D02*
G75*
G03X49911000Y-75692000I-2413000J0D01*
G01*
X47371000Y-70104000D02*
X48768000Y-70104000D01*
X47117000Y-69977000D02*
X48895000Y-69977000D01*
X46736000Y-69850000D02*
X49276000Y-69850000D01*
X49403000Y-69723000D02*
X46609000Y-69723000D01*
X46482000Y-69596000D02*
X49530000Y-69596000D01*
X49657000Y-69469000D02*
X46355000Y-69469000D01*
X46228000Y-69342000D02*
X49784000Y-69342000D01*
X45339000Y-70485000D02*
X45339000Y-65913000D01*
X45339000Y-65913000D02*
X46101000Y-65151000D01*
X46101000Y-65151000D02*
X49911000Y-65151000D01*
X49911000Y-65151000D02*
X50673000Y-65913000D01*
X50673000Y-65913000D02*
X50673000Y-70485000D01*
X50673000Y-70485000D02*
X45339000Y-70485000D01*
X48006000Y-65659000D02*
X48006000Y-66421000D01*
X47625000Y-66040000D02*
X48387000Y-66040000D01*
X50419000Y-67818000D02*
G75*
G03X50419000Y-67818000I-2413000J0D01*
G01*
X54768000Y-68234000D02*
X55468000Y-68234000D01*
X55468000Y-69434000D02*
X54768000Y-69434000D01*
X64380000Y-82940000D02*
X64380000Y-83465000D01*
X60080000Y-87240000D02*
X60080000Y-86715000D01*
X64380000Y-87240000D02*
X64380000Y-86715000D01*
X60080000Y-82940000D02*
X60605000Y-82940000D01*
X60080000Y-87240000D02*
X60605000Y-87240000D01*
X64380000Y-87240000D02*
X63855000Y-87240000D01*
X64380000Y-82940000D02*
X63855000Y-82940000D01*
X55210000Y-66661000D02*
X54010000Y-66661000D01*
X54010000Y-64911000D02*
X55210000Y-64911000D01*
X51824000Y-88733000D02*
X52824000Y-88733000D01*
X52824000Y-90083000D02*
X51824000Y-90083000D01*
X70520000Y-81630000D02*
X70520000Y-80930000D01*
X71720000Y-80930000D02*
X71720000Y-81630000D01*
X57754000Y-79594000D02*
X57054000Y-79594000D01*
X57054000Y-78394000D02*
X57754000Y-78394000D01*
X36068000Y-65278000D02*
X36068000Y-66421000D01*
X39116000Y-65278000D02*
X39116000Y-66421000D01*
X42926000Y-66421000D02*
X42926000Y-70104000D01*
X42926000Y-70104000D02*
X32258000Y-70104000D01*
X32258000Y-70104000D02*
X32258000Y-66421000D01*
X42926000Y-65278000D02*
X42926000Y-66421000D01*
X42926000Y-66421000D02*
X32258000Y-66421000D01*
X32258000Y-66421000D02*
X32258000Y-65278000D01*
X37592000Y-65278000D02*
X32258000Y-65278000D01*
X37592000Y-65278000D02*
X42926000Y-65278000D01*
X59791600Y-95034100D02*
X59804300Y-91833700D01*
X59804300Y-91833700D02*
X59804300Y-91770200D01*
X59804300Y-91770200D02*
X59804300Y-91744800D01*
X59804300Y-91744800D02*
X60413900Y-91719400D01*
X60121800Y-91732100D02*
X63944500Y-91732100D01*
X63944500Y-91732100D02*
X63957200Y-95008700D01*
X63957200Y-95008700D02*
X59829700Y-95021400D01*
X63271495Y-72782181D02*
X63842924Y-72782181D01*
X63557209Y-73782181D02*
X63557209Y-72782181D01*
X64128638Y-72877419D02*
X64176257Y-72829800D01*
X64271495Y-72782181D01*
X64509591Y-72782181D01*
X64604829Y-72829800D01*
X64652448Y-72877419D01*
X64700067Y-72972657D01*
X64700067Y-73067895D01*
X64652448Y-73210752D01*
X64081019Y-73782181D01*
X64700067Y-73782181D01*
X51803334Y-83567143D02*
X51755715Y-83614762D01*
X51612858Y-83662381D01*
X51517620Y-83662381D01*
X51374762Y-83614762D01*
X51279524Y-83519524D01*
X51231905Y-83424286D01*
X51184286Y-83233810D01*
X51184286Y-83090952D01*
X51231905Y-82900476D01*
X51279524Y-82805238D01*
X51374762Y-82710000D01*
X51517620Y-82662381D01*
X51612858Y-82662381D01*
X51755715Y-82710000D01*
X51803334Y-82757619D01*
X52755715Y-83662381D02*
X52184286Y-83662381D01*
X52470000Y-83662381D02*
X52470000Y-82662381D01*
X52374762Y-82805238D01*
X52279524Y-82900476D01*
X52184286Y-82948095D01*
X48453334Y-87417143D02*
X48405715Y-87464762D01*
X48262858Y-87512381D01*
X48167620Y-87512381D01*
X48024762Y-87464762D01*
X47929524Y-87369524D01*
X47881905Y-87274286D01*
X47834286Y-87083810D01*
X47834286Y-86940952D01*
X47881905Y-86750476D01*
X47929524Y-86655238D01*
X48024762Y-86560000D01*
X48167620Y-86512381D01*
X48262858Y-86512381D01*
X48405715Y-86560000D01*
X48453334Y-86607619D01*
X48834286Y-86607619D02*
X48881905Y-86560000D01*
X48977143Y-86512381D01*
X49215239Y-86512381D01*
X49310477Y-86560000D01*
X49358096Y-86607619D01*
X49405715Y-86702857D01*
X49405715Y-86798095D01*
X49358096Y-86940952D01*
X48786667Y-87512381D01*
X49405715Y-87512381D01*
X56729334Y-83669143D02*
X56681715Y-83716762D01*
X56538858Y-83764381D01*
X56443620Y-83764381D01*
X56300762Y-83716762D01*
X56205524Y-83621524D01*
X56157905Y-83526286D01*
X56110286Y-83335810D01*
X56110286Y-83192952D01*
X56157905Y-83002476D01*
X56205524Y-82907238D01*
X56300762Y-82812000D01*
X56443620Y-82764381D01*
X56538858Y-82764381D01*
X56681715Y-82812000D01*
X56729334Y-82859619D01*
X57062667Y-82764381D02*
X57681715Y-82764381D01*
X57348381Y-83145333D01*
X57491239Y-83145333D01*
X57586477Y-83192952D01*
X57634096Y-83240571D01*
X57681715Y-83335810D01*
X57681715Y-83573905D01*
X57634096Y-83669143D01*
X57586477Y-83716762D01*
X57491239Y-83764381D01*
X57205524Y-83764381D01*
X57110286Y-83716762D01*
X57062667Y-83669143D01*
X50887334Y-98655143D02*
X50839715Y-98702762D01*
X50696858Y-98750381D01*
X50601620Y-98750381D01*
X50458762Y-98702762D01*
X50363524Y-98607524D01*
X50315905Y-98512286D01*
X50268286Y-98321810D01*
X50268286Y-98178952D01*
X50315905Y-97988476D01*
X50363524Y-97893238D01*
X50458762Y-97798000D01*
X50601620Y-97750381D01*
X50696858Y-97750381D01*
X50839715Y-97798000D01*
X50887334Y-97845619D01*
X51792096Y-97750381D02*
X51315905Y-97750381D01*
X51268286Y-98226571D01*
X51315905Y-98178952D01*
X51411143Y-98131333D01*
X51649239Y-98131333D01*
X51744477Y-98178952D01*
X51792096Y-98226571D01*
X51839715Y-98321810D01*
X51839715Y-98559905D01*
X51792096Y-98655143D01*
X51744477Y-98702762D01*
X51649239Y-98750381D01*
X51411143Y-98750381D01*
X51315905Y-98702762D01*
X51268286Y-98655143D01*
X69429334Y-87093143D02*
X69381715Y-87140762D01*
X69238858Y-87188381D01*
X69143620Y-87188381D01*
X69000762Y-87140762D01*
X68905524Y-87045524D01*
X68857905Y-86950286D01*
X68810286Y-86759810D01*
X68810286Y-86616952D01*
X68857905Y-86426476D01*
X68905524Y-86331238D01*
X69000762Y-86236000D01*
X69143620Y-86188381D01*
X69238858Y-86188381D01*
X69381715Y-86236000D01*
X69429334Y-86283619D01*
X70286477Y-86188381D02*
X70096000Y-86188381D01*
X70000762Y-86236000D01*
X69953143Y-86283619D01*
X69857905Y-86426476D01*
X69810286Y-86616952D01*
X69810286Y-86997905D01*
X69857905Y-87093143D01*
X69905524Y-87140762D01*
X70000762Y-87188381D01*
X70191239Y-87188381D01*
X70286477Y-87140762D01*
X70334096Y-87093143D01*
X70381715Y-86997905D01*
X70381715Y-86759810D01*
X70334096Y-86664571D01*
X70286477Y-86616952D01*
X70191239Y-86569333D01*
X70000762Y-86569333D01*
X69905524Y-86616952D01*
X69857905Y-86664571D01*
X69810286Y-86759810D01*
X67905334Y-78843143D02*
X67857715Y-78890762D01*
X67714858Y-78938381D01*
X67619620Y-78938381D01*
X67476762Y-78890762D01*
X67381524Y-78795524D01*
X67333905Y-78700286D01*
X67286286Y-78509810D01*
X67286286Y-78366952D01*
X67333905Y-78176476D01*
X67381524Y-78081238D01*
X67476762Y-77986000D01*
X67619620Y-77938381D01*
X67714858Y-77938381D01*
X67857715Y-77986000D01*
X67905334Y-78033619D01*
X68476762Y-78366952D02*
X68381524Y-78319333D01*
X68333905Y-78271714D01*
X68286286Y-78176476D01*
X68286286Y-78128857D01*
X68333905Y-78033619D01*
X68381524Y-77986000D01*
X68476762Y-77938381D01*
X68667239Y-77938381D01*
X68762477Y-77986000D01*
X68810096Y-78033619D01*
X68857715Y-78128857D01*
X68857715Y-78176476D01*
X68810096Y-78271714D01*
X68762477Y-78319333D01*
X68667239Y-78366952D01*
X68476762Y-78366952D01*
X68381524Y-78414571D01*
X68333905Y-78462190D01*
X68286286Y-78557429D01*
X68286286Y-78747905D01*
X68333905Y-78843143D01*
X68381524Y-78890762D01*
X68476762Y-78938381D01*
X68667239Y-78938381D01*
X68762477Y-78890762D01*
X68810096Y-78843143D01*
X68857715Y-78747905D01*
X68857715Y-78557429D01*
X68810096Y-78462190D01*
X68762477Y-78414571D01*
X68667239Y-78366952D01*
X47613334Y-80097143D02*
X47565715Y-80144762D01*
X47422858Y-80192381D01*
X47327620Y-80192381D01*
X47184762Y-80144762D01*
X47089524Y-80049524D01*
X47041905Y-79954286D01*
X46994286Y-79763810D01*
X46994286Y-79620952D01*
X47041905Y-79430476D01*
X47089524Y-79335238D01*
X47184762Y-79240000D01*
X47327620Y-79192381D01*
X47422858Y-79192381D01*
X47565715Y-79240000D01*
X47613334Y-79287619D01*
X48089524Y-80192381D02*
X48280000Y-80192381D01*
X48375239Y-80144762D01*
X48422858Y-80097143D01*
X48518096Y-79954286D01*
X48565715Y-79763810D01*
X48565715Y-79382857D01*
X48518096Y-79287619D01*
X48470477Y-79240000D01*
X48375239Y-79192381D01*
X48184762Y-79192381D01*
X48089524Y-79240000D01*
X48041905Y-79287619D01*
X47994286Y-79382857D01*
X47994286Y-79620952D01*
X48041905Y-79716190D01*
X48089524Y-79763810D01*
X48184762Y-79811429D01*
X48375239Y-79811429D01*
X48470477Y-79763810D01*
X48518096Y-79716190D01*
X48565715Y-79620952D01*
X44553143Y-68460857D02*
X44600762Y-68508476D01*
X44648381Y-68651333D01*
X44648381Y-68746571D01*
X44600762Y-68889429D01*
X44505524Y-68984667D01*
X44410286Y-69032286D01*
X44219810Y-69079905D01*
X44076952Y-69079905D01*
X43886476Y-69032286D01*
X43791238Y-68984667D01*
X43696000Y-68889429D01*
X43648381Y-68746571D01*
X43648381Y-68651333D01*
X43696000Y-68508476D01*
X43743619Y-68460857D01*
X44648381Y-67508476D02*
X44648381Y-68079905D01*
X44648381Y-67794191D02*
X43648381Y-67794191D01*
X43791238Y-67889429D01*
X43886476Y-67984667D01*
X43934095Y-68079905D01*
X43648381Y-66889429D02*
X43648381Y-66794190D01*
X43696000Y-66698952D01*
X43743619Y-66651333D01*
X43838857Y-66603714D01*
X44029333Y-66556095D01*
X44267429Y-66556095D01*
X44457905Y-66603714D01*
X44553143Y-66651333D01*
X44600762Y-66698952D01*
X44648381Y-66794190D01*
X44648381Y-66889429D01*
X44600762Y-66984667D01*
X44553143Y-67032286D01*
X44457905Y-67079905D01*
X44267429Y-67127524D01*
X44029333Y-67127524D01*
X43838857Y-67079905D01*
X43743619Y-67032286D01*
X43696000Y-66984667D01*
X43648381Y-66889429D01*
X53929143Y-70877143D02*
X53881524Y-70924762D01*
X53738667Y-70972381D01*
X53643429Y-70972381D01*
X53500571Y-70924762D01*
X53405333Y-70829524D01*
X53357714Y-70734286D01*
X53310095Y-70543810D01*
X53310095Y-70400952D01*
X53357714Y-70210476D01*
X53405333Y-70115238D01*
X53500571Y-70020000D01*
X53643429Y-69972381D01*
X53738667Y-69972381D01*
X53881524Y-70020000D01*
X53929143Y-70067619D01*
X54881524Y-70972381D02*
X54310095Y-70972381D01*
X54595809Y-70972381D02*
X54595809Y-69972381D01*
X54500571Y-70115238D01*
X54405333Y-70210476D01*
X54310095Y-70258095D01*
X55833905Y-70972381D02*
X55262476Y-70972381D01*
X55548190Y-70972381D02*
X55548190Y-69972381D01*
X55452952Y-70115238D01*
X55357714Y-70210476D01*
X55262476Y-70258095D01*
X61253810Y-82167381D02*
X61253810Y-81167381D01*
X62301429Y-82072143D02*
X62253810Y-82119762D01*
X62110953Y-82167381D01*
X62015715Y-82167381D01*
X61872857Y-82119762D01*
X61777619Y-82024524D01*
X61730000Y-81929286D01*
X61682381Y-81738810D01*
X61682381Y-81595952D01*
X61730000Y-81405476D01*
X61777619Y-81310238D01*
X61872857Y-81215000D01*
X62015715Y-81167381D01*
X62110953Y-81167381D01*
X62253810Y-81215000D01*
X62301429Y-81262619D01*
X63253810Y-82167381D02*
X62682381Y-82167381D01*
X62968095Y-82167381D02*
X62968095Y-81167381D01*
X62872857Y-81310238D01*
X62777619Y-81405476D01*
X62682381Y-81453095D01*
X54443334Y-64138381D02*
X53967143Y-64138381D01*
X53967143Y-63138381D01*
X55300477Y-64138381D02*
X54729048Y-64138381D01*
X55014762Y-64138381D02*
X55014762Y-63138381D01*
X54919524Y-63281238D01*
X54824286Y-63376476D01*
X54729048Y-63424095D01*
X48601334Y-89860381D02*
X48268000Y-89384190D01*
X48029905Y-89860381D02*
X48029905Y-88860381D01*
X48410858Y-88860381D01*
X48506096Y-88908000D01*
X48553715Y-88955619D01*
X48601334Y-89050857D01*
X48601334Y-89193714D01*
X48553715Y-89288952D01*
X48506096Y-89336571D01*
X48410858Y-89384190D01*
X48029905Y-89384190D01*
X49553715Y-89860381D02*
X48982286Y-89860381D01*
X49268000Y-89860381D02*
X49268000Y-88860381D01*
X49172762Y-89003238D01*
X49077524Y-89098476D01*
X48982286Y-89146095D01*
X40092381Y-75580762D02*
X41092381Y-75342667D01*
X40378095Y-75152190D01*
X41092381Y-74961714D01*
X40092381Y-74723619D01*
X41092381Y-73818857D02*
X41092381Y-74390286D01*
X41092381Y-74104572D02*
X40092381Y-74104572D01*
X40235238Y-74199810D01*
X40330476Y-74295048D01*
X40378095Y-74390286D01*
X32218381Y-98694762D02*
X33218381Y-98456667D01*
X32504095Y-98266190D01*
X33218381Y-98075714D01*
X32218381Y-97837619D01*
X32313619Y-97504286D02*
X32266000Y-97456667D01*
X32218381Y-97361429D01*
X32218381Y-97123333D01*
X32266000Y-97028095D01*
X32313619Y-96980476D01*
X32408857Y-96932857D01*
X32504095Y-96932857D01*
X32646952Y-96980476D01*
X33218381Y-97551905D01*
X33218381Y-96932857D01*
X70893334Y-78847143D02*
X70845715Y-78894762D01*
X70702858Y-78942381D01*
X70607620Y-78942381D01*
X70464762Y-78894762D01*
X70369524Y-78799524D01*
X70321905Y-78704286D01*
X70274286Y-78513810D01*
X70274286Y-78370952D01*
X70321905Y-78180476D01*
X70369524Y-78085238D01*
X70464762Y-77990000D01*
X70607620Y-77942381D01*
X70702858Y-77942381D01*
X70845715Y-77990000D01*
X70893334Y-78037619D01*
X71750477Y-78275714D02*
X71750477Y-78942381D01*
X71512381Y-77894762D02*
X71274286Y-78609048D01*
X71893334Y-78609048D01*
X53935334Y-79097143D02*
X53887715Y-79144762D01*
X53744858Y-79192381D01*
X53649620Y-79192381D01*
X53506762Y-79144762D01*
X53411524Y-79049524D01*
X53363905Y-78954286D01*
X53316286Y-78763810D01*
X53316286Y-78620952D01*
X53363905Y-78430476D01*
X53411524Y-78335238D01*
X53506762Y-78240000D01*
X53649620Y-78192381D01*
X53744858Y-78192381D01*
X53887715Y-78240000D01*
X53935334Y-78287619D01*
X54268667Y-78192381D02*
X54935334Y-78192381D01*
X54506762Y-79192381D01*
X36830095Y-62698381D02*
X36830095Y-63507905D01*
X36877714Y-63603143D01*
X36925333Y-63650762D01*
X37020571Y-63698381D01*
X37211048Y-63698381D01*
X37306286Y-63650762D01*
X37353905Y-63603143D01*
X37401524Y-63507905D01*
X37401524Y-62698381D01*
X38401524Y-63698381D02*
X37830095Y-63698381D01*
X38115809Y-63698381D02*
X38115809Y-62698381D01*
X38020571Y-62841238D01*
X37925333Y-62936476D01*
X37830095Y-62984095D01*
X60680695Y-96556581D02*
X61252124Y-96556581D01*
X60966409Y-97556581D02*
X60966409Y-96556581D01*
X62109267Y-97556581D02*
X61537838Y-97556581D01*
X61823552Y-97556581D02*
X61823552Y-96556581D01*
X61728314Y-96699438D01*
X61633076Y-96794676D01*
X61537838Y-96842295D01*
M02*
