G04 #@! TF.FileFunction,Copper,L2,Bot,Signal*
%FSLAX46Y46*%
G04 Gerber Fmt 4.6, Leading zero omitted, Abs format (unit mm)*
G04 Created by KiCad (PCBNEW 4.0.2+dfsg1-stable) date Mo 13 Nov 2017 21:14:13 CET*
%MOMM*%
G01*
G04 APERTURE LIST*
%ADD10C,0.100000*%
%ADD11R,5.080000X2.420000*%
%ADD12C,0.970000*%
%ADD13R,0.890000X0.460000*%
%ADD14R,2.420000X5.080000*%
%ADD15R,0.460000X0.890000*%
%ADD16O,1.501140X2.499360*%
%ADD17C,0.600000*%
%ADD18C,0.250000*%
%ADD19C,1.000000*%
%ADD20C,0.127000*%
G04 APERTURE END LIST*
D10*
D11*
X34602000Y-80710000D03*
X34602000Y-89470000D03*
D12*
X38042000Y-80710000D03*
X38042000Y-89470000D03*
D13*
X37592000Y-80710000D03*
X37592000Y-89470000D03*
D14*
X69404000Y-65336000D03*
X60644000Y-65336000D03*
D12*
X69404000Y-68776000D03*
X60644000Y-68776000D03*
D15*
X69404000Y-68326000D03*
X60644000Y-68326000D03*
D14*
X58866000Y-101796000D03*
X67626000Y-101796000D03*
D12*
X58866000Y-98356000D03*
X67626000Y-98356000D03*
D15*
X58866000Y-98806000D03*
X67626000Y-98806000D03*
D11*
X76650000Y-89216000D03*
X76650000Y-80456000D03*
D12*
X73210000Y-89216000D03*
X73210000Y-80456000D03*
D13*
X73660000Y-89216000D03*
X73660000Y-80456000D03*
D16*
X37592000Y-68326000D03*
X35052000Y-68326000D03*
X40132000Y-68326000D03*
D17*
X65024000Y-82296000D03*
X63540000Y-80510000D03*
D18*
X65086000Y-101796000D02*
X65086000Y-98356000D01*
X56326000Y-101796000D02*
X56326000Y-98356000D01*
D19*
X67626000Y-98356000D02*
X67626000Y-101796000D01*
X58866000Y-98356000D02*
X58866000Y-101796000D01*
D18*
X34602000Y-89470000D02*
X38042000Y-89470000D01*
X34602000Y-80710000D02*
X38042000Y-80710000D01*
X60644000Y-65336000D02*
X60644000Y-68776000D01*
X69404000Y-65336000D02*
X69404000Y-68776000D01*
X76650000Y-80456000D02*
X73210000Y-80456000D01*
X76650000Y-89216000D02*
X73210000Y-89216000D01*
D20*
G36*
X81420900Y-107074900D02*
X29526300Y-107074900D01*
X29526300Y-102129375D01*
X57084500Y-102129375D01*
X57084500Y-104449678D01*
X57171506Y-104659728D01*
X57332271Y-104820494D01*
X57542321Y-104907500D01*
X58532625Y-104907500D01*
X58675500Y-104764625D01*
X58675500Y-101986500D01*
X59056500Y-101986500D01*
X59056500Y-104764625D01*
X59199375Y-104907500D01*
X60189679Y-104907500D01*
X60399729Y-104820494D01*
X60560494Y-104659728D01*
X60647500Y-104449678D01*
X60647500Y-102129375D01*
X65844500Y-102129375D01*
X65844500Y-104449678D01*
X65931506Y-104659728D01*
X66092271Y-104820494D01*
X66302321Y-104907500D01*
X67292625Y-104907500D01*
X67435500Y-104764625D01*
X67435500Y-101986500D01*
X67816500Y-101986500D01*
X67816500Y-104764625D01*
X67959375Y-104907500D01*
X68949679Y-104907500D01*
X69159729Y-104820494D01*
X69320494Y-104659728D01*
X69407500Y-104449678D01*
X69407500Y-102129375D01*
X69264625Y-101986500D01*
X67816500Y-101986500D01*
X67435500Y-101986500D01*
X65987375Y-101986500D01*
X65844500Y-102129375D01*
X60647500Y-102129375D01*
X60504625Y-101986500D01*
X59056500Y-101986500D01*
X58675500Y-101986500D01*
X57227375Y-101986500D01*
X57084500Y-102129375D01*
X29526300Y-102129375D01*
X29526300Y-98356000D01*
X56010500Y-98356000D01*
X56010500Y-101796000D01*
X56034516Y-101916737D01*
X56102908Y-102019092D01*
X56205263Y-102087484D01*
X56326000Y-102111500D01*
X56446737Y-102087484D01*
X56549092Y-102019092D01*
X56617484Y-101916737D01*
X56641500Y-101796000D01*
X56641500Y-99142322D01*
X57084500Y-99142322D01*
X57084500Y-101462625D01*
X57227375Y-101605500D01*
X58675500Y-101605500D01*
X58675500Y-101585500D01*
X59056500Y-101585500D01*
X59056500Y-101605500D01*
X60504625Y-101605500D01*
X60647500Y-101462625D01*
X60647500Y-99142322D01*
X60560494Y-98932272D01*
X60399729Y-98771506D01*
X60189679Y-98684500D01*
X59872227Y-98684500D01*
X59941396Y-98418267D01*
X59932716Y-98356000D01*
X64770500Y-98356000D01*
X64770500Y-101796000D01*
X64794516Y-101916737D01*
X64862908Y-102019092D01*
X64965263Y-102087484D01*
X65086000Y-102111500D01*
X65206737Y-102087484D01*
X65309092Y-102019092D01*
X65377484Y-101916737D01*
X65401500Y-101796000D01*
X65401500Y-99142322D01*
X65844500Y-99142322D01*
X65844500Y-101462625D01*
X65987375Y-101605500D01*
X67435500Y-101605500D01*
X67435500Y-101585500D01*
X67816500Y-101585500D01*
X67816500Y-101605500D01*
X69264625Y-101605500D01*
X69407500Y-101462625D01*
X69407500Y-99142322D01*
X69320494Y-98932272D01*
X69159729Y-98771506D01*
X68949679Y-98684500D01*
X68632227Y-98684500D01*
X68701396Y-98418267D01*
X68643364Y-98001991D01*
X68595708Y-97886936D01*
X68407492Y-97843916D01*
X68277315Y-97974093D01*
X68179729Y-97876506D01*
X67969679Y-97789500D01*
X67923092Y-97789500D01*
X68138084Y-97574508D01*
X68095064Y-97386292D01*
X67688267Y-97280604D01*
X67271991Y-97338636D01*
X67156936Y-97386292D01*
X67113916Y-97574508D01*
X67328908Y-97789500D01*
X67282321Y-97789500D01*
X67072271Y-97876506D01*
X66974685Y-97974093D01*
X66844508Y-97843916D01*
X66656292Y-97886936D01*
X66550604Y-98293733D01*
X66605080Y-98684500D01*
X66302321Y-98684500D01*
X66092271Y-98771506D01*
X65931506Y-98932272D01*
X65844500Y-99142322D01*
X65401500Y-99142322D01*
X65401500Y-98356000D01*
X65377484Y-98235263D01*
X65309092Y-98132908D01*
X65206737Y-98064516D01*
X65086000Y-98040500D01*
X64965263Y-98064516D01*
X64862908Y-98132908D01*
X64794516Y-98235263D01*
X64770500Y-98356000D01*
X59932716Y-98356000D01*
X59883364Y-98001991D01*
X59835708Y-97886936D01*
X59647492Y-97843916D01*
X59517315Y-97974093D01*
X59419729Y-97876506D01*
X59209679Y-97789500D01*
X59163092Y-97789500D01*
X59378084Y-97574508D01*
X59335064Y-97386292D01*
X58928267Y-97280604D01*
X58511991Y-97338636D01*
X58396936Y-97386292D01*
X58353916Y-97574508D01*
X58568908Y-97789500D01*
X58522321Y-97789500D01*
X58312271Y-97876506D01*
X58214685Y-97974093D01*
X58084508Y-97843916D01*
X57896292Y-97886936D01*
X57790604Y-98293733D01*
X57845080Y-98684500D01*
X57542321Y-98684500D01*
X57332271Y-98771506D01*
X57171506Y-98932272D01*
X57084500Y-99142322D01*
X56641500Y-99142322D01*
X56641500Y-98356000D01*
X56617484Y-98235263D01*
X56549092Y-98132908D01*
X56446737Y-98064516D01*
X56326000Y-98040500D01*
X56205263Y-98064516D01*
X56102908Y-98132908D01*
X56034516Y-98235263D01*
X56010500Y-98356000D01*
X29526300Y-98356000D01*
X29526300Y-89803375D01*
X31490500Y-89803375D01*
X31490500Y-90793679D01*
X31577506Y-91003729D01*
X31738272Y-91164494D01*
X31948322Y-91251500D01*
X34268625Y-91251500D01*
X34411500Y-91108625D01*
X34411500Y-89660500D01*
X31633375Y-89660500D01*
X31490500Y-89803375D01*
X29526300Y-89803375D01*
X29526300Y-88146321D01*
X31490500Y-88146321D01*
X31490500Y-89136625D01*
X31633375Y-89279500D01*
X34411500Y-89279500D01*
X34411500Y-87831375D01*
X34792500Y-87831375D01*
X34792500Y-89279500D01*
X34812500Y-89279500D01*
X34812500Y-89660500D01*
X34792500Y-89660500D01*
X34792500Y-91108625D01*
X34935375Y-91251500D01*
X37255678Y-91251500D01*
X37465728Y-91164494D01*
X37626494Y-91003729D01*
X37713500Y-90793679D01*
X37713500Y-90476227D01*
X37979733Y-90545396D01*
X38396009Y-90487364D01*
X38511064Y-90439708D01*
X38554084Y-90251492D01*
X38423907Y-90121315D01*
X38521494Y-90023729D01*
X38608500Y-89813679D01*
X38608500Y-89767092D01*
X38823492Y-89982084D01*
X39011708Y-89939064D01*
X39117396Y-89532267D01*
X39064626Y-89153733D01*
X72134604Y-89153733D01*
X72192636Y-89570009D01*
X72240292Y-89685064D01*
X72428508Y-89728084D01*
X72643500Y-89513092D01*
X72643500Y-89559679D01*
X72730506Y-89769729D01*
X72828093Y-89867315D01*
X72697916Y-89997492D01*
X72740936Y-90185708D01*
X73147733Y-90291396D01*
X73538500Y-90236920D01*
X73538500Y-90539679D01*
X73625506Y-90749729D01*
X73786272Y-90910494D01*
X73996322Y-90997500D01*
X76316625Y-90997500D01*
X76459500Y-90854625D01*
X76459500Y-89406500D01*
X76840500Y-89406500D01*
X76840500Y-90854625D01*
X76983375Y-90997500D01*
X79303678Y-90997500D01*
X79513728Y-90910494D01*
X79674494Y-90749729D01*
X79761500Y-90539679D01*
X79761500Y-89549375D01*
X79618625Y-89406500D01*
X76840500Y-89406500D01*
X76459500Y-89406500D01*
X76439500Y-89406500D01*
X76439500Y-89025500D01*
X76459500Y-89025500D01*
X76459500Y-87577375D01*
X76840500Y-87577375D01*
X76840500Y-89025500D01*
X79618625Y-89025500D01*
X79761500Y-88882625D01*
X79761500Y-87892321D01*
X79674494Y-87682271D01*
X79513728Y-87521506D01*
X79303678Y-87434500D01*
X76983375Y-87434500D01*
X76840500Y-87577375D01*
X76459500Y-87577375D01*
X76316625Y-87434500D01*
X73996322Y-87434500D01*
X73786272Y-87521506D01*
X73625506Y-87682271D01*
X73538500Y-87892321D01*
X73538500Y-88209773D01*
X73272267Y-88140604D01*
X72855991Y-88198636D01*
X72740936Y-88246292D01*
X72697916Y-88434508D01*
X72828093Y-88564685D01*
X72730506Y-88662271D01*
X72643500Y-88872321D01*
X72643500Y-88918908D01*
X72428508Y-88703916D01*
X72240292Y-88746936D01*
X72134604Y-89153733D01*
X39064626Y-89153733D01*
X39059364Y-89115991D01*
X39011708Y-89000936D01*
X38823492Y-88957916D01*
X38608500Y-89172908D01*
X38608500Y-89126321D01*
X38521494Y-88916271D01*
X38423907Y-88818685D01*
X38554084Y-88688508D01*
X38511064Y-88500292D01*
X38104267Y-88394604D01*
X37713500Y-88449080D01*
X37713500Y-88146321D01*
X37626494Y-87936271D01*
X37465728Y-87775506D01*
X37255678Y-87688500D01*
X34935375Y-87688500D01*
X34792500Y-87831375D01*
X34411500Y-87831375D01*
X34268625Y-87688500D01*
X31948322Y-87688500D01*
X31738272Y-87775506D01*
X31577506Y-87936271D01*
X31490500Y-88146321D01*
X29526300Y-88146321D01*
X29526300Y-81043375D01*
X31490500Y-81043375D01*
X31490500Y-82033679D01*
X31577506Y-82243729D01*
X31738272Y-82404494D01*
X31948322Y-82491500D01*
X34268625Y-82491500D01*
X34411500Y-82348625D01*
X34411500Y-80900500D01*
X31633375Y-80900500D01*
X31490500Y-81043375D01*
X29526300Y-81043375D01*
X29526300Y-79386321D01*
X31490500Y-79386321D01*
X31490500Y-80376625D01*
X31633375Y-80519500D01*
X34411500Y-80519500D01*
X34411500Y-79071375D01*
X34792500Y-79071375D01*
X34792500Y-80519500D01*
X34812500Y-80519500D01*
X34812500Y-80900500D01*
X34792500Y-80900500D01*
X34792500Y-82348625D01*
X34935375Y-82491500D01*
X37255678Y-82491500D01*
X37465728Y-82404494D01*
X37626494Y-82243729D01*
X37713500Y-82033679D01*
X37713500Y-81716227D01*
X37979733Y-81785396D01*
X38396009Y-81727364D01*
X38511064Y-81679708D01*
X38554084Y-81491492D01*
X38423907Y-81361315D01*
X38521494Y-81263729D01*
X38608500Y-81053679D01*
X38608500Y-81007092D01*
X38823492Y-81222084D01*
X39011708Y-81179064D01*
X39117396Y-80772267D01*
X39064626Y-80393733D01*
X72134604Y-80393733D01*
X72192636Y-80810009D01*
X72240292Y-80925064D01*
X72428508Y-80968084D01*
X72643500Y-80753092D01*
X72643500Y-80799679D01*
X72730506Y-81009729D01*
X72828093Y-81107315D01*
X72697916Y-81237492D01*
X72740936Y-81425708D01*
X73147733Y-81531396D01*
X73538500Y-81476920D01*
X73538500Y-81779679D01*
X73625506Y-81989729D01*
X73786272Y-82150494D01*
X73996322Y-82237500D01*
X76316625Y-82237500D01*
X76459500Y-82094625D01*
X76459500Y-80646500D01*
X76840500Y-80646500D01*
X76840500Y-82094625D01*
X76983375Y-82237500D01*
X79303678Y-82237500D01*
X79513728Y-82150494D01*
X79674494Y-81989729D01*
X79761500Y-81779679D01*
X79761500Y-80789375D01*
X79618625Y-80646500D01*
X76840500Y-80646500D01*
X76459500Y-80646500D01*
X76439500Y-80646500D01*
X76439500Y-80265500D01*
X76459500Y-80265500D01*
X76459500Y-78817375D01*
X76840500Y-78817375D01*
X76840500Y-80265500D01*
X79618625Y-80265500D01*
X79761500Y-80122625D01*
X79761500Y-79132321D01*
X79674494Y-78922271D01*
X79513728Y-78761506D01*
X79303678Y-78674500D01*
X76983375Y-78674500D01*
X76840500Y-78817375D01*
X76459500Y-78817375D01*
X76316625Y-78674500D01*
X73996322Y-78674500D01*
X73786272Y-78761506D01*
X73625506Y-78922271D01*
X73538500Y-79132321D01*
X73538500Y-79449773D01*
X73272267Y-79380604D01*
X72855991Y-79438636D01*
X72740936Y-79486292D01*
X72697916Y-79674508D01*
X72828093Y-79804685D01*
X72730506Y-79902271D01*
X72643500Y-80112321D01*
X72643500Y-80158908D01*
X72428508Y-79943916D01*
X72240292Y-79986936D01*
X72134604Y-80393733D01*
X39064626Y-80393733D01*
X39059364Y-80355991D01*
X39011708Y-80240936D01*
X38823492Y-80197916D01*
X38608500Y-80412908D01*
X38608500Y-80366321D01*
X38521494Y-80156271D01*
X38423907Y-80058685D01*
X38554084Y-79928508D01*
X38511064Y-79740292D01*
X38104267Y-79634604D01*
X37713500Y-79689080D01*
X37713500Y-79386321D01*
X37626494Y-79176271D01*
X37465728Y-79015506D01*
X37255678Y-78928500D01*
X34935375Y-78928500D01*
X34792500Y-79071375D01*
X34411500Y-79071375D01*
X34268625Y-78928500D01*
X31948322Y-78928500D01*
X31738272Y-79015506D01*
X31577506Y-79176271D01*
X31490500Y-79386321D01*
X29526300Y-79386321D01*
X29526300Y-67798675D01*
X34110930Y-67798675D01*
X34110930Y-68853325D01*
X34182565Y-69213457D01*
X34386563Y-69518762D01*
X34691868Y-69722760D01*
X35052000Y-69794395D01*
X35412132Y-69722760D01*
X35717437Y-69518762D01*
X35921435Y-69213457D01*
X35993070Y-68853325D01*
X35993070Y-68516500D01*
X36269930Y-68516500D01*
X36269930Y-69015610D01*
X36443468Y-69507043D01*
X36791859Y-69894658D01*
X37199186Y-70087475D01*
X37401500Y-69988816D01*
X37401500Y-68516500D01*
X37782500Y-68516500D01*
X37782500Y-69988816D01*
X37984814Y-70087475D01*
X38392141Y-69894658D01*
X38740532Y-69507043D01*
X38914070Y-69015610D01*
X38914070Y-68516500D01*
X37782500Y-68516500D01*
X37401500Y-68516500D01*
X36269930Y-68516500D01*
X35993070Y-68516500D01*
X35993070Y-67798675D01*
X35960790Y-67636390D01*
X36269930Y-67636390D01*
X36269930Y-68135500D01*
X37401500Y-68135500D01*
X37401500Y-66663184D01*
X37782500Y-66663184D01*
X37782500Y-68135500D01*
X38914070Y-68135500D01*
X38914070Y-67798675D01*
X39190930Y-67798675D01*
X39190930Y-68853325D01*
X39262565Y-69213457D01*
X39466563Y-69518762D01*
X39771868Y-69722760D01*
X40132000Y-69794395D01*
X40492132Y-69722760D01*
X40797437Y-69518762D01*
X41001435Y-69213457D01*
X41073070Y-68853325D01*
X41073070Y-67798675D01*
X41001435Y-67438543D01*
X40797437Y-67133238D01*
X40492132Y-66929240D01*
X40132000Y-66857605D01*
X39771868Y-66929240D01*
X39466563Y-67133238D01*
X39262565Y-67438543D01*
X39190930Y-67798675D01*
X38914070Y-67798675D01*
X38914070Y-67636390D01*
X38740532Y-67144957D01*
X38392141Y-66757342D01*
X37984814Y-66564525D01*
X37782500Y-66663184D01*
X37401500Y-66663184D01*
X37199186Y-66564525D01*
X36791859Y-66757342D01*
X36443468Y-67144957D01*
X36269930Y-67636390D01*
X35960790Y-67636390D01*
X35921435Y-67438543D01*
X35717437Y-67133238D01*
X35412132Y-66929240D01*
X35052000Y-66857605D01*
X34691868Y-66929240D01*
X34386563Y-67133238D01*
X34182565Y-67438543D01*
X34110930Y-67798675D01*
X29526300Y-67798675D01*
X29526300Y-65669375D01*
X58862500Y-65669375D01*
X58862500Y-67989678D01*
X58949506Y-68199728D01*
X59110271Y-68360494D01*
X59320321Y-68447500D01*
X59637773Y-68447500D01*
X59568604Y-68713733D01*
X59626636Y-69130009D01*
X59674292Y-69245064D01*
X59862508Y-69288084D01*
X59992685Y-69157907D01*
X60090271Y-69255494D01*
X60300321Y-69342500D01*
X60346908Y-69342500D01*
X60131916Y-69557492D01*
X60174936Y-69745708D01*
X60581733Y-69851396D01*
X60998009Y-69793364D01*
X61113064Y-69745708D01*
X61156084Y-69557492D01*
X60941092Y-69342500D01*
X60987679Y-69342500D01*
X61197729Y-69255494D01*
X61295315Y-69157907D01*
X61425492Y-69288084D01*
X61613708Y-69245064D01*
X61719396Y-68838267D01*
X61664920Y-68447500D01*
X61967679Y-68447500D01*
X62177729Y-68360494D01*
X62338494Y-68199728D01*
X62425500Y-67989678D01*
X62425500Y-65669375D01*
X67622500Y-65669375D01*
X67622500Y-67989678D01*
X67709506Y-68199728D01*
X67870271Y-68360494D01*
X68080321Y-68447500D01*
X68397773Y-68447500D01*
X68328604Y-68713733D01*
X68386636Y-69130009D01*
X68434292Y-69245064D01*
X68622508Y-69288084D01*
X68752685Y-69157907D01*
X68850271Y-69255494D01*
X69060321Y-69342500D01*
X69106908Y-69342500D01*
X68891916Y-69557492D01*
X68934936Y-69745708D01*
X69341733Y-69851396D01*
X69758009Y-69793364D01*
X69873064Y-69745708D01*
X69916084Y-69557492D01*
X69701092Y-69342500D01*
X69747679Y-69342500D01*
X69957729Y-69255494D01*
X70055315Y-69157907D01*
X70185492Y-69288084D01*
X70373708Y-69245064D01*
X70479396Y-68838267D01*
X70424920Y-68447500D01*
X70727679Y-68447500D01*
X70937729Y-68360494D01*
X71098494Y-68199728D01*
X71185500Y-67989678D01*
X71185500Y-65669375D01*
X71042625Y-65526500D01*
X69594500Y-65526500D01*
X69594500Y-65546500D01*
X69213500Y-65546500D01*
X69213500Y-65526500D01*
X67765375Y-65526500D01*
X67622500Y-65669375D01*
X62425500Y-65669375D01*
X62282625Y-65526500D01*
X60834500Y-65526500D01*
X60834500Y-65546500D01*
X60453500Y-65546500D01*
X60453500Y-65526500D01*
X59005375Y-65526500D01*
X58862500Y-65669375D01*
X29526300Y-65669375D01*
X29526300Y-62682322D01*
X58862500Y-62682322D01*
X58862500Y-65002625D01*
X59005375Y-65145500D01*
X60453500Y-65145500D01*
X60453500Y-62367375D01*
X60834500Y-62367375D01*
X60834500Y-65145500D01*
X62282625Y-65145500D01*
X62425500Y-65002625D01*
X62425500Y-62682322D01*
X67622500Y-62682322D01*
X67622500Y-65002625D01*
X67765375Y-65145500D01*
X69213500Y-65145500D01*
X69213500Y-62367375D01*
X69594500Y-62367375D01*
X69594500Y-65145500D01*
X71042625Y-65145500D01*
X71185500Y-65002625D01*
X71185500Y-62682322D01*
X71098494Y-62472272D01*
X70937729Y-62311506D01*
X70727679Y-62224500D01*
X69737375Y-62224500D01*
X69594500Y-62367375D01*
X69213500Y-62367375D01*
X69070625Y-62224500D01*
X68080321Y-62224500D01*
X67870271Y-62311506D01*
X67709506Y-62472272D01*
X67622500Y-62682322D01*
X62425500Y-62682322D01*
X62338494Y-62472272D01*
X62177729Y-62311506D01*
X61967679Y-62224500D01*
X60977375Y-62224500D01*
X60834500Y-62367375D01*
X60453500Y-62367375D01*
X60310625Y-62224500D01*
X59320321Y-62224500D01*
X59110271Y-62311506D01*
X58949506Y-62472272D01*
X58862500Y-62682322D01*
X29526300Y-62682322D01*
X29526300Y-61631900D01*
X81420900Y-61631900D01*
X81420900Y-107074900D01*
X81420900Y-107074900D01*
G37*
X81420900Y-107074900D02*
X29526300Y-107074900D01*
X29526300Y-102129375D01*
X57084500Y-102129375D01*
X57084500Y-104449678D01*
X57171506Y-104659728D01*
X57332271Y-104820494D01*
X57542321Y-104907500D01*
X58532625Y-104907500D01*
X58675500Y-104764625D01*
X58675500Y-101986500D01*
X59056500Y-101986500D01*
X59056500Y-104764625D01*
X59199375Y-104907500D01*
X60189679Y-104907500D01*
X60399729Y-104820494D01*
X60560494Y-104659728D01*
X60647500Y-104449678D01*
X60647500Y-102129375D01*
X65844500Y-102129375D01*
X65844500Y-104449678D01*
X65931506Y-104659728D01*
X66092271Y-104820494D01*
X66302321Y-104907500D01*
X67292625Y-104907500D01*
X67435500Y-104764625D01*
X67435500Y-101986500D01*
X67816500Y-101986500D01*
X67816500Y-104764625D01*
X67959375Y-104907500D01*
X68949679Y-104907500D01*
X69159729Y-104820494D01*
X69320494Y-104659728D01*
X69407500Y-104449678D01*
X69407500Y-102129375D01*
X69264625Y-101986500D01*
X67816500Y-101986500D01*
X67435500Y-101986500D01*
X65987375Y-101986500D01*
X65844500Y-102129375D01*
X60647500Y-102129375D01*
X60504625Y-101986500D01*
X59056500Y-101986500D01*
X58675500Y-101986500D01*
X57227375Y-101986500D01*
X57084500Y-102129375D01*
X29526300Y-102129375D01*
X29526300Y-98356000D01*
X56010500Y-98356000D01*
X56010500Y-101796000D01*
X56034516Y-101916737D01*
X56102908Y-102019092D01*
X56205263Y-102087484D01*
X56326000Y-102111500D01*
X56446737Y-102087484D01*
X56549092Y-102019092D01*
X56617484Y-101916737D01*
X56641500Y-101796000D01*
X56641500Y-99142322D01*
X57084500Y-99142322D01*
X57084500Y-101462625D01*
X57227375Y-101605500D01*
X58675500Y-101605500D01*
X58675500Y-101585500D01*
X59056500Y-101585500D01*
X59056500Y-101605500D01*
X60504625Y-101605500D01*
X60647500Y-101462625D01*
X60647500Y-99142322D01*
X60560494Y-98932272D01*
X60399729Y-98771506D01*
X60189679Y-98684500D01*
X59872227Y-98684500D01*
X59941396Y-98418267D01*
X59932716Y-98356000D01*
X64770500Y-98356000D01*
X64770500Y-101796000D01*
X64794516Y-101916737D01*
X64862908Y-102019092D01*
X64965263Y-102087484D01*
X65086000Y-102111500D01*
X65206737Y-102087484D01*
X65309092Y-102019092D01*
X65377484Y-101916737D01*
X65401500Y-101796000D01*
X65401500Y-99142322D01*
X65844500Y-99142322D01*
X65844500Y-101462625D01*
X65987375Y-101605500D01*
X67435500Y-101605500D01*
X67435500Y-101585500D01*
X67816500Y-101585500D01*
X67816500Y-101605500D01*
X69264625Y-101605500D01*
X69407500Y-101462625D01*
X69407500Y-99142322D01*
X69320494Y-98932272D01*
X69159729Y-98771506D01*
X68949679Y-98684500D01*
X68632227Y-98684500D01*
X68701396Y-98418267D01*
X68643364Y-98001991D01*
X68595708Y-97886936D01*
X68407492Y-97843916D01*
X68277315Y-97974093D01*
X68179729Y-97876506D01*
X67969679Y-97789500D01*
X67923092Y-97789500D01*
X68138084Y-97574508D01*
X68095064Y-97386292D01*
X67688267Y-97280604D01*
X67271991Y-97338636D01*
X67156936Y-97386292D01*
X67113916Y-97574508D01*
X67328908Y-97789500D01*
X67282321Y-97789500D01*
X67072271Y-97876506D01*
X66974685Y-97974093D01*
X66844508Y-97843916D01*
X66656292Y-97886936D01*
X66550604Y-98293733D01*
X66605080Y-98684500D01*
X66302321Y-98684500D01*
X66092271Y-98771506D01*
X65931506Y-98932272D01*
X65844500Y-99142322D01*
X65401500Y-99142322D01*
X65401500Y-98356000D01*
X65377484Y-98235263D01*
X65309092Y-98132908D01*
X65206737Y-98064516D01*
X65086000Y-98040500D01*
X64965263Y-98064516D01*
X64862908Y-98132908D01*
X64794516Y-98235263D01*
X64770500Y-98356000D01*
X59932716Y-98356000D01*
X59883364Y-98001991D01*
X59835708Y-97886936D01*
X59647492Y-97843916D01*
X59517315Y-97974093D01*
X59419729Y-97876506D01*
X59209679Y-97789500D01*
X59163092Y-97789500D01*
X59378084Y-97574508D01*
X59335064Y-97386292D01*
X58928267Y-97280604D01*
X58511991Y-97338636D01*
X58396936Y-97386292D01*
X58353916Y-97574508D01*
X58568908Y-97789500D01*
X58522321Y-97789500D01*
X58312271Y-97876506D01*
X58214685Y-97974093D01*
X58084508Y-97843916D01*
X57896292Y-97886936D01*
X57790604Y-98293733D01*
X57845080Y-98684500D01*
X57542321Y-98684500D01*
X57332271Y-98771506D01*
X57171506Y-98932272D01*
X57084500Y-99142322D01*
X56641500Y-99142322D01*
X56641500Y-98356000D01*
X56617484Y-98235263D01*
X56549092Y-98132908D01*
X56446737Y-98064516D01*
X56326000Y-98040500D01*
X56205263Y-98064516D01*
X56102908Y-98132908D01*
X56034516Y-98235263D01*
X56010500Y-98356000D01*
X29526300Y-98356000D01*
X29526300Y-89803375D01*
X31490500Y-89803375D01*
X31490500Y-90793679D01*
X31577506Y-91003729D01*
X31738272Y-91164494D01*
X31948322Y-91251500D01*
X34268625Y-91251500D01*
X34411500Y-91108625D01*
X34411500Y-89660500D01*
X31633375Y-89660500D01*
X31490500Y-89803375D01*
X29526300Y-89803375D01*
X29526300Y-88146321D01*
X31490500Y-88146321D01*
X31490500Y-89136625D01*
X31633375Y-89279500D01*
X34411500Y-89279500D01*
X34411500Y-87831375D01*
X34792500Y-87831375D01*
X34792500Y-89279500D01*
X34812500Y-89279500D01*
X34812500Y-89660500D01*
X34792500Y-89660500D01*
X34792500Y-91108625D01*
X34935375Y-91251500D01*
X37255678Y-91251500D01*
X37465728Y-91164494D01*
X37626494Y-91003729D01*
X37713500Y-90793679D01*
X37713500Y-90476227D01*
X37979733Y-90545396D01*
X38396009Y-90487364D01*
X38511064Y-90439708D01*
X38554084Y-90251492D01*
X38423907Y-90121315D01*
X38521494Y-90023729D01*
X38608500Y-89813679D01*
X38608500Y-89767092D01*
X38823492Y-89982084D01*
X39011708Y-89939064D01*
X39117396Y-89532267D01*
X39064626Y-89153733D01*
X72134604Y-89153733D01*
X72192636Y-89570009D01*
X72240292Y-89685064D01*
X72428508Y-89728084D01*
X72643500Y-89513092D01*
X72643500Y-89559679D01*
X72730506Y-89769729D01*
X72828093Y-89867315D01*
X72697916Y-89997492D01*
X72740936Y-90185708D01*
X73147733Y-90291396D01*
X73538500Y-90236920D01*
X73538500Y-90539679D01*
X73625506Y-90749729D01*
X73786272Y-90910494D01*
X73996322Y-90997500D01*
X76316625Y-90997500D01*
X76459500Y-90854625D01*
X76459500Y-89406500D01*
X76840500Y-89406500D01*
X76840500Y-90854625D01*
X76983375Y-90997500D01*
X79303678Y-90997500D01*
X79513728Y-90910494D01*
X79674494Y-90749729D01*
X79761500Y-90539679D01*
X79761500Y-89549375D01*
X79618625Y-89406500D01*
X76840500Y-89406500D01*
X76459500Y-89406500D01*
X76439500Y-89406500D01*
X76439500Y-89025500D01*
X76459500Y-89025500D01*
X76459500Y-87577375D01*
X76840500Y-87577375D01*
X76840500Y-89025500D01*
X79618625Y-89025500D01*
X79761500Y-88882625D01*
X79761500Y-87892321D01*
X79674494Y-87682271D01*
X79513728Y-87521506D01*
X79303678Y-87434500D01*
X76983375Y-87434500D01*
X76840500Y-87577375D01*
X76459500Y-87577375D01*
X76316625Y-87434500D01*
X73996322Y-87434500D01*
X73786272Y-87521506D01*
X73625506Y-87682271D01*
X73538500Y-87892321D01*
X73538500Y-88209773D01*
X73272267Y-88140604D01*
X72855991Y-88198636D01*
X72740936Y-88246292D01*
X72697916Y-88434508D01*
X72828093Y-88564685D01*
X72730506Y-88662271D01*
X72643500Y-88872321D01*
X72643500Y-88918908D01*
X72428508Y-88703916D01*
X72240292Y-88746936D01*
X72134604Y-89153733D01*
X39064626Y-89153733D01*
X39059364Y-89115991D01*
X39011708Y-89000936D01*
X38823492Y-88957916D01*
X38608500Y-89172908D01*
X38608500Y-89126321D01*
X38521494Y-88916271D01*
X38423907Y-88818685D01*
X38554084Y-88688508D01*
X38511064Y-88500292D01*
X38104267Y-88394604D01*
X37713500Y-88449080D01*
X37713500Y-88146321D01*
X37626494Y-87936271D01*
X37465728Y-87775506D01*
X37255678Y-87688500D01*
X34935375Y-87688500D01*
X34792500Y-87831375D01*
X34411500Y-87831375D01*
X34268625Y-87688500D01*
X31948322Y-87688500D01*
X31738272Y-87775506D01*
X31577506Y-87936271D01*
X31490500Y-88146321D01*
X29526300Y-88146321D01*
X29526300Y-81043375D01*
X31490500Y-81043375D01*
X31490500Y-82033679D01*
X31577506Y-82243729D01*
X31738272Y-82404494D01*
X31948322Y-82491500D01*
X34268625Y-82491500D01*
X34411500Y-82348625D01*
X34411500Y-80900500D01*
X31633375Y-80900500D01*
X31490500Y-81043375D01*
X29526300Y-81043375D01*
X29526300Y-79386321D01*
X31490500Y-79386321D01*
X31490500Y-80376625D01*
X31633375Y-80519500D01*
X34411500Y-80519500D01*
X34411500Y-79071375D01*
X34792500Y-79071375D01*
X34792500Y-80519500D01*
X34812500Y-80519500D01*
X34812500Y-80900500D01*
X34792500Y-80900500D01*
X34792500Y-82348625D01*
X34935375Y-82491500D01*
X37255678Y-82491500D01*
X37465728Y-82404494D01*
X37626494Y-82243729D01*
X37713500Y-82033679D01*
X37713500Y-81716227D01*
X37979733Y-81785396D01*
X38396009Y-81727364D01*
X38511064Y-81679708D01*
X38554084Y-81491492D01*
X38423907Y-81361315D01*
X38521494Y-81263729D01*
X38608500Y-81053679D01*
X38608500Y-81007092D01*
X38823492Y-81222084D01*
X39011708Y-81179064D01*
X39117396Y-80772267D01*
X39064626Y-80393733D01*
X72134604Y-80393733D01*
X72192636Y-80810009D01*
X72240292Y-80925064D01*
X72428508Y-80968084D01*
X72643500Y-80753092D01*
X72643500Y-80799679D01*
X72730506Y-81009729D01*
X72828093Y-81107315D01*
X72697916Y-81237492D01*
X72740936Y-81425708D01*
X73147733Y-81531396D01*
X73538500Y-81476920D01*
X73538500Y-81779679D01*
X73625506Y-81989729D01*
X73786272Y-82150494D01*
X73996322Y-82237500D01*
X76316625Y-82237500D01*
X76459500Y-82094625D01*
X76459500Y-80646500D01*
X76840500Y-80646500D01*
X76840500Y-82094625D01*
X76983375Y-82237500D01*
X79303678Y-82237500D01*
X79513728Y-82150494D01*
X79674494Y-81989729D01*
X79761500Y-81779679D01*
X79761500Y-80789375D01*
X79618625Y-80646500D01*
X76840500Y-80646500D01*
X76459500Y-80646500D01*
X76439500Y-80646500D01*
X76439500Y-80265500D01*
X76459500Y-80265500D01*
X76459500Y-78817375D01*
X76840500Y-78817375D01*
X76840500Y-80265500D01*
X79618625Y-80265500D01*
X79761500Y-80122625D01*
X79761500Y-79132321D01*
X79674494Y-78922271D01*
X79513728Y-78761506D01*
X79303678Y-78674500D01*
X76983375Y-78674500D01*
X76840500Y-78817375D01*
X76459500Y-78817375D01*
X76316625Y-78674500D01*
X73996322Y-78674500D01*
X73786272Y-78761506D01*
X73625506Y-78922271D01*
X73538500Y-79132321D01*
X73538500Y-79449773D01*
X73272267Y-79380604D01*
X72855991Y-79438636D01*
X72740936Y-79486292D01*
X72697916Y-79674508D01*
X72828093Y-79804685D01*
X72730506Y-79902271D01*
X72643500Y-80112321D01*
X72643500Y-80158908D01*
X72428508Y-79943916D01*
X72240292Y-79986936D01*
X72134604Y-80393733D01*
X39064626Y-80393733D01*
X39059364Y-80355991D01*
X39011708Y-80240936D01*
X38823492Y-80197916D01*
X38608500Y-80412908D01*
X38608500Y-80366321D01*
X38521494Y-80156271D01*
X38423907Y-80058685D01*
X38554084Y-79928508D01*
X38511064Y-79740292D01*
X38104267Y-79634604D01*
X37713500Y-79689080D01*
X37713500Y-79386321D01*
X37626494Y-79176271D01*
X37465728Y-79015506D01*
X37255678Y-78928500D01*
X34935375Y-78928500D01*
X34792500Y-79071375D01*
X34411500Y-79071375D01*
X34268625Y-78928500D01*
X31948322Y-78928500D01*
X31738272Y-79015506D01*
X31577506Y-79176271D01*
X31490500Y-79386321D01*
X29526300Y-79386321D01*
X29526300Y-67798675D01*
X34110930Y-67798675D01*
X34110930Y-68853325D01*
X34182565Y-69213457D01*
X34386563Y-69518762D01*
X34691868Y-69722760D01*
X35052000Y-69794395D01*
X35412132Y-69722760D01*
X35717437Y-69518762D01*
X35921435Y-69213457D01*
X35993070Y-68853325D01*
X35993070Y-68516500D01*
X36269930Y-68516500D01*
X36269930Y-69015610D01*
X36443468Y-69507043D01*
X36791859Y-69894658D01*
X37199186Y-70087475D01*
X37401500Y-69988816D01*
X37401500Y-68516500D01*
X37782500Y-68516500D01*
X37782500Y-69988816D01*
X37984814Y-70087475D01*
X38392141Y-69894658D01*
X38740532Y-69507043D01*
X38914070Y-69015610D01*
X38914070Y-68516500D01*
X37782500Y-68516500D01*
X37401500Y-68516500D01*
X36269930Y-68516500D01*
X35993070Y-68516500D01*
X35993070Y-67798675D01*
X35960790Y-67636390D01*
X36269930Y-67636390D01*
X36269930Y-68135500D01*
X37401500Y-68135500D01*
X37401500Y-66663184D01*
X37782500Y-66663184D01*
X37782500Y-68135500D01*
X38914070Y-68135500D01*
X38914070Y-67798675D01*
X39190930Y-67798675D01*
X39190930Y-68853325D01*
X39262565Y-69213457D01*
X39466563Y-69518762D01*
X39771868Y-69722760D01*
X40132000Y-69794395D01*
X40492132Y-69722760D01*
X40797437Y-69518762D01*
X41001435Y-69213457D01*
X41073070Y-68853325D01*
X41073070Y-67798675D01*
X41001435Y-67438543D01*
X40797437Y-67133238D01*
X40492132Y-66929240D01*
X40132000Y-66857605D01*
X39771868Y-66929240D01*
X39466563Y-67133238D01*
X39262565Y-67438543D01*
X39190930Y-67798675D01*
X38914070Y-67798675D01*
X38914070Y-67636390D01*
X38740532Y-67144957D01*
X38392141Y-66757342D01*
X37984814Y-66564525D01*
X37782500Y-66663184D01*
X37401500Y-66663184D01*
X37199186Y-66564525D01*
X36791859Y-66757342D01*
X36443468Y-67144957D01*
X36269930Y-67636390D01*
X35960790Y-67636390D01*
X35921435Y-67438543D01*
X35717437Y-67133238D01*
X35412132Y-66929240D01*
X35052000Y-66857605D01*
X34691868Y-66929240D01*
X34386563Y-67133238D01*
X34182565Y-67438543D01*
X34110930Y-67798675D01*
X29526300Y-67798675D01*
X29526300Y-65669375D01*
X58862500Y-65669375D01*
X58862500Y-67989678D01*
X58949506Y-68199728D01*
X59110271Y-68360494D01*
X59320321Y-68447500D01*
X59637773Y-68447500D01*
X59568604Y-68713733D01*
X59626636Y-69130009D01*
X59674292Y-69245064D01*
X59862508Y-69288084D01*
X59992685Y-69157907D01*
X60090271Y-69255494D01*
X60300321Y-69342500D01*
X60346908Y-69342500D01*
X60131916Y-69557492D01*
X60174936Y-69745708D01*
X60581733Y-69851396D01*
X60998009Y-69793364D01*
X61113064Y-69745708D01*
X61156084Y-69557492D01*
X60941092Y-69342500D01*
X60987679Y-69342500D01*
X61197729Y-69255494D01*
X61295315Y-69157907D01*
X61425492Y-69288084D01*
X61613708Y-69245064D01*
X61719396Y-68838267D01*
X61664920Y-68447500D01*
X61967679Y-68447500D01*
X62177729Y-68360494D01*
X62338494Y-68199728D01*
X62425500Y-67989678D01*
X62425500Y-65669375D01*
X67622500Y-65669375D01*
X67622500Y-67989678D01*
X67709506Y-68199728D01*
X67870271Y-68360494D01*
X68080321Y-68447500D01*
X68397773Y-68447500D01*
X68328604Y-68713733D01*
X68386636Y-69130009D01*
X68434292Y-69245064D01*
X68622508Y-69288084D01*
X68752685Y-69157907D01*
X68850271Y-69255494D01*
X69060321Y-69342500D01*
X69106908Y-69342500D01*
X68891916Y-69557492D01*
X68934936Y-69745708D01*
X69341733Y-69851396D01*
X69758009Y-69793364D01*
X69873064Y-69745708D01*
X69916084Y-69557492D01*
X69701092Y-69342500D01*
X69747679Y-69342500D01*
X69957729Y-69255494D01*
X70055315Y-69157907D01*
X70185492Y-69288084D01*
X70373708Y-69245064D01*
X70479396Y-68838267D01*
X70424920Y-68447500D01*
X70727679Y-68447500D01*
X70937729Y-68360494D01*
X71098494Y-68199728D01*
X71185500Y-67989678D01*
X71185500Y-65669375D01*
X71042625Y-65526500D01*
X69594500Y-65526500D01*
X69594500Y-65546500D01*
X69213500Y-65546500D01*
X69213500Y-65526500D01*
X67765375Y-65526500D01*
X67622500Y-65669375D01*
X62425500Y-65669375D01*
X62282625Y-65526500D01*
X60834500Y-65526500D01*
X60834500Y-65546500D01*
X60453500Y-65546500D01*
X60453500Y-65526500D01*
X59005375Y-65526500D01*
X58862500Y-65669375D01*
X29526300Y-65669375D01*
X29526300Y-62682322D01*
X58862500Y-62682322D01*
X58862500Y-65002625D01*
X59005375Y-65145500D01*
X60453500Y-65145500D01*
X60453500Y-62367375D01*
X60834500Y-62367375D01*
X60834500Y-65145500D01*
X62282625Y-65145500D01*
X62425500Y-65002625D01*
X62425500Y-62682322D01*
X67622500Y-62682322D01*
X67622500Y-65002625D01*
X67765375Y-65145500D01*
X69213500Y-65145500D01*
X69213500Y-62367375D01*
X69594500Y-62367375D01*
X69594500Y-65145500D01*
X71042625Y-65145500D01*
X71185500Y-65002625D01*
X71185500Y-62682322D01*
X71098494Y-62472272D01*
X70937729Y-62311506D01*
X70727679Y-62224500D01*
X69737375Y-62224500D01*
X69594500Y-62367375D01*
X69213500Y-62367375D01*
X69070625Y-62224500D01*
X68080321Y-62224500D01*
X67870271Y-62311506D01*
X67709506Y-62472272D01*
X67622500Y-62682322D01*
X62425500Y-62682322D01*
X62338494Y-62472272D01*
X62177729Y-62311506D01*
X61967679Y-62224500D01*
X60977375Y-62224500D01*
X60834500Y-62367375D01*
X60453500Y-62367375D01*
X60310625Y-62224500D01*
X59320321Y-62224500D01*
X59110271Y-62311506D01*
X58949506Y-62472272D01*
X58862500Y-62682322D01*
X29526300Y-62682322D01*
X29526300Y-61631900D01*
X81420900Y-61631900D01*
X81420900Y-107074900D01*
M02*
