G04 #@! TF.FileFunction,Copper,L1,Top,Signal*
%FSLAX46Y46*%
G04 Gerber Fmt 4.6, Leading zero omitted, Abs format (unit mm)*
G04 Created by KiCad (PCBNEW 4.0.4+dfsg1-stable) date Sat Nov 11 18:47:18 2017*
%MOMM*%
%LPD*%
G01*
G04 APERTURE LIST*
%ADD10C,0.100000*%
%ADD11R,0.760000X1.400000*%
%ADD12R,1.200000X0.750000*%
%ADD13R,2.999740X1.600200*%
%ADD14R,0.750000X1.200000*%
%ADD15R,1.600200X2.999740*%
%ADD16R,0.850000X0.300000*%
%ADD17R,0.300000X0.850000*%
%ADD18R,1.300000X1.300000*%
%ADD19R,1.500000X1.300000*%
%ADD20R,5.080000X2.290000*%
%ADD21R,5.080000X2.420000*%
%ADD22C,0.970000*%
%ADD23R,0.890000X0.460000*%
%ADD24R,2.290000X5.080000*%
%ADD25R,2.420000X5.080000*%
%ADD26R,0.460000X0.890000*%
%ADD27R,1.200000X0.900000*%
%ADD28R,10.000000X5.000000*%
%ADD29O,1.501140X2.499360*%
%ADD30C,0.250000*%
%ADD31C,0.127000*%
G04 APERTURE END LIST*
D10*
D11*
X64808100Y-78676500D03*
X63538100Y-78676500D03*
X62268100Y-78676500D03*
X64808100Y-75336400D03*
X62293500Y-75336400D03*
D12*
X53020000Y-85090000D03*
X51120000Y-85090000D03*
X53020000Y-87122000D03*
X51120000Y-87122000D03*
X58354000Y-81788000D03*
X56454000Y-81788000D03*
D13*
X48854360Y-93980000D03*
X53253640Y-93980000D03*
D12*
X70546000Y-84836000D03*
X68646000Y-84836000D03*
D14*
X68072000Y-82230000D03*
X68072000Y-80330000D03*
D13*
X49697640Y-75692000D03*
X45298360Y-75692000D03*
D15*
X48006000Y-65618360D03*
X48006000Y-70017640D03*
D12*
X53406000Y-68834000D03*
X55306000Y-68834000D03*
D16*
X60280000Y-83840000D03*
X60280000Y-84340000D03*
X60280000Y-84840000D03*
X60280000Y-85340000D03*
X60280000Y-85840000D03*
X60280000Y-86340000D03*
D17*
X60980000Y-87040000D03*
X61480000Y-87040000D03*
X61980000Y-87040000D03*
X62480000Y-87040000D03*
X62980000Y-87040000D03*
X63480000Y-87040000D03*
D16*
X64180000Y-86340000D03*
X64180000Y-85840000D03*
X64180000Y-85340000D03*
X64180000Y-84840000D03*
X64180000Y-84340000D03*
X64180000Y-83840000D03*
D17*
X63480000Y-83140000D03*
X62980000Y-83140000D03*
X62480000Y-83140000D03*
X61980000Y-83140000D03*
X61480000Y-83140000D03*
X60980000Y-83140000D03*
D18*
X62880000Y-85740000D03*
X62880000Y-84440000D03*
X61580000Y-85740000D03*
X61580000Y-84440000D03*
D19*
X53260000Y-65786000D03*
X55960000Y-65786000D03*
D20*
X34602000Y-85090000D03*
D21*
X34602000Y-80710000D03*
X34602000Y-89470000D03*
D22*
X38042000Y-80710000D03*
X38042000Y-89470000D03*
D23*
X37592000Y-80710000D03*
X37592000Y-89470000D03*
D24*
X65024000Y-65336000D03*
D25*
X69404000Y-65336000D03*
X60644000Y-65336000D03*
D22*
X69404000Y-68776000D03*
X60644000Y-68776000D03*
D26*
X69404000Y-68326000D03*
X60644000Y-68326000D03*
D24*
X60706000Y-101796000D03*
D25*
X56326000Y-101796000D03*
X65086000Y-101796000D03*
D22*
X56326000Y-98356000D03*
X65086000Y-98356000D03*
D26*
X56326000Y-98806000D03*
X65086000Y-98806000D03*
D20*
X76650000Y-84836000D03*
D21*
X76650000Y-89216000D03*
X76650000Y-80456000D03*
D22*
X73210000Y-89216000D03*
X73210000Y-80456000D03*
D23*
X73660000Y-89216000D03*
X73660000Y-80456000D03*
D27*
X53424000Y-89408000D03*
X51224000Y-89408000D03*
D28*
X36830000Y-74676000D03*
X36576000Y-97790000D03*
D14*
X71120000Y-82230000D03*
X71120000Y-80330000D03*
D12*
X58862000Y-78994000D03*
X56962000Y-78994000D03*
D29*
X37592000Y-68326000D03*
X35052000Y-68326000D03*
X40132000Y-68326000D03*
D11*
X60667900Y-91757500D03*
X61937900Y-91757500D03*
X63207900Y-91757500D03*
X60667900Y-95097600D03*
X63182500Y-95097600D03*
D30*
X60280000Y-84840000D02*
X53270000Y-84840000D01*
X53270000Y-84840000D02*
X53020000Y-85090000D01*
X51120000Y-85090000D02*
X34602000Y-85090000D01*
X60280000Y-85340000D02*
X57916000Y-85340000D01*
X56134000Y-87122000D02*
X53020000Y-87122000D01*
X57916000Y-85340000D02*
X56134000Y-87122000D01*
X51120000Y-87122000D02*
X51120000Y-89304000D01*
X51120000Y-89304000D02*
X51224000Y-89408000D01*
X58862000Y-76708000D02*
X66294000Y-76708000D01*
X66360000Y-76774000D02*
X66360000Y-82230000D01*
X66294000Y-76708000D02*
X66360000Y-76774000D01*
X58354000Y-81788000D02*
X60960000Y-81788000D01*
X60980000Y-81808000D02*
X60980000Y-83140000D01*
X60960000Y-81788000D02*
X60980000Y-81808000D01*
X58862000Y-78994000D02*
X58862000Y-81280000D01*
X58862000Y-81280000D02*
X58354000Y-81788000D01*
X55306000Y-68834000D02*
X55306000Y-74610000D01*
X58862000Y-74864000D02*
X58862000Y-76708000D01*
X58862000Y-76708000D02*
X58862000Y-78994000D01*
X58674000Y-74676000D02*
X58862000Y-74864000D01*
X55372000Y-74676000D02*
X58674000Y-74676000D01*
X55306000Y-74610000D02*
X55372000Y-74676000D01*
X55960000Y-65786000D02*
X55960000Y-66976000D01*
X55306000Y-67630000D02*
X55306000Y-68834000D01*
X55960000Y-66976000D02*
X55306000Y-67630000D01*
X71120000Y-82230000D02*
X68072000Y-82230000D01*
X64180000Y-83840000D02*
X64750000Y-83840000D01*
X64750000Y-83840000D02*
X66360000Y-82230000D01*
X66360000Y-82230000D02*
X68072000Y-82230000D01*
X61480000Y-87040000D02*
X61480000Y-85840000D01*
X61480000Y-85840000D02*
X61580000Y-85740000D01*
X60280000Y-84340000D02*
X61480000Y-84340000D01*
X61480000Y-84340000D02*
X61580000Y-84440000D01*
X64180000Y-85840000D02*
X62980000Y-85840000D01*
X62980000Y-85840000D02*
X62880000Y-85740000D01*
X64180000Y-84340000D02*
X62980000Y-84340000D01*
X62980000Y-84340000D02*
X62880000Y-84440000D01*
X61480000Y-83140000D02*
X61480000Y-84340000D01*
X61480000Y-84340000D02*
X61580000Y-84440000D01*
X62980000Y-83140000D02*
X62980000Y-84340000D01*
X62980000Y-84340000D02*
X62880000Y-84440000D01*
X62980000Y-87040000D02*
X62980000Y-85840000D01*
X62980000Y-85840000D02*
X62880000Y-85740000D01*
X60280000Y-85840000D02*
X61480000Y-85840000D01*
X61480000Y-85840000D02*
X61580000Y-85740000D01*
X61980000Y-91715400D02*
X61937900Y-91757500D01*
X60280000Y-86340000D02*
X59202000Y-86340000D01*
X51394360Y-91440000D02*
X48854360Y-93980000D01*
X54102000Y-91440000D02*
X51394360Y-91440000D01*
X59202000Y-86340000D02*
X54102000Y-91440000D01*
X60980000Y-87040000D02*
X60980000Y-89388000D01*
X57150000Y-93980000D02*
X53253640Y-93980000D01*
X57150000Y-89916000D02*
X57150000Y-93980000D01*
X60452000Y-89916000D02*
X57150000Y-89916000D01*
X60980000Y-89388000D02*
X60452000Y-89916000D01*
X70546000Y-84836000D02*
X76650000Y-84836000D01*
X64180000Y-84840000D02*
X68642000Y-84840000D01*
X68642000Y-84840000D02*
X68646000Y-84836000D01*
X35052000Y-68326000D02*
X35052000Y-72898000D01*
X35052000Y-72898000D02*
X36830000Y-74676000D01*
X45298360Y-75692000D02*
X37846000Y-75692000D01*
X37846000Y-75692000D02*
X36830000Y-74676000D01*
X53260000Y-65786000D02*
X48173640Y-65786000D01*
X48173640Y-65786000D02*
X48006000Y-65618360D01*
X47919640Y-65532000D02*
X46990000Y-65532000D01*
X44196000Y-68326000D02*
X46990000Y-65532000D01*
X44196000Y-68326000D02*
X40132000Y-68326000D01*
X47919640Y-65532000D02*
X48006000Y-65618360D01*
X61980000Y-87040000D02*
X61980000Y-89658000D01*
X60706000Y-90932000D02*
X60706000Y-91719400D01*
X61468000Y-90170000D02*
X60706000Y-90932000D01*
X61980000Y-89658000D02*
X61468000Y-90170000D01*
X60706000Y-91719400D02*
X60667900Y-91757500D01*
X62480000Y-87040000D02*
X62480000Y-89150000D01*
X63207900Y-89700100D02*
X63207900Y-91757500D01*
X63246000Y-89662000D02*
X63207900Y-89700100D01*
X62484000Y-89662000D02*
X63246000Y-89662000D01*
X62484000Y-89154000D02*
X62484000Y-89662000D01*
X62480000Y-89150000D02*
X62484000Y-89154000D01*
X62480000Y-83140000D02*
X62480000Y-81538000D01*
X64808100Y-81318100D02*
X64808100Y-78676500D01*
X65024000Y-81534000D02*
X64808100Y-81318100D01*
X62484000Y-81534000D02*
X65024000Y-81534000D01*
X62480000Y-81538000D02*
X62484000Y-81534000D01*
X61980000Y-83140000D02*
X61980000Y-81022000D01*
X62268100Y-80733900D02*
X62268100Y-78676500D01*
X61980000Y-81022000D02*
X62268100Y-80733900D01*
X64808100Y-75336400D02*
X64808100Y-65551900D01*
X64808100Y-65551900D02*
X65024000Y-65336000D01*
X63182500Y-95097600D02*
X63182500Y-97599500D01*
X60706000Y-97790000D02*
X60706000Y-101796000D01*
X62992000Y-97790000D02*
X60706000Y-97790000D01*
X63182500Y-97599500D02*
X62992000Y-97790000D01*
D31*
G36*
X81420900Y-107074900D02*
X29526300Y-107074900D01*
X29526300Y-102063875D01*
X54798500Y-102063875D01*
X54798500Y-104399155D01*
X54846837Y-104515850D01*
X54936151Y-104605164D01*
X55052846Y-104653500D01*
X56058125Y-104653500D01*
X56137500Y-104574125D01*
X56137500Y-101984500D01*
X56514500Y-101984500D01*
X56514500Y-104574125D01*
X56593875Y-104653500D01*
X57599154Y-104653500D01*
X57715849Y-104605164D01*
X57805163Y-104515850D01*
X57853500Y-104399155D01*
X57853500Y-102063875D01*
X57774125Y-101984500D01*
X56514500Y-101984500D01*
X56137500Y-101984500D01*
X54877875Y-101984500D01*
X54798500Y-102063875D01*
X29526300Y-102063875D01*
X29526300Y-98057875D01*
X31258500Y-98057875D01*
X31258500Y-100353155D01*
X31306837Y-100469850D01*
X31396151Y-100559164D01*
X31512846Y-100607500D01*
X36308125Y-100607500D01*
X36387500Y-100528125D01*
X36387500Y-97978500D01*
X36764500Y-97978500D01*
X36764500Y-100528125D01*
X36843875Y-100607500D01*
X41639154Y-100607500D01*
X41755849Y-100559164D01*
X41845163Y-100469850D01*
X41893500Y-100353155D01*
X41893500Y-99192845D01*
X54798500Y-99192845D01*
X54798500Y-101528125D01*
X54877875Y-101607500D01*
X56137500Y-101607500D01*
X56137500Y-101587500D01*
X56514500Y-101587500D01*
X56514500Y-101607500D01*
X57774125Y-101607500D01*
X57853500Y-101528125D01*
X57853500Y-99256000D01*
X59292338Y-99256000D01*
X59292338Y-104336000D01*
X59310712Y-104433647D01*
X59368421Y-104523330D01*
X59456475Y-104583495D01*
X59561000Y-104604662D01*
X61851000Y-104604662D01*
X61948647Y-104586288D01*
X62038330Y-104528579D01*
X62098495Y-104440525D01*
X62119662Y-104336000D01*
X62119662Y-102063875D01*
X63558500Y-102063875D01*
X63558500Y-104399155D01*
X63606837Y-104515850D01*
X63696151Y-104605164D01*
X63812846Y-104653500D01*
X64818125Y-104653500D01*
X64897500Y-104574125D01*
X64897500Y-101984500D01*
X65274500Y-101984500D01*
X65274500Y-104574125D01*
X65353875Y-104653500D01*
X66359154Y-104653500D01*
X66475849Y-104605164D01*
X66565163Y-104515850D01*
X66613500Y-104399155D01*
X66613500Y-102063875D01*
X66534125Y-101984500D01*
X65274500Y-101984500D01*
X64897500Y-101984500D01*
X63637875Y-101984500D01*
X63558500Y-102063875D01*
X62119662Y-102063875D01*
X62119662Y-99256000D01*
X62107779Y-99192845D01*
X63558500Y-99192845D01*
X63558500Y-101528125D01*
X63637875Y-101607500D01*
X64897500Y-101607500D01*
X64897500Y-101587500D01*
X65274500Y-101587500D01*
X65274500Y-101607500D01*
X66534125Y-101607500D01*
X66613500Y-101528125D01*
X66613500Y-99192845D01*
X66565163Y-99076150D01*
X66475849Y-98986836D01*
X66359154Y-98938500D01*
X65401920Y-98938500D01*
X65086000Y-98622579D01*
X64770080Y-98938500D01*
X63812846Y-98938500D01*
X63696151Y-98986836D01*
X63606837Y-99076150D01*
X63558500Y-99192845D01*
X62107779Y-99192845D01*
X62101288Y-99158353D01*
X62043579Y-99068670D01*
X61955525Y-99008505D01*
X61851000Y-98987338D01*
X61094500Y-98987338D01*
X61094500Y-98353419D01*
X64267783Y-98353419D01*
X64329078Y-98666734D01*
X64331053Y-98671503D01*
X64447555Y-98727865D01*
X64587898Y-98587523D01*
X64617875Y-98617500D01*
X64971000Y-98617500D01*
X64971000Y-98597500D01*
X65201000Y-98597500D01*
X65201000Y-98617500D01*
X65554125Y-98617500D01*
X65584102Y-98587523D01*
X65724445Y-98727865D01*
X65840947Y-98671503D01*
X65904217Y-98358581D01*
X65842922Y-98045266D01*
X65840947Y-98040497D01*
X65724445Y-97984135D01*
X65556296Y-98152283D01*
X65495849Y-98091836D01*
X65379154Y-98043500D01*
X65280375Y-98043500D01*
X65274502Y-98049373D01*
X65274502Y-98043500D01*
X65131921Y-98043500D01*
X65457865Y-97717555D01*
X65401503Y-97601053D01*
X65088581Y-97537783D01*
X64775266Y-97599078D01*
X64770497Y-97601053D01*
X64714135Y-97717555D01*
X65040079Y-98043500D01*
X64897498Y-98043500D01*
X64897498Y-98049373D01*
X64891625Y-98043500D01*
X64792846Y-98043500D01*
X64676151Y-98091836D01*
X64615704Y-98152283D01*
X64447555Y-97984135D01*
X64331053Y-98040497D01*
X64267783Y-98353419D01*
X61094500Y-98353419D01*
X61094500Y-98178500D01*
X62992000Y-98178500D01*
X63140673Y-98148927D01*
X63266711Y-98064711D01*
X63457211Y-97874211D01*
X63541428Y-97748172D01*
X63571000Y-97599500D01*
X63571000Y-96064663D01*
X63660147Y-96047888D01*
X63749830Y-95990179D01*
X63809995Y-95902125D01*
X63831162Y-95797600D01*
X63831162Y-94397600D01*
X63812788Y-94299953D01*
X63755079Y-94210270D01*
X63667025Y-94150105D01*
X63562500Y-94128938D01*
X62802500Y-94128938D01*
X62704853Y-94147312D01*
X62615170Y-94205021D01*
X62555005Y-94293075D01*
X62533838Y-94397600D01*
X62533838Y-95797600D01*
X62552212Y-95895247D01*
X62609921Y-95984930D01*
X62697975Y-96045095D01*
X62794000Y-96064541D01*
X62794000Y-97401500D01*
X60706000Y-97401500D01*
X60557327Y-97431073D01*
X60431289Y-97515289D01*
X60347073Y-97641327D01*
X60317500Y-97790000D01*
X60317500Y-98987338D01*
X59561000Y-98987338D01*
X59463353Y-99005712D01*
X59373670Y-99063421D01*
X59313505Y-99151475D01*
X59292338Y-99256000D01*
X57853500Y-99256000D01*
X57853500Y-99192845D01*
X57805163Y-99076150D01*
X57715849Y-98986836D01*
X57599154Y-98938500D01*
X56641920Y-98938500D01*
X56326000Y-98622579D01*
X56010080Y-98938500D01*
X55052846Y-98938500D01*
X54936151Y-98986836D01*
X54846837Y-99076150D01*
X54798500Y-99192845D01*
X41893500Y-99192845D01*
X41893500Y-98353419D01*
X55507783Y-98353419D01*
X55569078Y-98666734D01*
X55571053Y-98671503D01*
X55687555Y-98727865D01*
X55827898Y-98587523D01*
X55857875Y-98617500D01*
X56211000Y-98617500D01*
X56211000Y-98597500D01*
X56441000Y-98597500D01*
X56441000Y-98617500D01*
X56794125Y-98617500D01*
X56824102Y-98587523D01*
X56964445Y-98727865D01*
X57080947Y-98671503D01*
X57144217Y-98358581D01*
X57082922Y-98045266D01*
X57080947Y-98040497D01*
X56964445Y-97984135D01*
X56796296Y-98152283D01*
X56735849Y-98091836D01*
X56619154Y-98043500D01*
X56520375Y-98043500D01*
X56514502Y-98049373D01*
X56514502Y-98043500D01*
X56371921Y-98043500D01*
X56697865Y-97717555D01*
X56641503Y-97601053D01*
X56328581Y-97537783D01*
X56015266Y-97599078D01*
X56010497Y-97601053D01*
X55954135Y-97717555D01*
X56280079Y-98043500D01*
X56137498Y-98043500D01*
X56137498Y-98049373D01*
X56131625Y-98043500D01*
X56032846Y-98043500D01*
X55916151Y-98091836D01*
X55855704Y-98152283D01*
X55687555Y-97984135D01*
X55571053Y-98040497D01*
X55507783Y-98353419D01*
X41893500Y-98353419D01*
X41893500Y-98057875D01*
X41814125Y-97978500D01*
X36764500Y-97978500D01*
X36387500Y-97978500D01*
X31337875Y-97978500D01*
X31258500Y-98057875D01*
X29526300Y-98057875D01*
X29526300Y-95226845D01*
X31258500Y-95226845D01*
X31258500Y-97522125D01*
X31337875Y-97601500D01*
X36387500Y-97601500D01*
X36387500Y-95051875D01*
X36764500Y-95051875D01*
X36764500Y-97601500D01*
X41814125Y-97601500D01*
X41893500Y-97522125D01*
X41893500Y-95365475D01*
X59970400Y-95365475D01*
X59970400Y-95860754D01*
X60018736Y-95977449D01*
X60108050Y-96066763D01*
X60224745Y-96115100D01*
X60400025Y-96115100D01*
X60479400Y-96035725D01*
X60479400Y-95286100D01*
X60856400Y-95286100D01*
X60856400Y-96035725D01*
X60935775Y-96115100D01*
X61111055Y-96115100D01*
X61227750Y-96066763D01*
X61317064Y-95977449D01*
X61365400Y-95860754D01*
X61365400Y-95365475D01*
X61286025Y-95286100D01*
X60856400Y-95286100D01*
X60479400Y-95286100D01*
X60049775Y-95286100D01*
X59970400Y-95365475D01*
X41893500Y-95365475D01*
X41893500Y-95226845D01*
X41845163Y-95110150D01*
X41755849Y-95020836D01*
X41639154Y-94972500D01*
X36843875Y-94972500D01*
X36764500Y-95051875D01*
X36387500Y-95051875D01*
X36308125Y-94972500D01*
X31512846Y-94972500D01*
X31396151Y-95020836D01*
X31306837Y-95110150D01*
X31258500Y-95226845D01*
X29526300Y-95226845D01*
X29526300Y-93179900D01*
X47085828Y-93179900D01*
X47085828Y-94780100D01*
X47104202Y-94877747D01*
X47161911Y-94967430D01*
X47249965Y-95027595D01*
X47354490Y-95048762D01*
X50354230Y-95048762D01*
X50451877Y-95030388D01*
X50541560Y-94972679D01*
X50601725Y-94884625D01*
X50622892Y-94780100D01*
X50622892Y-93179900D01*
X50604518Y-93082253D01*
X50546809Y-92992570D01*
X50458755Y-92932405D01*
X50452619Y-92931163D01*
X51555282Y-91828500D01*
X54102000Y-91828500D01*
X54250673Y-91798927D01*
X54376711Y-91714711D01*
X59362922Y-86728500D01*
X59737310Y-86728500D01*
X59750475Y-86737495D01*
X59855000Y-86758662D01*
X60561338Y-86758662D01*
X60561338Y-87465000D01*
X60579712Y-87562647D01*
X60591500Y-87580966D01*
X60591500Y-89227078D01*
X60291078Y-89527500D01*
X57150000Y-89527500D01*
X57001327Y-89557073D01*
X56875289Y-89641289D01*
X56791073Y-89767327D01*
X56761500Y-89916000D01*
X56761500Y-93591500D01*
X55022172Y-93591500D01*
X55022172Y-93179900D01*
X55003798Y-93082253D01*
X54946089Y-92992570D01*
X54858035Y-92932405D01*
X54753510Y-92911238D01*
X51753770Y-92911238D01*
X51656123Y-92929612D01*
X51566440Y-92987321D01*
X51506275Y-93075375D01*
X51485108Y-93179900D01*
X51485108Y-94780100D01*
X51503482Y-94877747D01*
X51561191Y-94967430D01*
X51649245Y-95027595D01*
X51753770Y-95048762D01*
X54753510Y-95048762D01*
X54851157Y-95030388D01*
X54940840Y-94972679D01*
X55001005Y-94884625D01*
X55022172Y-94780100D01*
X55022172Y-94368500D01*
X57150000Y-94368500D01*
X57298673Y-94338927D01*
X57305379Y-94334446D01*
X59970400Y-94334446D01*
X59970400Y-94829725D01*
X60049775Y-94909100D01*
X60479400Y-94909100D01*
X60479400Y-94159475D01*
X60856400Y-94159475D01*
X60856400Y-94909100D01*
X61286025Y-94909100D01*
X61365400Y-94829725D01*
X61365400Y-94334446D01*
X61317064Y-94217751D01*
X61227750Y-94128437D01*
X61111055Y-94080100D01*
X60935775Y-94080100D01*
X60856400Y-94159475D01*
X60479400Y-94159475D01*
X60400025Y-94080100D01*
X60224745Y-94080100D01*
X60108050Y-94128437D01*
X60018736Y-94217751D01*
X59970400Y-94334446D01*
X57305379Y-94334446D01*
X57424711Y-94254711D01*
X57508927Y-94128673D01*
X57538500Y-93980000D01*
X57538500Y-90304500D01*
X60452000Y-90304500D01*
X60600673Y-90274927D01*
X60726711Y-90190711D01*
X61254711Y-89662711D01*
X61338928Y-89536672D01*
X61368500Y-89388000D01*
X61368500Y-87739625D01*
X61405000Y-87703125D01*
X61405000Y-87228500D01*
X61398662Y-87228500D01*
X61398662Y-86851500D01*
X61405000Y-86851500D01*
X61405000Y-86707500D01*
X61555000Y-86707500D01*
X61555000Y-86851500D01*
X61561338Y-86851500D01*
X61561338Y-87228500D01*
X61555000Y-87228500D01*
X61555000Y-87703125D01*
X61591500Y-87739625D01*
X61591500Y-89497078D01*
X60431289Y-90657289D01*
X60347073Y-90783327D01*
X60345977Y-90788838D01*
X60287900Y-90788838D01*
X60190253Y-90807212D01*
X60100570Y-90864921D01*
X60040405Y-90952975D01*
X60019238Y-91057500D01*
X60019238Y-92457500D01*
X60037612Y-92555147D01*
X60095321Y-92644830D01*
X60183375Y-92704995D01*
X60287900Y-92726162D01*
X61047900Y-92726162D01*
X61145547Y-92707788D01*
X61235230Y-92650079D01*
X61271825Y-92596521D01*
X61288736Y-92637349D01*
X61378050Y-92726663D01*
X61494745Y-92775000D01*
X61670025Y-92775000D01*
X61749400Y-92695625D01*
X61749400Y-91946000D01*
X61729400Y-91946000D01*
X61729400Y-91569000D01*
X61749400Y-91569000D01*
X61749400Y-90819375D01*
X61670025Y-90740000D01*
X61494745Y-90740000D01*
X61413959Y-90773463D01*
X62234120Y-89953302D01*
X62335327Y-90020927D01*
X62484000Y-90050500D01*
X62819400Y-90050500D01*
X62819400Y-90790437D01*
X62730253Y-90807212D01*
X62640570Y-90864921D01*
X62603975Y-90918479D01*
X62587064Y-90877651D01*
X62497750Y-90788337D01*
X62381055Y-90740000D01*
X62205775Y-90740000D01*
X62126400Y-90819375D01*
X62126400Y-91569000D01*
X62146400Y-91569000D01*
X62146400Y-91946000D01*
X62126400Y-91946000D01*
X62126400Y-92695625D01*
X62205775Y-92775000D01*
X62381055Y-92775000D01*
X62497750Y-92726663D01*
X62587064Y-92637349D01*
X62604077Y-92596275D01*
X62635321Y-92644830D01*
X62723375Y-92704995D01*
X62827900Y-92726162D01*
X63587900Y-92726162D01*
X63685547Y-92707788D01*
X63775230Y-92650079D01*
X63835395Y-92562025D01*
X63856562Y-92457500D01*
X63856562Y-91057500D01*
X63838188Y-90959853D01*
X63780479Y-90870170D01*
X63692425Y-90810005D01*
X63596400Y-90790559D01*
X63596400Y-89823435D01*
X63604928Y-89810672D01*
X63634500Y-89662000D01*
X63604928Y-89513328D01*
X63520711Y-89387289D01*
X63394672Y-89303072D01*
X63246000Y-89273500D01*
X62872500Y-89273500D01*
X62872500Y-89213419D01*
X72391783Y-89213419D01*
X72453078Y-89526734D01*
X72455053Y-89531503D01*
X72571555Y-89587865D01*
X72897500Y-89261921D01*
X72897500Y-89404502D01*
X72903373Y-89404502D01*
X72897500Y-89410375D01*
X72897500Y-89509154D01*
X72945836Y-89625849D01*
X73006283Y-89686296D01*
X72838135Y-89854445D01*
X72894497Y-89970947D01*
X73207419Y-90034217D01*
X73520734Y-89972922D01*
X73525503Y-89970947D01*
X73581865Y-89854445D01*
X73441523Y-89714102D01*
X73471500Y-89684125D01*
X73471500Y-89331000D01*
X73451500Y-89331000D01*
X73451500Y-89216000D01*
X73476579Y-89216000D01*
X73792500Y-89531920D01*
X73792500Y-90489154D01*
X73840836Y-90605849D01*
X73930150Y-90695163D01*
X74046845Y-90743500D01*
X76382125Y-90743500D01*
X76461500Y-90664125D01*
X76461500Y-89404500D01*
X76838500Y-89404500D01*
X76838500Y-90664125D01*
X76917875Y-90743500D01*
X79253155Y-90743500D01*
X79369850Y-90695163D01*
X79459164Y-90605849D01*
X79507500Y-90489154D01*
X79507500Y-89483875D01*
X79428125Y-89404500D01*
X76838500Y-89404500D01*
X76461500Y-89404500D01*
X76441500Y-89404500D01*
X76441500Y-89027500D01*
X76461500Y-89027500D01*
X76461500Y-87767875D01*
X76838500Y-87767875D01*
X76838500Y-89027500D01*
X79428125Y-89027500D01*
X79507500Y-88948125D01*
X79507500Y-87942846D01*
X79459164Y-87826151D01*
X79369850Y-87736837D01*
X79253155Y-87688500D01*
X76917875Y-87688500D01*
X76838500Y-87767875D01*
X76461500Y-87767875D01*
X76382125Y-87688500D01*
X74046845Y-87688500D01*
X73930150Y-87736837D01*
X73840836Y-87826151D01*
X73792500Y-87942846D01*
X73792500Y-88900080D01*
X73476579Y-89216000D01*
X73451500Y-89216000D01*
X73451500Y-89101000D01*
X73471500Y-89101000D01*
X73471500Y-88747875D01*
X73441523Y-88717898D01*
X73581865Y-88577555D01*
X73525503Y-88461053D01*
X73212581Y-88397783D01*
X72899266Y-88459078D01*
X72894497Y-88461053D01*
X72838135Y-88577555D01*
X73006283Y-88745704D01*
X72945836Y-88806151D01*
X72897500Y-88922846D01*
X72897500Y-89021625D01*
X72903373Y-89027498D01*
X72897500Y-89027498D01*
X72897500Y-89170079D01*
X72571555Y-88844135D01*
X72455053Y-88900497D01*
X72391783Y-89213419D01*
X62872500Y-89213419D01*
X62872500Y-89154000D01*
X62868500Y-89133891D01*
X62868500Y-87739625D01*
X62905000Y-87703125D01*
X62905000Y-87307875D01*
X63012500Y-87307875D01*
X63012500Y-87528155D01*
X63055000Y-87630758D01*
X63055000Y-87703125D01*
X63134375Y-87782500D01*
X63193154Y-87782500D01*
X63230000Y-87767238D01*
X63266846Y-87782500D01*
X63325625Y-87782500D01*
X63405000Y-87703125D01*
X63405000Y-87630758D01*
X63447500Y-87528155D01*
X63447500Y-87307875D01*
X63405000Y-87265375D01*
X63405000Y-87228500D01*
X63555000Y-87228500D01*
X63555000Y-87703125D01*
X63634375Y-87782500D01*
X63693154Y-87782500D01*
X63809849Y-87734164D01*
X63899163Y-87644850D01*
X63947500Y-87528155D01*
X63947500Y-87307875D01*
X63868125Y-87228500D01*
X63555000Y-87228500D01*
X63405000Y-87228500D01*
X63055000Y-87228500D01*
X63055000Y-87265375D01*
X63012500Y-87307875D01*
X62905000Y-87307875D01*
X62905000Y-87228500D01*
X62898662Y-87228500D01*
X62898662Y-86851500D01*
X62905000Y-86851500D01*
X62905000Y-86707500D01*
X63012500Y-86707500D01*
X63012500Y-86772125D01*
X63055000Y-86814625D01*
X63055000Y-86851500D01*
X63405000Y-86851500D01*
X63405000Y-86831500D01*
X63555000Y-86831500D01*
X63555000Y-86851500D01*
X63868125Y-86851500D01*
X63947500Y-86772125D01*
X63947500Y-86758662D01*
X64605000Y-86758662D01*
X64702647Y-86740288D01*
X64792330Y-86682579D01*
X64852495Y-86594525D01*
X64873662Y-86490000D01*
X64873662Y-86190000D01*
X64870550Y-86173463D01*
X64874164Y-86169849D01*
X64922500Y-86053154D01*
X64922500Y-85994375D01*
X64843125Y-85915000D01*
X64368500Y-85915000D01*
X64368500Y-85921338D01*
X63991500Y-85921338D01*
X63991500Y-85915000D01*
X63847500Y-85915000D01*
X63847500Y-85765000D01*
X63991500Y-85765000D01*
X63991500Y-85758662D01*
X64368500Y-85758662D01*
X64368500Y-85765000D01*
X64843125Y-85765000D01*
X64922500Y-85685625D01*
X64922500Y-85626846D01*
X64874164Y-85510151D01*
X64870353Y-85506340D01*
X64873662Y-85490000D01*
X64873662Y-85228500D01*
X67780631Y-85228500D01*
X67795712Y-85308647D01*
X67853421Y-85398330D01*
X67941475Y-85458495D01*
X68046000Y-85479662D01*
X69246000Y-85479662D01*
X69343647Y-85461288D01*
X69433330Y-85403579D01*
X69493495Y-85315525D01*
X69514662Y-85211000D01*
X69514662Y-84461000D01*
X69677338Y-84461000D01*
X69677338Y-85211000D01*
X69695712Y-85308647D01*
X69753421Y-85398330D01*
X69841475Y-85458495D01*
X69946000Y-85479662D01*
X71146000Y-85479662D01*
X71243647Y-85461288D01*
X71333330Y-85403579D01*
X71393495Y-85315525D01*
X71411928Y-85224500D01*
X73841338Y-85224500D01*
X73841338Y-85981000D01*
X73859712Y-86078647D01*
X73917421Y-86168330D01*
X74005475Y-86228495D01*
X74110000Y-86249662D01*
X79190000Y-86249662D01*
X79287647Y-86231288D01*
X79377330Y-86173579D01*
X79437495Y-86085525D01*
X79458662Y-85981000D01*
X79458662Y-83691000D01*
X79440288Y-83593353D01*
X79382579Y-83503670D01*
X79294525Y-83443505D01*
X79190000Y-83422338D01*
X74110000Y-83422338D01*
X74012353Y-83440712D01*
X73922670Y-83498421D01*
X73862505Y-83586475D01*
X73841338Y-83691000D01*
X73841338Y-84447500D01*
X71412122Y-84447500D01*
X71396288Y-84363353D01*
X71338579Y-84273670D01*
X71250525Y-84213505D01*
X71146000Y-84192338D01*
X69946000Y-84192338D01*
X69848353Y-84210712D01*
X69758670Y-84268421D01*
X69698505Y-84356475D01*
X69677338Y-84461000D01*
X69514662Y-84461000D01*
X69496288Y-84363353D01*
X69438579Y-84273670D01*
X69350525Y-84213505D01*
X69246000Y-84192338D01*
X68046000Y-84192338D01*
X67948353Y-84210712D01*
X67858670Y-84268421D01*
X67798505Y-84356475D01*
X67779262Y-84451500D01*
X64879625Y-84451500D01*
X64843125Y-84415000D01*
X64368500Y-84415000D01*
X64368500Y-84421338D01*
X63991500Y-84421338D01*
X63991500Y-84415000D01*
X63847500Y-84415000D01*
X63847500Y-84265000D01*
X63991500Y-84265000D01*
X63991500Y-84258662D01*
X64368500Y-84258662D01*
X64368500Y-84265000D01*
X64843125Y-84265000D01*
X64922500Y-84185625D01*
X64922500Y-84183006D01*
X65024711Y-84114711D01*
X66520922Y-82618500D01*
X67428338Y-82618500D01*
X67428338Y-82830000D01*
X67446712Y-82927647D01*
X67504421Y-83017330D01*
X67592475Y-83077495D01*
X67697000Y-83098662D01*
X68447000Y-83098662D01*
X68544647Y-83080288D01*
X68634330Y-83022579D01*
X68694495Y-82934525D01*
X68715662Y-82830000D01*
X68715662Y-82618500D01*
X70476338Y-82618500D01*
X70476338Y-82830000D01*
X70494712Y-82927647D01*
X70552421Y-83017330D01*
X70640475Y-83077495D01*
X70745000Y-83098662D01*
X71495000Y-83098662D01*
X71592647Y-83080288D01*
X71682330Y-83022579D01*
X71742495Y-82934525D01*
X71763662Y-82830000D01*
X71763662Y-81630000D01*
X71745288Y-81532353D01*
X71687579Y-81442670D01*
X71599525Y-81382505D01*
X71495000Y-81361338D01*
X70745000Y-81361338D01*
X70647353Y-81379712D01*
X70557670Y-81437421D01*
X70497505Y-81525475D01*
X70476338Y-81630000D01*
X70476338Y-81841500D01*
X68715662Y-81841500D01*
X68715662Y-81630000D01*
X68697288Y-81532353D01*
X68639579Y-81442670D01*
X68551525Y-81382505D01*
X68447000Y-81361338D01*
X67697000Y-81361338D01*
X67599353Y-81379712D01*
X67509670Y-81437421D01*
X67449505Y-81525475D01*
X67428338Y-81630000D01*
X67428338Y-81841500D01*
X66748500Y-81841500D01*
X66748500Y-80597875D01*
X67379500Y-80597875D01*
X67379500Y-80993155D01*
X67427837Y-81109850D01*
X67517151Y-81199164D01*
X67633846Y-81247500D01*
X67805125Y-81247500D01*
X67884500Y-81168125D01*
X67884500Y-80518500D01*
X68259500Y-80518500D01*
X68259500Y-81168125D01*
X68338875Y-81247500D01*
X68510154Y-81247500D01*
X68626849Y-81199164D01*
X68716163Y-81109850D01*
X68764500Y-80993155D01*
X68764500Y-80597875D01*
X70427500Y-80597875D01*
X70427500Y-80993155D01*
X70475837Y-81109850D01*
X70565151Y-81199164D01*
X70681846Y-81247500D01*
X70853125Y-81247500D01*
X70932500Y-81168125D01*
X70932500Y-80518500D01*
X71307500Y-80518500D01*
X71307500Y-81168125D01*
X71386875Y-81247500D01*
X71558154Y-81247500D01*
X71674849Y-81199164D01*
X71764163Y-81109850D01*
X71812500Y-80993155D01*
X71812500Y-80597875D01*
X71733125Y-80518500D01*
X71307500Y-80518500D01*
X70932500Y-80518500D01*
X70506875Y-80518500D01*
X70427500Y-80597875D01*
X68764500Y-80597875D01*
X68685125Y-80518500D01*
X68259500Y-80518500D01*
X67884500Y-80518500D01*
X67458875Y-80518500D01*
X67379500Y-80597875D01*
X66748500Y-80597875D01*
X66748500Y-80453419D01*
X72391783Y-80453419D01*
X72453078Y-80766734D01*
X72455053Y-80771503D01*
X72571555Y-80827865D01*
X72897500Y-80501921D01*
X72897500Y-80644502D01*
X72903373Y-80644502D01*
X72897500Y-80650375D01*
X72897500Y-80749154D01*
X72945836Y-80865849D01*
X73006283Y-80926296D01*
X72838135Y-81094445D01*
X72894497Y-81210947D01*
X73207419Y-81274217D01*
X73520734Y-81212922D01*
X73525503Y-81210947D01*
X73581865Y-81094445D01*
X73441523Y-80954102D01*
X73471500Y-80924125D01*
X73471500Y-80571000D01*
X73451500Y-80571000D01*
X73451500Y-80456000D01*
X73476579Y-80456000D01*
X73792500Y-80771920D01*
X73792500Y-81729154D01*
X73840836Y-81845849D01*
X73930150Y-81935163D01*
X74046845Y-81983500D01*
X76382125Y-81983500D01*
X76461500Y-81904125D01*
X76461500Y-80644500D01*
X76838500Y-80644500D01*
X76838500Y-81904125D01*
X76917875Y-81983500D01*
X79253155Y-81983500D01*
X79369850Y-81935163D01*
X79459164Y-81845849D01*
X79507500Y-81729154D01*
X79507500Y-80723875D01*
X79428125Y-80644500D01*
X76838500Y-80644500D01*
X76461500Y-80644500D01*
X76441500Y-80644500D01*
X76441500Y-80267500D01*
X76461500Y-80267500D01*
X76461500Y-79007875D01*
X76838500Y-79007875D01*
X76838500Y-80267500D01*
X79428125Y-80267500D01*
X79507500Y-80188125D01*
X79507500Y-79182846D01*
X79459164Y-79066151D01*
X79369850Y-78976837D01*
X79253155Y-78928500D01*
X76917875Y-78928500D01*
X76838500Y-79007875D01*
X76461500Y-79007875D01*
X76382125Y-78928500D01*
X74046845Y-78928500D01*
X73930150Y-78976837D01*
X73840836Y-79066151D01*
X73792500Y-79182846D01*
X73792500Y-80140080D01*
X73476579Y-80456000D01*
X73451500Y-80456000D01*
X73451500Y-80341000D01*
X73471500Y-80341000D01*
X73471500Y-79987875D01*
X73441523Y-79957898D01*
X73581865Y-79817555D01*
X73525503Y-79701053D01*
X73212581Y-79637783D01*
X72899266Y-79699078D01*
X72894497Y-79701053D01*
X72838135Y-79817555D01*
X73006283Y-79985704D01*
X72945836Y-80046151D01*
X72897500Y-80162846D01*
X72897500Y-80261625D01*
X72903373Y-80267498D01*
X72897500Y-80267498D01*
X72897500Y-80410079D01*
X72571555Y-80084135D01*
X72455053Y-80140497D01*
X72391783Y-80453419D01*
X66748500Y-80453419D01*
X66748500Y-79666845D01*
X67379500Y-79666845D01*
X67379500Y-80062125D01*
X67458875Y-80141500D01*
X67884500Y-80141500D01*
X67884500Y-79491875D01*
X68259500Y-79491875D01*
X68259500Y-80141500D01*
X68685125Y-80141500D01*
X68764500Y-80062125D01*
X68764500Y-79666845D01*
X70427500Y-79666845D01*
X70427500Y-80062125D01*
X70506875Y-80141500D01*
X70932500Y-80141500D01*
X70932500Y-79491875D01*
X71307500Y-79491875D01*
X71307500Y-80141500D01*
X71733125Y-80141500D01*
X71812500Y-80062125D01*
X71812500Y-79666845D01*
X71764163Y-79550150D01*
X71674849Y-79460836D01*
X71558154Y-79412500D01*
X71386875Y-79412500D01*
X71307500Y-79491875D01*
X70932500Y-79491875D01*
X70853125Y-79412500D01*
X70681846Y-79412500D01*
X70565151Y-79460836D01*
X70475837Y-79550150D01*
X70427500Y-79666845D01*
X68764500Y-79666845D01*
X68716163Y-79550150D01*
X68626849Y-79460836D01*
X68510154Y-79412500D01*
X68338875Y-79412500D01*
X68259500Y-79491875D01*
X67884500Y-79491875D01*
X67805125Y-79412500D01*
X67633846Y-79412500D01*
X67517151Y-79460836D01*
X67427837Y-79550150D01*
X67379500Y-79666845D01*
X66748500Y-79666845D01*
X66748500Y-76774000D01*
X66718927Y-76625327D01*
X66634711Y-76499289D01*
X66568711Y-76433289D01*
X66541449Y-76415073D01*
X66442673Y-76349073D01*
X66294000Y-76319500D01*
X62819703Y-76319500D01*
X62853350Y-76305563D01*
X62942664Y-76216249D01*
X62991000Y-76099554D01*
X62991000Y-75604275D01*
X62911625Y-75524900D01*
X62482000Y-75524900D01*
X62482000Y-75544900D01*
X62105000Y-75544900D01*
X62105000Y-75524900D01*
X61675375Y-75524900D01*
X61596000Y-75604275D01*
X61596000Y-76099554D01*
X61644336Y-76216249D01*
X61733650Y-76305563D01*
X61767297Y-76319500D01*
X59250500Y-76319500D01*
X59250500Y-74864000D01*
X59220927Y-74715327D01*
X59136711Y-74589289D01*
X59120668Y-74573246D01*
X61596000Y-74573246D01*
X61596000Y-75068525D01*
X61675375Y-75147900D01*
X62105000Y-75147900D01*
X62105000Y-74398275D01*
X62482000Y-74398275D01*
X62482000Y-75147900D01*
X62911625Y-75147900D01*
X62991000Y-75068525D01*
X62991000Y-74573246D01*
X62942664Y-74456551D01*
X62853350Y-74367237D01*
X62736655Y-74318900D01*
X62561375Y-74318900D01*
X62482000Y-74398275D01*
X62105000Y-74398275D01*
X62025625Y-74318900D01*
X61850345Y-74318900D01*
X61733650Y-74367237D01*
X61644336Y-74456551D01*
X61596000Y-74573246D01*
X59120668Y-74573246D01*
X58948711Y-74401289D01*
X58898498Y-74367738D01*
X58822673Y-74317073D01*
X58674000Y-74287500D01*
X55694500Y-74287500D01*
X55694500Y-69477662D01*
X55906000Y-69477662D01*
X56003647Y-69459288D01*
X56093330Y-69401579D01*
X56153495Y-69313525D01*
X56174662Y-69209000D01*
X56174662Y-68773419D01*
X59825783Y-68773419D01*
X59887078Y-69086734D01*
X59889053Y-69091503D01*
X60005555Y-69147865D01*
X60173704Y-68979717D01*
X60234151Y-69040164D01*
X60350846Y-69088500D01*
X60449625Y-69088500D01*
X60455498Y-69082627D01*
X60455498Y-69088500D01*
X60598079Y-69088500D01*
X60272135Y-69414445D01*
X60328497Y-69530947D01*
X60641419Y-69594217D01*
X60954734Y-69532922D01*
X60959503Y-69530947D01*
X61015865Y-69414445D01*
X60689921Y-69088500D01*
X60832502Y-69088500D01*
X60832502Y-69082627D01*
X60838375Y-69088500D01*
X60937154Y-69088500D01*
X61053849Y-69040164D01*
X61114296Y-68979717D01*
X61282445Y-69147865D01*
X61398947Y-69091503D01*
X61462217Y-68778581D01*
X61400922Y-68465266D01*
X61398947Y-68460497D01*
X61282445Y-68404135D01*
X61142102Y-68544477D01*
X61112125Y-68514500D01*
X60759000Y-68514500D01*
X60759000Y-68534500D01*
X60529000Y-68534500D01*
X60529000Y-68514500D01*
X60175875Y-68514500D01*
X60145898Y-68544477D01*
X60005555Y-68404135D01*
X59889053Y-68460497D01*
X59825783Y-68773419D01*
X56174662Y-68773419D01*
X56174662Y-68459000D01*
X56156288Y-68361353D01*
X56098579Y-68271670D01*
X56010525Y-68211505D01*
X55906000Y-68190338D01*
X55694500Y-68190338D01*
X55694500Y-67790922D01*
X56234711Y-67250711D01*
X56318928Y-67124672D01*
X56348500Y-66976000D01*
X56348500Y-66704662D01*
X56710000Y-66704662D01*
X56807647Y-66686288D01*
X56897330Y-66628579D01*
X56957495Y-66540525D01*
X56978662Y-66436000D01*
X56978662Y-65603875D01*
X59116500Y-65603875D01*
X59116500Y-67939155D01*
X59164837Y-68055850D01*
X59254151Y-68145164D01*
X59370846Y-68193500D01*
X60328080Y-68193500D01*
X60644000Y-68509421D01*
X60959920Y-68193500D01*
X61917154Y-68193500D01*
X62033849Y-68145164D01*
X62123163Y-68055850D01*
X62171500Y-67939155D01*
X62171500Y-65603875D01*
X62092125Y-65524500D01*
X60832500Y-65524500D01*
X60832500Y-65544500D01*
X60455500Y-65544500D01*
X60455500Y-65524500D01*
X59195875Y-65524500D01*
X59116500Y-65603875D01*
X56978662Y-65603875D01*
X56978662Y-65136000D01*
X56960288Y-65038353D01*
X56902579Y-64948670D01*
X56814525Y-64888505D01*
X56710000Y-64867338D01*
X55210000Y-64867338D01*
X55112353Y-64885712D01*
X55022670Y-64943421D01*
X54962505Y-65031475D01*
X54941338Y-65136000D01*
X54941338Y-66436000D01*
X54959712Y-66533647D01*
X55017421Y-66623330D01*
X55105475Y-66683495D01*
X55210000Y-66704662D01*
X55571500Y-66704662D01*
X55571500Y-66815078D01*
X55031289Y-67355289D01*
X54947073Y-67481327D01*
X54917500Y-67630000D01*
X54917500Y-68190338D01*
X54706000Y-68190338D01*
X54608353Y-68208712D01*
X54518670Y-68266421D01*
X54458505Y-68354475D01*
X54437338Y-68459000D01*
X54437338Y-69209000D01*
X54455712Y-69306647D01*
X54513421Y-69396330D01*
X54601475Y-69456495D01*
X54706000Y-69477662D01*
X54917500Y-69477662D01*
X54917500Y-74610000D01*
X54947073Y-74758673D01*
X55017450Y-74864000D01*
X55031289Y-74884711D01*
X55097289Y-74950711D01*
X55223327Y-75034927D01*
X55372000Y-75064500D01*
X58473500Y-75064500D01*
X58473500Y-78350338D01*
X58262000Y-78350338D01*
X58164353Y-78368712D01*
X58074670Y-78426421D01*
X58014505Y-78514475D01*
X57993338Y-78619000D01*
X57993338Y-79369000D01*
X58011712Y-79466647D01*
X58069421Y-79556330D01*
X58157475Y-79616495D01*
X58262000Y-79637662D01*
X58473500Y-79637662D01*
X58473500Y-81119078D01*
X58448240Y-81144338D01*
X57754000Y-81144338D01*
X57656353Y-81162712D01*
X57566670Y-81220421D01*
X57506505Y-81308475D01*
X57485338Y-81413000D01*
X57485338Y-82163000D01*
X57503712Y-82260647D01*
X57561421Y-82350330D01*
X57649475Y-82410495D01*
X57754000Y-82431662D01*
X58954000Y-82431662D01*
X59051647Y-82413288D01*
X59141330Y-82355579D01*
X59201495Y-82267525D01*
X59219928Y-82176500D01*
X60591500Y-82176500D01*
X60591500Y-82597310D01*
X60582505Y-82610475D01*
X60561338Y-82715000D01*
X60561338Y-83421338D01*
X59855000Y-83421338D01*
X59757353Y-83439712D01*
X59667670Y-83497421D01*
X59607505Y-83585475D01*
X59586338Y-83690000D01*
X59586338Y-83990000D01*
X59589450Y-84006537D01*
X59585836Y-84010151D01*
X59537500Y-84126846D01*
X59537500Y-84185625D01*
X59616875Y-84265000D01*
X60091500Y-84265000D01*
X60091500Y-84258662D01*
X60468500Y-84258662D01*
X60468500Y-84265000D01*
X60612500Y-84265000D01*
X60612500Y-84415000D01*
X60468500Y-84415000D01*
X60468500Y-84421338D01*
X60091500Y-84421338D01*
X60091500Y-84415000D01*
X59616875Y-84415000D01*
X59580375Y-84451500D01*
X53645491Y-84451500D01*
X53620000Y-84446338D01*
X52420000Y-84446338D01*
X52322353Y-84464712D01*
X52232670Y-84522421D01*
X52172505Y-84610475D01*
X52151338Y-84715000D01*
X52151338Y-85465000D01*
X52169712Y-85562647D01*
X52227421Y-85652330D01*
X52315475Y-85712495D01*
X52420000Y-85733662D01*
X53620000Y-85733662D01*
X53717647Y-85715288D01*
X53807330Y-85657579D01*
X53867495Y-85569525D01*
X53888662Y-85465000D01*
X53888662Y-85228500D01*
X57478078Y-85228500D01*
X55973078Y-86733500D01*
X53886122Y-86733500D01*
X53870288Y-86649353D01*
X53812579Y-86559670D01*
X53724525Y-86499505D01*
X53620000Y-86478338D01*
X52420000Y-86478338D01*
X52322353Y-86496712D01*
X52232670Y-86554421D01*
X52172505Y-86642475D01*
X52151338Y-86747000D01*
X52151338Y-87497000D01*
X52169712Y-87594647D01*
X52227421Y-87684330D01*
X52315475Y-87744495D01*
X52420000Y-87765662D01*
X53620000Y-87765662D01*
X53717647Y-87747288D01*
X53807330Y-87689579D01*
X53867495Y-87601525D01*
X53885928Y-87510500D01*
X56134000Y-87510500D01*
X56282673Y-87480927D01*
X56408711Y-87396711D01*
X58076922Y-85728500D01*
X59580375Y-85728500D01*
X59616875Y-85765000D01*
X60091500Y-85765000D01*
X60091500Y-85758662D01*
X60468500Y-85758662D01*
X60468500Y-85765000D01*
X60612500Y-85765000D01*
X60612500Y-85915000D01*
X60468500Y-85915000D01*
X60468500Y-85921338D01*
X60091500Y-85921338D01*
X60091500Y-85915000D01*
X59616875Y-85915000D01*
X59580375Y-85951500D01*
X59202000Y-85951500D01*
X59053327Y-85981073D01*
X58945450Y-86053154D01*
X58927289Y-86065289D01*
X53941078Y-91051500D01*
X51394360Y-91051500D01*
X51245687Y-91081073D01*
X51119649Y-91165289D01*
X49373700Y-92911238D01*
X47354490Y-92911238D01*
X47256843Y-92929612D01*
X47167160Y-92987321D01*
X47106995Y-93075375D01*
X47085828Y-93179900D01*
X29526300Y-93179900D01*
X29526300Y-89737875D01*
X31744500Y-89737875D01*
X31744500Y-90743154D01*
X31792836Y-90859849D01*
X31882150Y-90949163D01*
X31998845Y-90997500D01*
X34334125Y-90997500D01*
X34413500Y-90918125D01*
X34413500Y-89658500D01*
X31823875Y-89658500D01*
X31744500Y-89737875D01*
X29526300Y-89737875D01*
X29526300Y-88196846D01*
X31744500Y-88196846D01*
X31744500Y-89202125D01*
X31823875Y-89281500D01*
X34413500Y-89281500D01*
X34413500Y-88021875D01*
X34790500Y-88021875D01*
X34790500Y-89281500D01*
X34810500Y-89281500D01*
X34810500Y-89658500D01*
X34790500Y-89658500D01*
X34790500Y-90918125D01*
X34869875Y-90997500D01*
X37205155Y-90997500D01*
X37321850Y-90949163D01*
X37411164Y-90859849D01*
X37459500Y-90743154D01*
X37459500Y-89785920D01*
X37775421Y-89470000D01*
X37459500Y-89154080D01*
X37459500Y-88831555D01*
X37670135Y-88831555D01*
X37810477Y-88971898D01*
X37780500Y-89001875D01*
X37780500Y-89355000D01*
X37800500Y-89355000D01*
X37800500Y-89585000D01*
X37780500Y-89585000D01*
X37780500Y-89938125D01*
X37810477Y-89968102D01*
X37670135Y-90108445D01*
X37726497Y-90224947D01*
X38039419Y-90288217D01*
X38352734Y-90226922D01*
X38357503Y-90224947D01*
X38413865Y-90108445D01*
X38245717Y-89940296D01*
X38306164Y-89879849D01*
X38354500Y-89763154D01*
X38354500Y-89664375D01*
X38348627Y-89658502D01*
X38354500Y-89658502D01*
X38354500Y-89515921D01*
X38680445Y-89841865D01*
X38796947Y-89785503D01*
X38860217Y-89472581D01*
X38798922Y-89159266D01*
X38796947Y-89154497D01*
X38680445Y-89098135D01*
X38354500Y-89424079D01*
X38354500Y-89281498D01*
X38348627Y-89281498D01*
X38354500Y-89275625D01*
X38354500Y-89176846D01*
X38306164Y-89060151D01*
X38245717Y-88999704D01*
X38413865Y-88831555D01*
X38357503Y-88715053D01*
X38044581Y-88651783D01*
X37731266Y-88713078D01*
X37726497Y-88715053D01*
X37670135Y-88831555D01*
X37459500Y-88831555D01*
X37459500Y-88196846D01*
X37411164Y-88080151D01*
X37321850Y-87990837D01*
X37205155Y-87942500D01*
X34869875Y-87942500D01*
X34790500Y-88021875D01*
X34413500Y-88021875D01*
X34334125Y-87942500D01*
X31998845Y-87942500D01*
X31882150Y-87990837D01*
X31792836Y-88080151D01*
X31744500Y-88196846D01*
X29526300Y-88196846D01*
X29526300Y-86747000D01*
X50251338Y-86747000D01*
X50251338Y-87497000D01*
X50269712Y-87594647D01*
X50327421Y-87684330D01*
X50415475Y-87744495D01*
X50520000Y-87765662D01*
X50731500Y-87765662D01*
X50731500Y-88689338D01*
X50624000Y-88689338D01*
X50526353Y-88707712D01*
X50436670Y-88765421D01*
X50376505Y-88853475D01*
X50355338Y-88958000D01*
X50355338Y-89858000D01*
X50373712Y-89955647D01*
X50431421Y-90045330D01*
X50519475Y-90105495D01*
X50624000Y-90126662D01*
X51824000Y-90126662D01*
X51921647Y-90108288D01*
X52011330Y-90050579D01*
X52071495Y-89962525D01*
X52092662Y-89858000D01*
X52092662Y-89675875D01*
X52506500Y-89675875D01*
X52506500Y-89921154D01*
X52554836Y-90037849D01*
X52644150Y-90127163D01*
X52760845Y-90175500D01*
X53156125Y-90175500D01*
X53235500Y-90096125D01*
X53235500Y-89596500D01*
X53612500Y-89596500D01*
X53612500Y-90096125D01*
X53691875Y-90175500D01*
X54087155Y-90175500D01*
X54203850Y-90127163D01*
X54293164Y-90037849D01*
X54341500Y-89921154D01*
X54341500Y-89675875D01*
X54262125Y-89596500D01*
X53612500Y-89596500D01*
X53235500Y-89596500D01*
X52585875Y-89596500D01*
X52506500Y-89675875D01*
X52092662Y-89675875D01*
X52092662Y-88958000D01*
X52080779Y-88894846D01*
X52506500Y-88894846D01*
X52506500Y-89140125D01*
X52585875Y-89219500D01*
X53235500Y-89219500D01*
X53235500Y-88719875D01*
X53612500Y-88719875D01*
X53612500Y-89219500D01*
X54262125Y-89219500D01*
X54341500Y-89140125D01*
X54341500Y-88894846D01*
X54293164Y-88778151D01*
X54203850Y-88688837D01*
X54087155Y-88640500D01*
X53691875Y-88640500D01*
X53612500Y-88719875D01*
X53235500Y-88719875D01*
X53156125Y-88640500D01*
X52760845Y-88640500D01*
X52644150Y-88688837D01*
X52554836Y-88778151D01*
X52506500Y-88894846D01*
X52080779Y-88894846D01*
X52074288Y-88860353D01*
X52016579Y-88770670D01*
X51928525Y-88710505D01*
X51824000Y-88689338D01*
X51508500Y-88689338D01*
X51508500Y-87765662D01*
X51720000Y-87765662D01*
X51817647Y-87747288D01*
X51907330Y-87689579D01*
X51967495Y-87601525D01*
X51988662Y-87497000D01*
X51988662Y-86747000D01*
X51970288Y-86649353D01*
X51912579Y-86559670D01*
X51824525Y-86499505D01*
X51720000Y-86478338D01*
X50520000Y-86478338D01*
X50422353Y-86496712D01*
X50332670Y-86554421D01*
X50272505Y-86642475D01*
X50251338Y-86747000D01*
X29526300Y-86747000D01*
X29526300Y-83945000D01*
X31793338Y-83945000D01*
X31793338Y-86235000D01*
X31811712Y-86332647D01*
X31869421Y-86422330D01*
X31957475Y-86482495D01*
X32062000Y-86503662D01*
X37142000Y-86503662D01*
X37239647Y-86485288D01*
X37329330Y-86427579D01*
X37389495Y-86339525D01*
X37410662Y-86235000D01*
X37410662Y-85478500D01*
X50253878Y-85478500D01*
X50269712Y-85562647D01*
X50327421Y-85652330D01*
X50415475Y-85712495D01*
X50520000Y-85733662D01*
X51720000Y-85733662D01*
X51817647Y-85715288D01*
X51907330Y-85657579D01*
X51967495Y-85569525D01*
X51988662Y-85465000D01*
X51988662Y-84715000D01*
X51970288Y-84617353D01*
X51912579Y-84527670D01*
X51824525Y-84467505D01*
X51720000Y-84446338D01*
X50520000Y-84446338D01*
X50422353Y-84464712D01*
X50332670Y-84522421D01*
X50272505Y-84610475D01*
X50254072Y-84701500D01*
X37410662Y-84701500D01*
X37410662Y-83945000D01*
X37392288Y-83847353D01*
X37334579Y-83757670D01*
X37246525Y-83697505D01*
X37142000Y-83676338D01*
X32062000Y-83676338D01*
X31964353Y-83694712D01*
X31874670Y-83752421D01*
X31814505Y-83840475D01*
X31793338Y-83945000D01*
X29526300Y-83945000D01*
X29526300Y-80977875D01*
X31744500Y-80977875D01*
X31744500Y-81983154D01*
X31792836Y-82099849D01*
X31882150Y-82189163D01*
X31998845Y-82237500D01*
X34334125Y-82237500D01*
X34413500Y-82158125D01*
X34413500Y-80898500D01*
X31823875Y-80898500D01*
X31744500Y-80977875D01*
X29526300Y-80977875D01*
X29526300Y-79436846D01*
X31744500Y-79436846D01*
X31744500Y-80442125D01*
X31823875Y-80521500D01*
X34413500Y-80521500D01*
X34413500Y-79261875D01*
X34790500Y-79261875D01*
X34790500Y-80521500D01*
X34810500Y-80521500D01*
X34810500Y-80898500D01*
X34790500Y-80898500D01*
X34790500Y-82158125D01*
X34869875Y-82237500D01*
X37205155Y-82237500D01*
X37321850Y-82189163D01*
X37411164Y-82099849D01*
X37429792Y-82054875D01*
X55536500Y-82054875D01*
X55536500Y-82226154D01*
X55584836Y-82342849D01*
X55674150Y-82432163D01*
X55790845Y-82480500D01*
X56186125Y-82480500D01*
X56265500Y-82401125D01*
X56265500Y-81975500D01*
X56642500Y-81975500D01*
X56642500Y-82401125D01*
X56721875Y-82480500D01*
X57117155Y-82480500D01*
X57233850Y-82432163D01*
X57323164Y-82342849D01*
X57371500Y-82226154D01*
X57371500Y-82054875D01*
X57292125Y-81975500D01*
X56642500Y-81975500D01*
X56265500Y-81975500D01*
X55615875Y-81975500D01*
X55536500Y-82054875D01*
X37429792Y-82054875D01*
X37459500Y-81983154D01*
X37459500Y-81025920D01*
X37775421Y-80710000D01*
X37459500Y-80394080D01*
X37459500Y-80071555D01*
X37670135Y-80071555D01*
X37810477Y-80211898D01*
X37780500Y-80241875D01*
X37780500Y-80595000D01*
X37800500Y-80595000D01*
X37800500Y-80825000D01*
X37780500Y-80825000D01*
X37780500Y-81178125D01*
X37810477Y-81208102D01*
X37670135Y-81348445D01*
X37726497Y-81464947D01*
X38039419Y-81528217D01*
X38352734Y-81466922D01*
X38357503Y-81464947D01*
X38413187Y-81349846D01*
X55536500Y-81349846D01*
X55536500Y-81521125D01*
X55615875Y-81600500D01*
X56265500Y-81600500D01*
X56265500Y-81174875D01*
X56642500Y-81174875D01*
X56642500Y-81600500D01*
X57292125Y-81600500D01*
X57371500Y-81521125D01*
X57371500Y-81349846D01*
X57323164Y-81233151D01*
X57233850Y-81143837D01*
X57117155Y-81095500D01*
X56721875Y-81095500D01*
X56642500Y-81174875D01*
X56265500Y-81174875D01*
X56186125Y-81095500D01*
X55790845Y-81095500D01*
X55674150Y-81143837D01*
X55584836Y-81233151D01*
X55536500Y-81349846D01*
X38413187Y-81349846D01*
X38413865Y-81348445D01*
X38245717Y-81180296D01*
X38306164Y-81119849D01*
X38354500Y-81003154D01*
X38354500Y-80904375D01*
X38348627Y-80898502D01*
X38354500Y-80898502D01*
X38354500Y-80755921D01*
X38680445Y-81081865D01*
X38796947Y-81025503D01*
X38860217Y-80712581D01*
X38798922Y-80399266D01*
X38796947Y-80394497D01*
X38680445Y-80338135D01*
X38354500Y-80664079D01*
X38354500Y-80521498D01*
X38348627Y-80521498D01*
X38354500Y-80515625D01*
X38354500Y-80416846D01*
X38306164Y-80300151D01*
X38245717Y-80239704D01*
X38413865Y-80071555D01*
X38357503Y-79955053D01*
X38044581Y-79891783D01*
X37731266Y-79953078D01*
X37726497Y-79955053D01*
X37670135Y-80071555D01*
X37459500Y-80071555D01*
X37459500Y-79436846D01*
X37411164Y-79320151D01*
X37351888Y-79260875D01*
X56044500Y-79260875D01*
X56044500Y-79432154D01*
X56092836Y-79548849D01*
X56182150Y-79638163D01*
X56298845Y-79686500D01*
X56694125Y-79686500D01*
X56773500Y-79607125D01*
X56773500Y-79181500D01*
X57150500Y-79181500D01*
X57150500Y-79607125D01*
X57229875Y-79686500D01*
X57625155Y-79686500D01*
X57741850Y-79638163D01*
X57831164Y-79548849D01*
X57879500Y-79432154D01*
X57879500Y-79260875D01*
X57800125Y-79181500D01*
X57150500Y-79181500D01*
X56773500Y-79181500D01*
X56123875Y-79181500D01*
X56044500Y-79260875D01*
X37351888Y-79260875D01*
X37321850Y-79230837D01*
X37205155Y-79182500D01*
X34869875Y-79182500D01*
X34790500Y-79261875D01*
X34413500Y-79261875D01*
X34334125Y-79182500D01*
X31998845Y-79182500D01*
X31882150Y-79230837D01*
X31792836Y-79320151D01*
X31744500Y-79436846D01*
X29526300Y-79436846D01*
X29526300Y-78555846D01*
X56044500Y-78555846D01*
X56044500Y-78727125D01*
X56123875Y-78806500D01*
X56773500Y-78806500D01*
X56773500Y-78380875D01*
X57150500Y-78380875D01*
X57150500Y-78806500D01*
X57800125Y-78806500D01*
X57879500Y-78727125D01*
X57879500Y-78555846D01*
X57831164Y-78439151D01*
X57741850Y-78349837D01*
X57625155Y-78301500D01*
X57229875Y-78301500D01*
X57150500Y-78380875D01*
X56773500Y-78380875D01*
X56694125Y-78301500D01*
X56298845Y-78301500D01*
X56182150Y-78349837D01*
X56092836Y-78439151D01*
X56044500Y-78555846D01*
X29526300Y-78555846D01*
X29526300Y-72176000D01*
X31561338Y-72176000D01*
X31561338Y-77176000D01*
X31579712Y-77273647D01*
X31637421Y-77363330D01*
X31725475Y-77423495D01*
X31830000Y-77444662D01*
X41830000Y-77444662D01*
X41927647Y-77426288D01*
X42017330Y-77368579D01*
X42077495Y-77280525D01*
X42098662Y-77176000D01*
X42098662Y-76080500D01*
X43529828Y-76080500D01*
X43529828Y-76492100D01*
X43548202Y-76589747D01*
X43605911Y-76679430D01*
X43693965Y-76739595D01*
X43798490Y-76760762D01*
X46798230Y-76760762D01*
X46895877Y-76742388D01*
X46985560Y-76684679D01*
X47045725Y-76596625D01*
X47066892Y-76492100D01*
X47066892Y-75959875D01*
X47880270Y-75959875D01*
X47880270Y-76555254D01*
X47928606Y-76671949D01*
X48017920Y-76761263D01*
X48134615Y-76809600D01*
X49429765Y-76809600D01*
X49509140Y-76730225D01*
X49509140Y-75880500D01*
X49886140Y-75880500D01*
X49886140Y-76730225D01*
X49965515Y-76809600D01*
X51260665Y-76809600D01*
X51377360Y-76761263D01*
X51466674Y-76671949D01*
X51515010Y-76555254D01*
X51515010Y-75959875D01*
X51435635Y-75880500D01*
X49886140Y-75880500D01*
X49509140Y-75880500D01*
X47959645Y-75880500D01*
X47880270Y-75959875D01*
X47066892Y-75959875D01*
X47066892Y-74891900D01*
X47055009Y-74828746D01*
X47880270Y-74828746D01*
X47880270Y-75424125D01*
X47959645Y-75503500D01*
X49509140Y-75503500D01*
X49509140Y-74653775D01*
X49886140Y-74653775D01*
X49886140Y-75503500D01*
X51435635Y-75503500D01*
X51515010Y-75424125D01*
X51515010Y-74828746D01*
X51466674Y-74712051D01*
X51377360Y-74622737D01*
X51260665Y-74574400D01*
X49965515Y-74574400D01*
X49886140Y-74653775D01*
X49509140Y-74653775D01*
X49429765Y-74574400D01*
X48134615Y-74574400D01*
X48017920Y-74622737D01*
X47928606Y-74712051D01*
X47880270Y-74828746D01*
X47055009Y-74828746D01*
X47048518Y-74794253D01*
X46990809Y-74704570D01*
X46902755Y-74644405D01*
X46798230Y-74623238D01*
X43798490Y-74623238D01*
X43700843Y-74641612D01*
X43611160Y-74699321D01*
X43550995Y-74787375D01*
X43529828Y-74891900D01*
X43529828Y-75303500D01*
X42098662Y-75303500D01*
X42098662Y-72176000D01*
X42080288Y-72078353D01*
X42022579Y-71988670D01*
X41934525Y-71928505D01*
X41830000Y-71907338D01*
X35440500Y-71907338D01*
X35440500Y-70285515D01*
X46888400Y-70285515D01*
X46888400Y-71580665D01*
X46936737Y-71697360D01*
X47026051Y-71786674D01*
X47142746Y-71835010D01*
X47738125Y-71835010D01*
X47817500Y-71755635D01*
X47817500Y-70206140D01*
X48194500Y-70206140D01*
X48194500Y-71755635D01*
X48273875Y-71835010D01*
X48869254Y-71835010D01*
X48985949Y-71786674D01*
X49075263Y-71697360D01*
X49123600Y-71580665D01*
X49123600Y-70285515D01*
X49044225Y-70206140D01*
X48194500Y-70206140D01*
X47817500Y-70206140D01*
X46967775Y-70206140D01*
X46888400Y-70285515D01*
X35440500Y-70285515D01*
X35440500Y-69791345D01*
X35769056Y-69571811D01*
X35988879Y-69242823D01*
X36066070Y-68854755D01*
X36066070Y-68514500D01*
X36523930Y-68514500D01*
X36523930Y-69013610D01*
X36677368Y-69407994D01*
X36970050Y-69713639D01*
X37241360Y-69833984D01*
X37403500Y-69795669D01*
X37403500Y-68514500D01*
X37780500Y-68514500D01*
X37780500Y-69795669D01*
X37942640Y-69833984D01*
X38213950Y-69713639D01*
X38506632Y-69407994D01*
X38660070Y-69013610D01*
X38660070Y-68514500D01*
X37780500Y-68514500D01*
X37403500Y-68514500D01*
X36523930Y-68514500D01*
X36066070Y-68514500D01*
X36066070Y-67797245D01*
X36034472Y-67638390D01*
X36523930Y-67638390D01*
X36523930Y-68137500D01*
X37403500Y-68137500D01*
X37403500Y-66856331D01*
X37780500Y-66856331D01*
X37780500Y-68137500D01*
X38660070Y-68137500D01*
X38660070Y-67797245D01*
X39117930Y-67797245D01*
X39117930Y-68854755D01*
X39195121Y-69242823D01*
X39414944Y-69571811D01*
X39743932Y-69791634D01*
X40132000Y-69868825D01*
X40520068Y-69791634D01*
X40849056Y-69571811D01*
X41068879Y-69242823D01*
X41146070Y-68854755D01*
X41146070Y-68714500D01*
X44196000Y-68714500D01*
X44344673Y-68684927D01*
X44470711Y-68600711D01*
X44616807Y-68454615D01*
X46888400Y-68454615D01*
X46888400Y-69749765D01*
X46967775Y-69829140D01*
X47817500Y-69829140D01*
X47817500Y-68279645D01*
X48194500Y-68279645D01*
X48194500Y-69829140D01*
X49044225Y-69829140D01*
X49123600Y-69749765D01*
X49123600Y-69100875D01*
X52488500Y-69100875D01*
X52488500Y-69272154D01*
X52536836Y-69388849D01*
X52626150Y-69478163D01*
X52742845Y-69526500D01*
X53138125Y-69526500D01*
X53217500Y-69447125D01*
X53217500Y-69021500D01*
X53594500Y-69021500D01*
X53594500Y-69447125D01*
X53673875Y-69526500D01*
X54069155Y-69526500D01*
X54185850Y-69478163D01*
X54275164Y-69388849D01*
X54323500Y-69272154D01*
X54323500Y-69100875D01*
X54244125Y-69021500D01*
X53594500Y-69021500D01*
X53217500Y-69021500D01*
X52567875Y-69021500D01*
X52488500Y-69100875D01*
X49123600Y-69100875D01*
X49123600Y-68454615D01*
X49099257Y-68395846D01*
X52488500Y-68395846D01*
X52488500Y-68567125D01*
X52567875Y-68646500D01*
X53217500Y-68646500D01*
X53217500Y-68220875D01*
X53594500Y-68220875D01*
X53594500Y-68646500D01*
X54244125Y-68646500D01*
X54323500Y-68567125D01*
X54323500Y-68395846D01*
X54275164Y-68279151D01*
X54185850Y-68189837D01*
X54069155Y-68141500D01*
X53673875Y-68141500D01*
X53594500Y-68220875D01*
X53217500Y-68220875D01*
X53138125Y-68141500D01*
X52742845Y-68141500D01*
X52626150Y-68189837D01*
X52536836Y-68279151D01*
X52488500Y-68395846D01*
X49099257Y-68395846D01*
X49075263Y-68337920D01*
X48985949Y-68248606D01*
X48869254Y-68200270D01*
X48273875Y-68200270D01*
X48194500Y-68279645D01*
X47817500Y-68279645D01*
X47738125Y-68200270D01*
X47142746Y-68200270D01*
X47026051Y-68248606D01*
X46936737Y-68337920D01*
X46888400Y-68454615D01*
X44616807Y-68454615D01*
X46937238Y-66134184D01*
X46937238Y-67118230D01*
X46955612Y-67215877D01*
X47013321Y-67305560D01*
X47101375Y-67365725D01*
X47205900Y-67386892D01*
X48806100Y-67386892D01*
X48903747Y-67368518D01*
X48993430Y-67310809D01*
X49053595Y-67222755D01*
X49074762Y-67118230D01*
X49074762Y-66174500D01*
X52241338Y-66174500D01*
X52241338Y-66436000D01*
X52259712Y-66533647D01*
X52317421Y-66623330D01*
X52405475Y-66683495D01*
X52510000Y-66704662D01*
X54010000Y-66704662D01*
X54107647Y-66686288D01*
X54197330Y-66628579D01*
X54257495Y-66540525D01*
X54278662Y-66436000D01*
X54278662Y-65136000D01*
X54260288Y-65038353D01*
X54202579Y-64948670D01*
X54114525Y-64888505D01*
X54010000Y-64867338D01*
X52510000Y-64867338D01*
X52412353Y-64885712D01*
X52322670Y-64943421D01*
X52262505Y-65031475D01*
X52241338Y-65136000D01*
X52241338Y-65397500D01*
X49074762Y-65397500D01*
X49074762Y-64118490D01*
X49056388Y-64020843D01*
X48998679Y-63931160D01*
X48910625Y-63870995D01*
X48806100Y-63849828D01*
X47205900Y-63849828D01*
X47108253Y-63868202D01*
X47018570Y-63925911D01*
X46958405Y-64013965D01*
X46937238Y-64118490D01*
X46937238Y-65153995D01*
X46841328Y-65173072D01*
X46715289Y-65257289D01*
X44035078Y-67937500D01*
X41146070Y-67937500D01*
X41146070Y-67797245D01*
X41068879Y-67409177D01*
X40849056Y-67080189D01*
X40520068Y-66860366D01*
X40132000Y-66783175D01*
X39743932Y-66860366D01*
X39414944Y-67080189D01*
X39195121Y-67409177D01*
X39117930Y-67797245D01*
X38660070Y-67797245D01*
X38660070Y-67638390D01*
X38506632Y-67244006D01*
X38213950Y-66938361D01*
X37942640Y-66818016D01*
X37780500Y-66856331D01*
X37403500Y-66856331D01*
X37241360Y-66818016D01*
X36970050Y-66938361D01*
X36677368Y-67244006D01*
X36523930Y-67638390D01*
X36034472Y-67638390D01*
X35988879Y-67409177D01*
X35769056Y-67080189D01*
X35440068Y-66860366D01*
X35052000Y-66783175D01*
X34663932Y-66860366D01*
X34334944Y-67080189D01*
X34115121Y-67409177D01*
X34037930Y-67797245D01*
X34037930Y-68854755D01*
X34115121Y-69242823D01*
X34334944Y-69571811D01*
X34663500Y-69791345D01*
X34663500Y-71907338D01*
X31830000Y-71907338D01*
X31732353Y-71925712D01*
X31642670Y-71983421D01*
X31582505Y-72071475D01*
X31561338Y-72176000D01*
X29526300Y-72176000D01*
X29526300Y-62732845D01*
X59116500Y-62732845D01*
X59116500Y-65068125D01*
X59195875Y-65147500D01*
X60455500Y-65147500D01*
X60455500Y-62557875D01*
X60832500Y-62557875D01*
X60832500Y-65147500D01*
X62092125Y-65147500D01*
X62171500Y-65068125D01*
X62171500Y-62796000D01*
X63610338Y-62796000D01*
X63610338Y-67876000D01*
X63628712Y-67973647D01*
X63686421Y-68063330D01*
X63774475Y-68123495D01*
X63879000Y-68144662D01*
X64419600Y-68144662D01*
X64419600Y-74369337D01*
X64330453Y-74386112D01*
X64240770Y-74443821D01*
X64180605Y-74531875D01*
X64159438Y-74636400D01*
X64159438Y-76036400D01*
X64177812Y-76134047D01*
X64235521Y-76223730D01*
X64323575Y-76283895D01*
X64428100Y-76305062D01*
X65188100Y-76305062D01*
X65285747Y-76286688D01*
X65375430Y-76228979D01*
X65435595Y-76140925D01*
X65456762Y-76036400D01*
X65456762Y-74636400D01*
X65438388Y-74538753D01*
X65380679Y-74449070D01*
X65292625Y-74388905D01*
X65196600Y-74369459D01*
X65196600Y-68773419D01*
X68585783Y-68773419D01*
X68647078Y-69086734D01*
X68649053Y-69091503D01*
X68765555Y-69147865D01*
X68933704Y-68979717D01*
X68994151Y-69040164D01*
X69110846Y-69088500D01*
X69209625Y-69088500D01*
X69215498Y-69082627D01*
X69215498Y-69088500D01*
X69358079Y-69088500D01*
X69032135Y-69414445D01*
X69088497Y-69530947D01*
X69401419Y-69594217D01*
X69714734Y-69532922D01*
X69719503Y-69530947D01*
X69775865Y-69414445D01*
X69449921Y-69088500D01*
X69592502Y-69088500D01*
X69592502Y-69082627D01*
X69598375Y-69088500D01*
X69697154Y-69088500D01*
X69813849Y-69040164D01*
X69874296Y-68979717D01*
X70042445Y-69147865D01*
X70158947Y-69091503D01*
X70222217Y-68778581D01*
X70160922Y-68465266D01*
X70158947Y-68460497D01*
X70042445Y-68404135D01*
X69902102Y-68544477D01*
X69872125Y-68514500D01*
X69519000Y-68514500D01*
X69519000Y-68534500D01*
X69289000Y-68534500D01*
X69289000Y-68514500D01*
X68935875Y-68514500D01*
X68905898Y-68544477D01*
X68765555Y-68404135D01*
X68649053Y-68460497D01*
X68585783Y-68773419D01*
X65196600Y-68773419D01*
X65196600Y-68144662D01*
X66169000Y-68144662D01*
X66266647Y-68126288D01*
X66356330Y-68068579D01*
X66416495Y-67980525D01*
X66437662Y-67876000D01*
X66437662Y-65603875D01*
X67876500Y-65603875D01*
X67876500Y-67939155D01*
X67924837Y-68055850D01*
X68014151Y-68145164D01*
X68130846Y-68193500D01*
X69088080Y-68193500D01*
X69404000Y-68509421D01*
X69719920Y-68193500D01*
X70677154Y-68193500D01*
X70793849Y-68145164D01*
X70883163Y-68055850D01*
X70931500Y-67939155D01*
X70931500Y-65603875D01*
X70852125Y-65524500D01*
X69592500Y-65524500D01*
X69592500Y-65544500D01*
X69215500Y-65544500D01*
X69215500Y-65524500D01*
X67955875Y-65524500D01*
X67876500Y-65603875D01*
X66437662Y-65603875D01*
X66437662Y-62796000D01*
X66425779Y-62732845D01*
X67876500Y-62732845D01*
X67876500Y-65068125D01*
X67955875Y-65147500D01*
X69215500Y-65147500D01*
X69215500Y-62557875D01*
X69592500Y-62557875D01*
X69592500Y-65147500D01*
X70852125Y-65147500D01*
X70931500Y-65068125D01*
X70931500Y-62732845D01*
X70883163Y-62616150D01*
X70793849Y-62526836D01*
X70677154Y-62478500D01*
X69671875Y-62478500D01*
X69592500Y-62557875D01*
X69215500Y-62557875D01*
X69136125Y-62478500D01*
X68130846Y-62478500D01*
X68014151Y-62526836D01*
X67924837Y-62616150D01*
X67876500Y-62732845D01*
X66425779Y-62732845D01*
X66419288Y-62698353D01*
X66361579Y-62608670D01*
X66273525Y-62548505D01*
X66169000Y-62527338D01*
X63879000Y-62527338D01*
X63781353Y-62545712D01*
X63691670Y-62603421D01*
X63631505Y-62691475D01*
X63610338Y-62796000D01*
X62171500Y-62796000D01*
X62171500Y-62732845D01*
X62123163Y-62616150D01*
X62033849Y-62526836D01*
X61917154Y-62478500D01*
X60911875Y-62478500D01*
X60832500Y-62557875D01*
X60455500Y-62557875D01*
X60376125Y-62478500D01*
X59370846Y-62478500D01*
X59254151Y-62526836D01*
X59164837Y-62616150D01*
X59116500Y-62732845D01*
X29526300Y-62732845D01*
X29526300Y-61631900D01*
X81420900Y-61631900D01*
X81420900Y-107074900D01*
X81420900Y-107074900D01*
G37*
X81420900Y-107074900D02*
X29526300Y-107074900D01*
X29526300Y-102063875D01*
X54798500Y-102063875D01*
X54798500Y-104399155D01*
X54846837Y-104515850D01*
X54936151Y-104605164D01*
X55052846Y-104653500D01*
X56058125Y-104653500D01*
X56137500Y-104574125D01*
X56137500Y-101984500D01*
X56514500Y-101984500D01*
X56514500Y-104574125D01*
X56593875Y-104653500D01*
X57599154Y-104653500D01*
X57715849Y-104605164D01*
X57805163Y-104515850D01*
X57853500Y-104399155D01*
X57853500Y-102063875D01*
X57774125Y-101984500D01*
X56514500Y-101984500D01*
X56137500Y-101984500D01*
X54877875Y-101984500D01*
X54798500Y-102063875D01*
X29526300Y-102063875D01*
X29526300Y-98057875D01*
X31258500Y-98057875D01*
X31258500Y-100353155D01*
X31306837Y-100469850D01*
X31396151Y-100559164D01*
X31512846Y-100607500D01*
X36308125Y-100607500D01*
X36387500Y-100528125D01*
X36387500Y-97978500D01*
X36764500Y-97978500D01*
X36764500Y-100528125D01*
X36843875Y-100607500D01*
X41639154Y-100607500D01*
X41755849Y-100559164D01*
X41845163Y-100469850D01*
X41893500Y-100353155D01*
X41893500Y-99192845D01*
X54798500Y-99192845D01*
X54798500Y-101528125D01*
X54877875Y-101607500D01*
X56137500Y-101607500D01*
X56137500Y-101587500D01*
X56514500Y-101587500D01*
X56514500Y-101607500D01*
X57774125Y-101607500D01*
X57853500Y-101528125D01*
X57853500Y-99256000D01*
X59292338Y-99256000D01*
X59292338Y-104336000D01*
X59310712Y-104433647D01*
X59368421Y-104523330D01*
X59456475Y-104583495D01*
X59561000Y-104604662D01*
X61851000Y-104604662D01*
X61948647Y-104586288D01*
X62038330Y-104528579D01*
X62098495Y-104440525D01*
X62119662Y-104336000D01*
X62119662Y-102063875D01*
X63558500Y-102063875D01*
X63558500Y-104399155D01*
X63606837Y-104515850D01*
X63696151Y-104605164D01*
X63812846Y-104653500D01*
X64818125Y-104653500D01*
X64897500Y-104574125D01*
X64897500Y-101984500D01*
X65274500Y-101984500D01*
X65274500Y-104574125D01*
X65353875Y-104653500D01*
X66359154Y-104653500D01*
X66475849Y-104605164D01*
X66565163Y-104515850D01*
X66613500Y-104399155D01*
X66613500Y-102063875D01*
X66534125Y-101984500D01*
X65274500Y-101984500D01*
X64897500Y-101984500D01*
X63637875Y-101984500D01*
X63558500Y-102063875D01*
X62119662Y-102063875D01*
X62119662Y-99256000D01*
X62107779Y-99192845D01*
X63558500Y-99192845D01*
X63558500Y-101528125D01*
X63637875Y-101607500D01*
X64897500Y-101607500D01*
X64897500Y-101587500D01*
X65274500Y-101587500D01*
X65274500Y-101607500D01*
X66534125Y-101607500D01*
X66613500Y-101528125D01*
X66613500Y-99192845D01*
X66565163Y-99076150D01*
X66475849Y-98986836D01*
X66359154Y-98938500D01*
X65401920Y-98938500D01*
X65086000Y-98622579D01*
X64770080Y-98938500D01*
X63812846Y-98938500D01*
X63696151Y-98986836D01*
X63606837Y-99076150D01*
X63558500Y-99192845D01*
X62107779Y-99192845D01*
X62101288Y-99158353D01*
X62043579Y-99068670D01*
X61955525Y-99008505D01*
X61851000Y-98987338D01*
X61094500Y-98987338D01*
X61094500Y-98353419D01*
X64267783Y-98353419D01*
X64329078Y-98666734D01*
X64331053Y-98671503D01*
X64447555Y-98727865D01*
X64587898Y-98587523D01*
X64617875Y-98617500D01*
X64971000Y-98617500D01*
X64971000Y-98597500D01*
X65201000Y-98597500D01*
X65201000Y-98617500D01*
X65554125Y-98617500D01*
X65584102Y-98587523D01*
X65724445Y-98727865D01*
X65840947Y-98671503D01*
X65904217Y-98358581D01*
X65842922Y-98045266D01*
X65840947Y-98040497D01*
X65724445Y-97984135D01*
X65556296Y-98152283D01*
X65495849Y-98091836D01*
X65379154Y-98043500D01*
X65280375Y-98043500D01*
X65274502Y-98049373D01*
X65274502Y-98043500D01*
X65131921Y-98043500D01*
X65457865Y-97717555D01*
X65401503Y-97601053D01*
X65088581Y-97537783D01*
X64775266Y-97599078D01*
X64770497Y-97601053D01*
X64714135Y-97717555D01*
X65040079Y-98043500D01*
X64897498Y-98043500D01*
X64897498Y-98049373D01*
X64891625Y-98043500D01*
X64792846Y-98043500D01*
X64676151Y-98091836D01*
X64615704Y-98152283D01*
X64447555Y-97984135D01*
X64331053Y-98040497D01*
X64267783Y-98353419D01*
X61094500Y-98353419D01*
X61094500Y-98178500D01*
X62992000Y-98178500D01*
X63140673Y-98148927D01*
X63266711Y-98064711D01*
X63457211Y-97874211D01*
X63541428Y-97748172D01*
X63571000Y-97599500D01*
X63571000Y-96064663D01*
X63660147Y-96047888D01*
X63749830Y-95990179D01*
X63809995Y-95902125D01*
X63831162Y-95797600D01*
X63831162Y-94397600D01*
X63812788Y-94299953D01*
X63755079Y-94210270D01*
X63667025Y-94150105D01*
X63562500Y-94128938D01*
X62802500Y-94128938D01*
X62704853Y-94147312D01*
X62615170Y-94205021D01*
X62555005Y-94293075D01*
X62533838Y-94397600D01*
X62533838Y-95797600D01*
X62552212Y-95895247D01*
X62609921Y-95984930D01*
X62697975Y-96045095D01*
X62794000Y-96064541D01*
X62794000Y-97401500D01*
X60706000Y-97401500D01*
X60557327Y-97431073D01*
X60431289Y-97515289D01*
X60347073Y-97641327D01*
X60317500Y-97790000D01*
X60317500Y-98987338D01*
X59561000Y-98987338D01*
X59463353Y-99005712D01*
X59373670Y-99063421D01*
X59313505Y-99151475D01*
X59292338Y-99256000D01*
X57853500Y-99256000D01*
X57853500Y-99192845D01*
X57805163Y-99076150D01*
X57715849Y-98986836D01*
X57599154Y-98938500D01*
X56641920Y-98938500D01*
X56326000Y-98622579D01*
X56010080Y-98938500D01*
X55052846Y-98938500D01*
X54936151Y-98986836D01*
X54846837Y-99076150D01*
X54798500Y-99192845D01*
X41893500Y-99192845D01*
X41893500Y-98353419D01*
X55507783Y-98353419D01*
X55569078Y-98666734D01*
X55571053Y-98671503D01*
X55687555Y-98727865D01*
X55827898Y-98587523D01*
X55857875Y-98617500D01*
X56211000Y-98617500D01*
X56211000Y-98597500D01*
X56441000Y-98597500D01*
X56441000Y-98617500D01*
X56794125Y-98617500D01*
X56824102Y-98587523D01*
X56964445Y-98727865D01*
X57080947Y-98671503D01*
X57144217Y-98358581D01*
X57082922Y-98045266D01*
X57080947Y-98040497D01*
X56964445Y-97984135D01*
X56796296Y-98152283D01*
X56735849Y-98091836D01*
X56619154Y-98043500D01*
X56520375Y-98043500D01*
X56514502Y-98049373D01*
X56514502Y-98043500D01*
X56371921Y-98043500D01*
X56697865Y-97717555D01*
X56641503Y-97601053D01*
X56328581Y-97537783D01*
X56015266Y-97599078D01*
X56010497Y-97601053D01*
X55954135Y-97717555D01*
X56280079Y-98043500D01*
X56137498Y-98043500D01*
X56137498Y-98049373D01*
X56131625Y-98043500D01*
X56032846Y-98043500D01*
X55916151Y-98091836D01*
X55855704Y-98152283D01*
X55687555Y-97984135D01*
X55571053Y-98040497D01*
X55507783Y-98353419D01*
X41893500Y-98353419D01*
X41893500Y-98057875D01*
X41814125Y-97978500D01*
X36764500Y-97978500D01*
X36387500Y-97978500D01*
X31337875Y-97978500D01*
X31258500Y-98057875D01*
X29526300Y-98057875D01*
X29526300Y-95226845D01*
X31258500Y-95226845D01*
X31258500Y-97522125D01*
X31337875Y-97601500D01*
X36387500Y-97601500D01*
X36387500Y-95051875D01*
X36764500Y-95051875D01*
X36764500Y-97601500D01*
X41814125Y-97601500D01*
X41893500Y-97522125D01*
X41893500Y-95365475D01*
X59970400Y-95365475D01*
X59970400Y-95860754D01*
X60018736Y-95977449D01*
X60108050Y-96066763D01*
X60224745Y-96115100D01*
X60400025Y-96115100D01*
X60479400Y-96035725D01*
X60479400Y-95286100D01*
X60856400Y-95286100D01*
X60856400Y-96035725D01*
X60935775Y-96115100D01*
X61111055Y-96115100D01*
X61227750Y-96066763D01*
X61317064Y-95977449D01*
X61365400Y-95860754D01*
X61365400Y-95365475D01*
X61286025Y-95286100D01*
X60856400Y-95286100D01*
X60479400Y-95286100D01*
X60049775Y-95286100D01*
X59970400Y-95365475D01*
X41893500Y-95365475D01*
X41893500Y-95226845D01*
X41845163Y-95110150D01*
X41755849Y-95020836D01*
X41639154Y-94972500D01*
X36843875Y-94972500D01*
X36764500Y-95051875D01*
X36387500Y-95051875D01*
X36308125Y-94972500D01*
X31512846Y-94972500D01*
X31396151Y-95020836D01*
X31306837Y-95110150D01*
X31258500Y-95226845D01*
X29526300Y-95226845D01*
X29526300Y-93179900D01*
X47085828Y-93179900D01*
X47085828Y-94780100D01*
X47104202Y-94877747D01*
X47161911Y-94967430D01*
X47249965Y-95027595D01*
X47354490Y-95048762D01*
X50354230Y-95048762D01*
X50451877Y-95030388D01*
X50541560Y-94972679D01*
X50601725Y-94884625D01*
X50622892Y-94780100D01*
X50622892Y-93179900D01*
X50604518Y-93082253D01*
X50546809Y-92992570D01*
X50458755Y-92932405D01*
X50452619Y-92931163D01*
X51555282Y-91828500D01*
X54102000Y-91828500D01*
X54250673Y-91798927D01*
X54376711Y-91714711D01*
X59362922Y-86728500D01*
X59737310Y-86728500D01*
X59750475Y-86737495D01*
X59855000Y-86758662D01*
X60561338Y-86758662D01*
X60561338Y-87465000D01*
X60579712Y-87562647D01*
X60591500Y-87580966D01*
X60591500Y-89227078D01*
X60291078Y-89527500D01*
X57150000Y-89527500D01*
X57001327Y-89557073D01*
X56875289Y-89641289D01*
X56791073Y-89767327D01*
X56761500Y-89916000D01*
X56761500Y-93591500D01*
X55022172Y-93591500D01*
X55022172Y-93179900D01*
X55003798Y-93082253D01*
X54946089Y-92992570D01*
X54858035Y-92932405D01*
X54753510Y-92911238D01*
X51753770Y-92911238D01*
X51656123Y-92929612D01*
X51566440Y-92987321D01*
X51506275Y-93075375D01*
X51485108Y-93179900D01*
X51485108Y-94780100D01*
X51503482Y-94877747D01*
X51561191Y-94967430D01*
X51649245Y-95027595D01*
X51753770Y-95048762D01*
X54753510Y-95048762D01*
X54851157Y-95030388D01*
X54940840Y-94972679D01*
X55001005Y-94884625D01*
X55022172Y-94780100D01*
X55022172Y-94368500D01*
X57150000Y-94368500D01*
X57298673Y-94338927D01*
X57305379Y-94334446D01*
X59970400Y-94334446D01*
X59970400Y-94829725D01*
X60049775Y-94909100D01*
X60479400Y-94909100D01*
X60479400Y-94159475D01*
X60856400Y-94159475D01*
X60856400Y-94909100D01*
X61286025Y-94909100D01*
X61365400Y-94829725D01*
X61365400Y-94334446D01*
X61317064Y-94217751D01*
X61227750Y-94128437D01*
X61111055Y-94080100D01*
X60935775Y-94080100D01*
X60856400Y-94159475D01*
X60479400Y-94159475D01*
X60400025Y-94080100D01*
X60224745Y-94080100D01*
X60108050Y-94128437D01*
X60018736Y-94217751D01*
X59970400Y-94334446D01*
X57305379Y-94334446D01*
X57424711Y-94254711D01*
X57508927Y-94128673D01*
X57538500Y-93980000D01*
X57538500Y-90304500D01*
X60452000Y-90304500D01*
X60600673Y-90274927D01*
X60726711Y-90190711D01*
X61254711Y-89662711D01*
X61338928Y-89536672D01*
X61368500Y-89388000D01*
X61368500Y-87739625D01*
X61405000Y-87703125D01*
X61405000Y-87228500D01*
X61398662Y-87228500D01*
X61398662Y-86851500D01*
X61405000Y-86851500D01*
X61405000Y-86707500D01*
X61555000Y-86707500D01*
X61555000Y-86851500D01*
X61561338Y-86851500D01*
X61561338Y-87228500D01*
X61555000Y-87228500D01*
X61555000Y-87703125D01*
X61591500Y-87739625D01*
X61591500Y-89497078D01*
X60431289Y-90657289D01*
X60347073Y-90783327D01*
X60345977Y-90788838D01*
X60287900Y-90788838D01*
X60190253Y-90807212D01*
X60100570Y-90864921D01*
X60040405Y-90952975D01*
X60019238Y-91057500D01*
X60019238Y-92457500D01*
X60037612Y-92555147D01*
X60095321Y-92644830D01*
X60183375Y-92704995D01*
X60287900Y-92726162D01*
X61047900Y-92726162D01*
X61145547Y-92707788D01*
X61235230Y-92650079D01*
X61271825Y-92596521D01*
X61288736Y-92637349D01*
X61378050Y-92726663D01*
X61494745Y-92775000D01*
X61670025Y-92775000D01*
X61749400Y-92695625D01*
X61749400Y-91946000D01*
X61729400Y-91946000D01*
X61729400Y-91569000D01*
X61749400Y-91569000D01*
X61749400Y-90819375D01*
X61670025Y-90740000D01*
X61494745Y-90740000D01*
X61413959Y-90773463D01*
X62234120Y-89953302D01*
X62335327Y-90020927D01*
X62484000Y-90050500D01*
X62819400Y-90050500D01*
X62819400Y-90790437D01*
X62730253Y-90807212D01*
X62640570Y-90864921D01*
X62603975Y-90918479D01*
X62587064Y-90877651D01*
X62497750Y-90788337D01*
X62381055Y-90740000D01*
X62205775Y-90740000D01*
X62126400Y-90819375D01*
X62126400Y-91569000D01*
X62146400Y-91569000D01*
X62146400Y-91946000D01*
X62126400Y-91946000D01*
X62126400Y-92695625D01*
X62205775Y-92775000D01*
X62381055Y-92775000D01*
X62497750Y-92726663D01*
X62587064Y-92637349D01*
X62604077Y-92596275D01*
X62635321Y-92644830D01*
X62723375Y-92704995D01*
X62827900Y-92726162D01*
X63587900Y-92726162D01*
X63685547Y-92707788D01*
X63775230Y-92650079D01*
X63835395Y-92562025D01*
X63856562Y-92457500D01*
X63856562Y-91057500D01*
X63838188Y-90959853D01*
X63780479Y-90870170D01*
X63692425Y-90810005D01*
X63596400Y-90790559D01*
X63596400Y-89823435D01*
X63604928Y-89810672D01*
X63634500Y-89662000D01*
X63604928Y-89513328D01*
X63520711Y-89387289D01*
X63394672Y-89303072D01*
X63246000Y-89273500D01*
X62872500Y-89273500D01*
X62872500Y-89213419D01*
X72391783Y-89213419D01*
X72453078Y-89526734D01*
X72455053Y-89531503D01*
X72571555Y-89587865D01*
X72897500Y-89261921D01*
X72897500Y-89404502D01*
X72903373Y-89404502D01*
X72897500Y-89410375D01*
X72897500Y-89509154D01*
X72945836Y-89625849D01*
X73006283Y-89686296D01*
X72838135Y-89854445D01*
X72894497Y-89970947D01*
X73207419Y-90034217D01*
X73520734Y-89972922D01*
X73525503Y-89970947D01*
X73581865Y-89854445D01*
X73441523Y-89714102D01*
X73471500Y-89684125D01*
X73471500Y-89331000D01*
X73451500Y-89331000D01*
X73451500Y-89216000D01*
X73476579Y-89216000D01*
X73792500Y-89531920D01*
X73792500Y-90489154D01*
X73840836Y-90605849D01*
X73930150Y-90695163D01*
X74046845Y-90743500D01*
X76382125Y-90743500D01*
X76461500Y-90664125D01*
X76461500Y-89404500D01*
X76838500Y-89404500D01*
X76838500Y-90664125D01*
X76917875Y-90743500D01*
X79253155Y-90743500D01*
X79369850Y-90695163D01*
X79459164Y-90605849D01*
X79507500Y-90489154D01*
X79507500Y-89483875D01*
X79428125Y-89404500D01*
X76838500Y-89404500D01*
X76461500Y-89404500D01*
X76441500Y-89404500D01*
X76441500Y-89027500D01*
X76461500Y-89027500D01*
X76461500Y-87767875D01*
X76838500Y-87767875D01*
X76838500Y-89027500D01*
X79428125Y-89027500D01*
X79507500Y-88948125D01*
X79507500Y-87942846D01*
X79459164Y-87826151D01*
X79369850Y-87736837D01*
X79253155Y-87688500D01*
X76917875Y-87688500D01*
X76838500Y-87767875D01*
X76461500Y-87767875D01*
X76382125Y-87688500D01*
X74046845Y-87688500D01*
X73930150Y-87736837D01*
X73840836Y-87826151D01*
X73792500Y-87942846D01*
X73792500Y-88900080D01*
X73476579Y-89216000D01*
X73451500Y-89216000D01*
X73451500Y-89101000D01*
X73471500Y-89101000D01*
X73471500Y-88747875D01*
X73441523Y-88717898D01*
X73581865Y-88577555D01*
X73525503Y-88461053D01*
X73212581Y-88397783D01*
X72899266Y-88459078D01*
X72894497Y-88461053D01*
X72838135Y-88577555D01*
X73006283Y-88745704D01*
X72945836Y-88806151D01*
X72897500Y-88922846D01*
X72897500Y-89021625D01*
X72903373Y-89027498D01*
X72897500Y-89027498D01*
X72897500Y-89170079D01*
X72571555Y-88844135D01*
X72455053Y-88900497D01*
X72391783Y-89213419D01*
X62872500Y-89213419D01*
X62872500Y-89154000D01*
X62868500Y-89133891D01*
X62868500Y-87739625D01*
X62905000Y-87703125D01*
X62905000Y-87307875D01*
X63012500Y-87307875D01*
X63012500Y-87528155D01*
X63055000Y-87630758D01*
X63055000Y-87703125D01*
X63134375Y-87782500D01*
X63193154Y-87782500D01*
X63230000Y-87767238D01*
X63266846Y-87782500D01*
X63325625Y-87782500D01*
X63405000Y-87703125D01*
X63405000Y-87630758D01*
X63447500Y-87528155D01*
X63447500Y-87307875D01*
X63405000Y-87265375D01*
X63405000Y-87228500D01*
X63555000Y-87228500D01*
X63555000Y-87703125D01*
X63634375Y-87782500D01*
X63693154Y-87782500D01*
X63809849Y-87734164D01*
X63899163Y-87644850D01*
X63947500Y-87528155D01*
X63947500Y-87307875D01*
X63868125Y-87228500D01*
X63555000Y-87228500D01*
X63405000Y-87228500D01*
X63055000Y-87228500D01*
X63055000Y-87265375D01*
X63012500Y-87307875D01*
X62905000Y-87307875D01*
X62905000Y-87228500D01*
X62898662Y-87228500D01*
X62898662Y-86851500D01*
X62905000Y-86851500D01*
X62905000Y-86707500D01*
X63012500Y-86707500D01*
X63012500Y-86772125D01*
X63055000Y-86814625D01*
X63055000Y-86851500D01*
X63405000Y-86851500D01*
X63405000Y-86831500D01*
X63555000Y-86831500D01*
X63555000Y-86851500D01*
X63868125Y-86851500D01*
X63947500Y-86772125D01*
X63947500Y-86758662D01*
X64605000Y-86758662D01*
X64702647Y-86740288D01*
X64792330Y-86682579D01*
X64852495Y-86594525D01*
X64873662Y-86490000D01*
X64873662Y-86190000D01*
X64870550Y-86173463D01*
X64874164Y-86169849D01*
X64922500Y-86053154D01*
X64922500Y-85994375D01*
X64843125Y-85915000D01*
X64368500Y-85915000D01*
X64368500Y-85921338D01*
X63991500Y-85921338D01*
X63991500Y-85915000D01*
X63847500Y-85915000D01*
X63847500Y-85765000D01*
X63991500Y-85765000D01*
X63991500Y-85758662D01*
X64368500Y-85758662D01*
X64368500Y-85765000D01*
X64843125Y-85765000D01*
X64922500Y-85685625D01*
X64922500Y-85626846D01*
X64874164Y-85510151D01*
X64870353Y-85506340D01*
X64873662Y-85490000D01*
X64873662Y-85228500D01*
X67780631Y-85228500D01*
X67795712Y-85308647D01*
X67853421Y-85398330D01*
X67941475Y-85458495D01*
X68046000Y-85479662D01*
X69246000Y-85479662D01*
X69343647Y-85461288D01*
X69433330Y-85403579D01*
X69493495Y-85315525D01*
X69514662Y-85211000D01*
X69514662Y-84461000D01*
X69677338Y-84461000D01*
X69677338Y-85211000D01*
X69695712Y-85308647D01*
X69753421Y-85398330D01*
X69841475Y-85458495D01*
X69946000Y-85479662D01*
X71146000Y-85479662D01*
X71243647Y-85461288D01*
X71333330Y-85403579D01*
X71393495Y-85315525D01*
X71411928Y-85224500D01*
X73841338Y-85224500D01*
X73841338Y-85981000D01*
X73859712Y-86078647D01*
X73917421Y-86168330D01*
X74005475Y-86228495D01*
X74110000Y-86249662D01*
X79190000Y-86249662D01*
X79287647Y-86231288D01*
X79377330Y-86173579D01*
X79437495Y-86085525D01*
X79458662Y-85981000D01*
X79458662Y-83691000D01*
X79440288Y-83593353D01*
X79382579Y-83503670D01*
X79294525Y-83443505D01*
X79190000Y-83422338D01*
X74110000Y-83422338D01*
X74012353Y-83440712D01*
X73922670Y-83498421D01*
X73862505Y-83586475D01*
X73841338Y-83691000D01*
X73841338Y-84447500D01*
X71412122Y-84447500D01*
X71396288Y-84363353D01*
X71338579Y-84273670D01*
X71250525Y-84213505D01*
X71146000Y-84192338D01*
X69946000Y-84192338D01*
X69848353Y-84210712D01*
X69758670Y-84268421D01*
X69698505Y-84356475D01*
X69677338Y-84461000D01*
X69514662Y-84461000D01*
X69496288Y-84363353D01*
X69438579Y-84273670D01*
X69350525Y-84213505D01*
X69246000Y-84192338D01*
X68046000Y-84192338D01*
X67948353Y-84210712D01*
X67858670Y-84268421D01*
X67798505Y-84356475D01*
X67779262Y-84451500D01*
X64879625Y-84451500D01*
X64843125Y-84415000D01*
X64368500Y-84415000D01*
X64368500Y-84421338D01*
X63991500Y-84421338D01*
X63991500Y-84415000D01*
X63847500Y-84415000D01*
X63847500Y-84265000D01*
X63991500Y-84265000D01*
X63991500Y-84258662D01*
X64368500Y-84258662D01*
X64368500Y-84265000D01*
X64843125Y-84265000D01*
X64922500Y-84185625D01*
X64922500Y-84183006D01*
X65024711Y-84114711D01*
X66520922Y-82618500D01*
X67428338Y-82618500D01*
X67428338Y-82830000D01*
X67446712Y-82927647D01*
X67504421Y-83017330D01*
X67592475Y-83077495D01*
X67697000Y-83098662D01*
X68447000Y-83098662D01*
X68544647Y-83080288D01*
X68634330Y-83022579D01*
X68694495Y-82934525D01*
X68715662Y-82830000D01*
X68715662Y-82618500D01*
X70476338Y-82618500D01*
X70476338Y-82830000D01*
X70494712Y-82927647D01*
X70552421Y-83017330D01*
X70640475Y-83077495D01*
X70745000Y-83098662D01*
X71495000Y-83098662D01*
X71592647Y-83080288D01*
X71682330Y-83022579D01*
X71742495Y-82934525D01*
X71763662Y-82830000D01*
X71763662Y-81630000D01*
X71745288Y-81532353D01*
X71687579Y-81442670D01*
X71599525Y-81382505D01*
X71495000Y-81361338D01*
X70745000Y-81361338D01*
X70647353Y-81379712D01*
X70557670Y-81437421D01*
X70497505Y-81525475D01*
X70476338Y-81630000D01*
X70476338Y-81841500D01*
X68715662Y-81841500D01*
X68715662Y-81630000D01*
X68697288Y-81532353D01*
X68639579Y-81442670D01*
X68551525Y-81382505D01*
X68447000Y-81361338D01*
X67697000Y-81361338D01*
X67599353Y-81379712D01*
X67509670Y-81437421D01*
X67449505Y-81525475D01*
X67428338Y-81630000D01*
X67428338Y-81841500D01*
X66748500Y-81841500D01*
X66748500Y-80597875D01*
X67379500Y-80597875D01*
X67379500Y-80993155D01*
X67427837Y-81109850D01*
X67517151Y-81199164D01*
X67633846Y-81247500D01*
X67805125Y-81247500D01*
X67884500Y-81168125D01*
X67884500Y-80518500D01*
X68259500Y-80518500D01*
X68259500Y-81168125D01*
X68338875Y-81247500D01*
X68510154Y-81247500D01*
X68626849Y-81199164D01*
X68716163Y-81109850D01*
X68764500Y-80993155D01*
X68764500Y-80597875D01*
X70427500Y-80597875D01*
X70427500Y-80993155D01*
X70475837Y-81109850D01*
X70565151Y-81199164D01*
X70681846Y-81247500D01*
X70853125Y-81247500D01*
X70932500Y-81168125D01*
X70932500Y-80518500D01*
X71307500Y-80518500D01*
X71307500Y-81168125D01*
X71386875Y-81247500D01*
X71558154Y-81247500D01*
X71674849Y-81199164D01*
X71764163Y-81109850D01*
X71812500Y-80993155D01*
X71812500Y-80597875D01*
X71733125Y-80518500D01*
X71307500Y-80518500D01*
X70932500Y-80518500D01*
X70506875Y-80518500D01*
X70427500Y-80597875D01*
X68764500Y-80597875D01*
X68685125Y-80518500D01*
X68259500Y-80518500D01*
X67884500Y-80518500D01*
X67458875Y-80518500D01*
X67379500Y-80597875D01*
X66748500Y-80597875D01*
X66748500Y-80453419D01*
X72391783Y-80453419D01*
X72453078Y-80766734D01*
X72455053Y-80771503D01*
X72571555Y-80827865D01*
X72897500Y-80501921D01*
X72897500Y-80644502D01*
X72903373Y-80644502D01*
X72897500Y-80650375D01*
X72897500Y-80749154D01*
X72945836Y-80865849D01*
X73006283Y-80926296D01*
X72838135Y-81094445D01*
X72894497Y-81210947D01*
X73207419Y-81274217D01*
X73520734Y-81212922D01*
X73525503Y-81210947D01*
X73581865Y-81094445D01*
X73441523Y-80954102D01*
X73471500Y-80924125D01*
X73471500Y-80571000D01*
X73451500Y-80571000D01*
X73451500Y-80456000D01*
X73476579Y-80456000D01*
X73792500Y-80771920D01*
X73792500Y-81729154D01*
X73840836Y-81845849D01*
X73930150Y-81935163D01*
X74046845Y-81983500D01*
X76382125Y-81983500D01*
X76461500Y-81904125D01*
X76461500Y-80644500D01*
X76838500Y-80644500D01*
X76838500Y-81904125D01*
X76917875Y-81983500D01*
X79253155Y-81983500D01*
X79369850Y-81935163D01*
X79459164Y-81845849D01*
X79507500Y-81729154D01*
X79507500Y-80723875D01*
X79428125Y-80644500D01*
X76838500Y-80644500D01*
X76461500Y-80644500D01*
X76441500Y-80644500D01*
X76441500Y-80267500D01*
X76461500Y-80267500D01*
X76461500Y-79007875D01*
X76838500Y-79007875D01*
X76838500Y-80267500D01*
X79428125Y-80267500D01*
X79507500Y-80188125D01*
X79507500Y-79182846D01*
X79459164Y-79066151D01*
X79369850Y-78976837D01*
X79253155Y-78928500D01*
X76917875Y-78928500D01*
X76838500Y-79007875D01*
X76461500Y-79007875D01*
X76382125Y-78928500D01*
X74046845Y-78928500D01*
X73930150Y-78976837D01*
X73840836Y-79066151D01*
X73792500Y-79182846D01*
X73792500Y-80140080D01*
X73476579Y-80456000D01*
X73451500Y-80456000D01*
X73451500Y-80341000D01*
X73471500Y-80341000D01*
X73471500Y-79987875D01*
X73441523Y-79957898D01*
X73581865Y-79817555D01*
X73525503Y-79701053D01*
X73212581Y-79637783D01*
X72899266Y-79699078D01*
X72894497Y-79701053D01*
X72838135Y-79817555D01*
X73006283Y-79985704D01*
X72945836Y-80046151D01*
X72897500Y-80162846D01*
X72897500Y-80261625D01*
X72903373Y-80267498D01*
X72897500Y-80267498D01*
X72897500Y-80410079D01*
X72571555Y-80084135D01*
X72455053Y-80140497D01*
X72391783Y-80453419D01*
X66748500Y-80453419D01*
X66748500Y-79666845D01*
X67379500Y-79666845D01*
X67379500Y-80062125D01*
X67458875Y-80141500D01*
X67884500Y-80141500D01*
X67884500Y-79491875D01*
X68259500Y-79491875D01*
X68259500Y-80141500D01*
X68685125Y-80141500D01*
X68764500Y-80062125D01*
X68764500Y-79666845D01*
X70427500Y-79666845D01*
X70427500Y-80062125D01*
X70506875Y-80141500D01*
X70932500Y-80141500D01*
X70932500Y-79491875D01*
X71307500Y-79491875D01*
X71307500Y-80141500D01*
X71733125Y-80141500D01*
X71812500Y-80062125D01*
X71812500Y-79666845D01*
X71764163Y-79550150D01*
X71674849Y-79460836D01*
X71558154Y-79412500D01*
X71386875Y-79412500D01*
X71307500Y-79491875D01*
X70932500Y-79491875D01*
X70853125Y-79412500D01*
X70681846Y-79412500D01*
X70565151Y-79460836D01*
X70475837Y-79550150D01*
X70427500Y-79666845D01*
X68764500Y-79666845D01*
X68716163Y-79550150D01*
X68626849Y-79460836D01*
X68510154Y-79412500D01*
X68338875Y-79412500D01*
X68259500Y-79491875D01*
X67884500Y-79491875D01*
X67805125Y-79412500D01*
X67633846Y-79412500D01*
X67517151Y-79460836D01*
X67427837Y-79550150D01*
X67379500Y-79666845D01*
X66748500Y-79666845D01*
X66748500Y-76774000D01*
X66718927Y-76625327D01*
X66634711Y-76499289D01*
X66568711Y-76433289D01*
X66541449Y-76415073D01*
X66442673Y-76349073D01*
X66294000Y-76319500D01*
X62819703Y-76319500D01*
X62853350Y-76305563D01*
X62942664Y-76216249D01*
X62991000Y-76099554D01*
X62991000Y-75604275D01*
X62911625Y-75524900D01*
X62482000Y-75524900D01*
X62482000Y-75544900D01*
X62105000Y-75544900D01*
X62105000Y-75524900D01*
X61675375Y-75524900D01*
X61596000Y-75604275D01*
X61596000Y-76099554D01*
X61644336Y-76216249D01*
X61733650Y-76305563D01*
X61767297Y-76319500D01*
X59250500Y-76319500D01*
X59250500Y-74864000D01*
X59220927Y-74715327D01*
X59136711Y-74589289D01*
X59120668Y-74573246D01*
X61596000Y-74573246D01*
X61596000Y-75068525D01*
X61675375Y-75147900D01*
X62105000Y-75147900D01*
X62105000Y-74398275D01*
X62482000Y-74398275D01*
X62482000Y-75147900D01*
X62911625Y-75147900D01*
X62991000Y-75068525D01*
X62991000Y-74573246D01*
X62942664Y-74456551D01*
X62853350Y-74367237D01*
X62736655Y-74318900D01*
X62561375Y-74318900D01*
X62482000Y-74398275D01*
X62105000Y-74398275D01*
X62025625Y-74318900D01*
X61850345Y-74318900D01*
X61733650Y-74367237D01*
X61644336Y-74456551D01*
X61596000Y-74573246D01*
X59120668Y-74573246D01*
X58948711Y-74401289D01*
X58898498Y-74367738D01*
X58822673Y-74317073D01*
X58674000Y-74287500D01*
X55694500Y-74287500D01*
X55694500Y-69477662D01*
X55906000Y-69477662D01*
X56003647Y-69459288D01*
X56093330Y-69401579D01*
X56153495Y-69313525D01*
X56174662Y-69209000D01*
X56174662Y-68773419D01*
X59825783Y-68773419D01*
X59887078Y-69086734D01*
X59889053Y-69091503D01*
X60005555Y-69147865D01*
X60173704Y-68979717D01*
X60234151Y-69040164D01*
X60350846Y-69088500D01*
X60449625Y-69088500D01*
X60455498Y-69082627D01*
X60455498Y-69088500D01*
X60598079Y-69088500D01*
X60272135Y-69414445D01*
X60328497Y-69530947D01*
X60641419Y-69594217D01*
X60954734Y-69532922D01*
X60959503Y-69530947D01*
X61015865Y-69414445D01*
X60689921Y-69088500D01*
X60832502Y-69088500D01*
X60832502Y-69082627D01*
X60838375Y-69088500D01*
X60937154Y-69088500D01*
X61053849Y-69040164D01*
X61114296Y-68979717D01*
X61282445Y-69147865D01*
X61398947Y-69091503D01*
X61462217Y-68778581D01*
X61400922Y-68465266D01*
X61398947Y-68460497D01*
X61282445Y-68404135D01*
X61142102Y-68544477D01*
X61112125Y-68514500D01*
X60759000Y-68514500D01*
X60759000Y-68534500D01*
X60529000Y-68534500D01*
X60529000Y-68514500D01*
X60175875Y-68514500D01*
X60145898Y-68544477D01*
X60005555Y-68404135D01*
X59889053Y-68460497D01*
X59825783Y-68773419D01*
X56174662Y-68773419D01*
X56174662Y-68459000D01*
X56156288Y-68361353D01*
X56098579Y-68271670D01*
X56010525Y-68211505D01*
X55906000Y-68190338D01*
X55694500Y-68190338D01*
X55694500Y-67790922D01*
X56234711Y-67250711D01*
X56318928Y-67124672D01*
X56348500Y-66976000D01*
X56348500Y-66704662D01*
X56710000Y-66704662D01*
X56807647Y-66686288D01*
X56897330Y-66628579D01*
X56957495Y-66540525D01*
X56978662Y-66436000D01*
X56978662Y-65603875D01*
X59116500Y-65603875D01*
X59116500Y-67939155D01*
X59164837Y-68055850D01*
X59254151Y-68145164D01*
X59370846Y-68193500D01*
X60328080Y-68193500D01*
X60644000Y-68509421D01*
X60959920Y-68193500D01*
X61917154Y-68193500D01*
X62033849Y-68145164D01*
X62123163Y-68055850D01*
X62171500Y-67939155D01*
X62171500Y-65603875D01*
X62092125Y-65524500D01*
X60832500Y-65524500D01*
X60832500Y-65544500D01*
X60455500Y-65544500D01*
X60455500Y-65524500D01*
X59195875Y-65524500D01*
X59116500Y-65603875D01*
X56978662Y-65603875D01*
X56978662Y-65136000D01*
X56960288Y-65038353D01*
X56902579Y-64948670D01*
X56814525Y-64888505D01*
X56710000Y-64867338D01*
X55210000Y-64867338D01*
X55112353Y-64885712D01*
X55022670Y-64943421D01*
X54962505Y-65031475D01*
X54941338Y-65136000D01*
X54941338Y-66436000D01*
X54959712Y-66533647D01*
X55017421Y-66623330D01*
X55105475Y-66683495D01*
X55210000Y-66704662D01*
X55571500Y-66704662D01*
X55571500Y-66815078D01*
X55031289Y-67355289D01*
X54947073Y-67481327D01*
X54917500Y-67630000D01*
X54917500Y-68190338D01*
X54706000Y-68190338D01*
X54608353Y-68208712D01*
X54518670Y-68266421D01*
X54458505Y-68354475D01*
X54437338Y-68459000D01*
X54437338Y-69209000D01*
X54455712Y-69306647D01*
X54513421Y-69396330D01*
X54601475Y-69456495D01*
X54706000Y-69477662D01*
X54917500Y-69477662D01*
X54917500Y-74610000D01*
X54947073Y-74758673D01*
X55017450Y-74864000D01*
X55031289Y-74884711D01*
X55097289Y-74950711D01*
X55223327Y-75034927D01*
X55372000Y-75064500D01*
X58473500Y-75064500D01*
X58473500Y-78350338D01*
X58262000Y-78350338D01*
X58164353Y-78368712D01*
X58074670Y-78426421D01*
X58014505Y-78514475D01*
X57993338Y-78619000D01*
X57993338Y-79369000D01*
X58011712Y-79466647D01*
X58069421Y-79556330D01*
X58157475Y-79616495D01*
X58262000Y-79637662D01*
X58473500Y-79637662D01*
X58473500Y-81119078D01*
X58448240Y-81144338D01*
X57754000Y-81144338D01*
X57656353Y-81162712D01*
X57566670Y-81220421D01*
X57506505Y-81308475D01*
X57485338Y-81413000D01*
X57485338Y-82163000D01*
X57503712Y-82260647D01*
X57561421Y-82350330D01*
X57649475Y-82410495D01*
X57754000Y-82431662D01*
X58954000Y-82431662D01*
X59051647Y-82413288D01*
X59141330Y-82355579D01*
X59201495Y-82267525D01*
X59219928Y-82176500D01*
X60591500Y-82176500D01*
X60591500Y-82597310D01*
X60582505Y-82610475D01*
X60561338Y-82715000D01*
X60561338Y-83421338D01*
X59855000Y-83421338D01*
X59757353Y-83439712D01*
X59667670Y-83497421D01*
X59607505Y-83585475D01*
X59586338Y-83690000D01*
X59586338Y-83990000D01*
X59589450Y-84006537D01*
X59585836Y-84010151D01*
X59537500Y-84126846D01*
X59537500Y-84185625D01*
X59616875Y-84265000D01*
X60091500Y-84265000D01*
X60091500Y-84258662D01*
X60468500Y-84258662D01*
X60468500Y-84265000D01*
X60612500Y-84265000D01*
X60612500Y-84415000D01*
X60468500Y-84415000D01*
X60468500Y-84421338D01*
X60091500Y-84421338D01*
X60091500Y-84415000D01*
X59616875Y-84415000D01*
X59580375Y-84451500D01*
X53645491Y-84451500D01*
X53620000Y-84446338D01*
X52420000Y-84446338D01*
X52322353Y-84464712D01*
X52232670Y-84522421D01*
X52172505Y-84610475D01*
X52151338Y-84715000D01*
X52151338Y-85465000D01*
X52169712Y-85562647D01*
X52227421Y-85652330D01*
X52315475Y-85712495D01*
X52420000Y-85733662D01*
X53620000Y-85733662D01*
X53717647Y-85715288D01*
X53807330Y-85657579D01*
X53867495Y-85569525D01*
X53888662Y-85465000D01*
X53888662Y-85228500D01*
X57478078Y-85228500D01*
X55973078Y-86733500D01*
X53886122Y-86733500D01*
X53870288Y-86649353D01*
X53812579Y-86559670D01*
X53724525Y-86499505D01*
X53620000Y-86478338D01*
X52420000Y-86478338D01*
X52322353Y-86496712D01*
X52232670Y-86554421D01*
X52172505Y-86642475D01*
X52151338Y-86747000D01*
X52151338Y-87497000D01*
X52169712Y-87594647D01*
X52227421Y-87684330D01*
X52315475Y-87744495D01*
X52420000Y-87765662D01*
X53620000Y-87765662D01*
X53717647Y-87747288D01*
X53807330Y-87689579D01*
X53867495Y-87601525D01*
X53885928Y-87510500D01*
X56134000Y-87510500D01*
X56282673Y-87480927D01*
X56408711Y-87396711D01*
X58076922Y-85728500D01*
X59580375Y-85728500D01*
X59616875Y-85765000D01*
X60091500Y-85765000D01*
X60091500Y-85758662D01*
X60468500Y-85758662D01*
X60468500Y-85765000D01*
X60612500Y-85765000D01*
X60612500Y-85915000D01*
X60468500Y-85915000D01*
X60468500Y-85921338D01*
X60091500Y-85921338D01*
X60091500Y-85915000D01*
X59616875Y-85915000D01*
X59580375Y-85951500D01*
X59202000Y-85951500D01*
X59053327Y-85981073D01*
X58945450Y-86053154D01*
X58927289Y-86065289D01*
X53941078Y-91051500D01*
X51394360Y-91051500D01*
X51245687Y-91081073D01*
X51119649Y-91165289D01*
X49373700Y-92911238D01*
X47354490Y-92911238D01*
X47256843Y-92929612D01*
X47167160Y-92987321D01*
X47106995Y-93075375D01*
X47085828Y-93179900D01*
X29526300Y-93179900D01*
X29526300Y-89737875D01*
X31744500Y-89737875D01*
X31744500Y-90743154D01*
X31792836Y-90859849D01*
X31882150Y-90949163D01*
X31998845Y-90997500D01*
X34334125Y-90997500D01*
X34413500Y-90918125D01*
X34413500Y-89658500D01*
X31823875Y-89658500D01*
X31744500Y-89737875D01*
X29526300Y-89737875D01*
X29526300Y-88196846D01*
X31744500Y-88196846D01*
X31744500Y-89202125D01*
X31823875Y-89281500D01*
X34413500Y-89281500D01*
X34413500Y-88021875D01*
X34790500Y-88021875D01*
X34790500Y-89281500D01*
X34810500Y-89281500D01*
X34810500Y-89658500D01*
X34790500Y-89658500D01*
X34790500Y-90918125D01*
X34869875Y-90997500D01*
X37205155Y-90997500D01*
X37321850Y-90949163D01*
X37411164Y-90859849D01*
X37459500Y-90743154D01*
X37459500Y-89785920D01*
X37775421Y-89470000D01*
X37459500Y-89154080D01*
X37459500Y-88831555D01*
X37670135Y-88831555D01*
X37810477Y-88971898D01*
X37780500Y-89001875D01*
X37780500Y-89355000D01*
X37800500Y-89355000D01*
X37800500Y-89585000D01*
X37780500Y-89585000D01*
X37780500Y-89938125D01*
X37810477Y-89968102D01*
X37670135Y-90108445D01*
X37726497Y-90224947D01*
X38039419Y-90288217D01*
X38352734Y-90226922D01*
X38357503Y-90224947D01*
X38413865Y-90108445D01*
X38245717Y-89940296D01*
X38306164Y-89879849D01*
X38354500Y-89763154D01*
X38354500Y-89664375D01*
X38348627Y-89658502D01*
X38354500Y-89658502D01*
X38354500Y-89515921D01*
X38680445Y-89841865D01*
X38796947Y-89785503D01*
X38860217Y-89472581D01*
X38798922Y-89159266D01*
X38796947Y-89154497D01*
X38680445Y-89098135D01*
X38354500Y-89424079D01*
X38354500Y-89281498D01*
X38348627Y-89281498D01*
X38354500Y-89275625D01*
X38354500Y-89176846D01*
X38306164Y-89060151D01*
X38245717Y-88999704D01*
X38413865Y-88831555D01*
X38357503Y-88715053D01*
X38044581Y-88651783D01*
X37731266Y-88713078D01*
X37726497Y-88715053D01*
X37670135Y-88831555D01*
X37459500Y-88831555D01*
X37459500Y-88196846D01*
X37411164Y-88080151D01*
X37321850Y-87990837D01*
X37205155Y-87942500D01*
X34869875Y-87942500D01*
X34790500Y-88021875D01*
X34413500Y-88021875D01*
X34334125Y-87942500D01*
X31998845Y-87942500D01*
X31882150Y-87990837D01*
X31792836Y-88080151D01*
X31744500Y-88196846D01*
X29526300Y-88196846D01*
X29526300Y-86747000D01*
X50251338Y-86747000D01*
X50251338Y-87497000D01*
X50269712Y-87594647D01*
X50327421Y-87684330D01*
X50415475Y-87744495D01*
X50520000Y-87765662D01*
X50731500Y-87765662D01*
X50731500Y-88689338D01*
X50624000Y-88689338D01*
X50526353Y-88707712D01*
X50436670Y-88765421D01*
X50376505Y-88853475D01*
X50355338Y-88958000D01*
X50355338Y-89858000D01*
X50373712Y-89955647D01*
X50431421Y-90045330D01*
X50519475Y-90105495D01*
X50624000Y-90126662D01*
X51824000Y-90126662D01*
X51921647Y-90108288D01*
X52011330Y-90050579D01*
X52071495Y-89962525D01*
X52092662Y-89858000D01*
X52092662Y-89675875D01*
X52506500Y-89675875D01*
X52506500Y-89921154D01*
X52554836Y-90037849D01*
X52644150Y-90127163D01*
X52760845Y-90175500D01*
X53156125Y-90175500D01*
X53235500Y-90096125D01*
X53235500Y-89596500D01*
X53612500Y-89596500D01*
X53612500Y-90096125D01*
X53691875Y-90175500D01*
X54087155Y-90175500D01*
X54203850Y-90127163D01*
X54293164Y-90037849D01*
X54341500Y-89921154D01*
X54341500Y-89675875D01*
X54262125Y-89596500D01*
X53612500Y-89596500D01*
X53235500Y-89596500D01*
X52585875Y-89596500D01*
X52506500Y-89675875D01*
X52092662Y-89675875D01*
X52092662Y-88958000D01*
X52080779Y-88894846D01*
X52506500Y-88894846D01*
X52506500Y-89140125D01*
X52585875Y-89219500D01*
X53235500Y-89219500D01*
X53235500Y-88719875D01*
X53612500Y-88719875D01*
X53612500Y-89219500D01*
X54262125Y-89219500D01*
X54341500Y-89140125D01*
X54341500Y-88894846D01*
X54293164Y-88778151D01*
X54203850Y-88688837D01*
X54087155Y-88640500D01*
X53691875Y-88640500D01*
X53612500Y-88719875D01*
X53235500Y-88719875D01*
X53156125Y-88640500D01*
X52760845Y-88640500D01*
X52644150Y-88688837D01*
X52554836Y-88778151D01*
X52506500Y-88894846D01*
X52080779Y-88894846D01*
X52074288Y-88860353D01*
X52016579Y-88770670D01*
X51928525Y-88710505D01*
X51824000Y-88689338D01*
X51508500Y-88689338D01*
X51508500Y-87765662D01*
X51720000Y-87765662D01*
X51817647Y-87747288D01*
X51907330Y-87689579D01*
X51967495Y-87601525D01*
X51988662Y-87497000D01*
X51988662Y-86747000D01*
X51970288Y-86649353D01*
X51912579Y-86559670D01*
X51824525Y-86499505D01*
X51720000Y-86478338D01*
X50520000Y-86478338D01*
X50422353Y-86496712D01*
X50332670Y-86554421D01*
X50272505Y-86642475D01*
X50251338Y-86747000D01*
X29526300Y-86747000D01*
X29526300Y-83945000D01*
X31793338Y-83945000D01*
X31793338Y-86235000D01*
X31811712Y-86332647D01*
X31869421Y-86422330D01*
X31957475Y-86482495D01*
X32062000Y-86503662D01*
X37142000Y-86503662D01*
X37239647Y-86485288D01*
X37329330Y-86427579D01*
X37389495Y-86339525D01*
X37410662Y-86235000D01*
X37410662Y-85478500D01*
X50253878Y-85478500D01*
X50269712Y-85562647D01*
X50327421Y-85652330D01*
X50415475Y-85712495D01*
X50520000Y-85733662D01*
X51720000Y-85733662D01*
X51817647Y-85715288D01*
X51907330Y-85657579D01*
X51967495Y-85569525D01*
X51988662Y-85465000D01*
X51988662Y-84715000D01*
X51970288Y-84617353D01*
X51912579Y-84527670D01*
X51824525Y-84467505D01*
X51720000Y-84446338D01*
X50520000Y-84446338D01*
X50422353Y-84464712D01*
X50332670Y-84522421D01*
X50272505Y-84610475D01*
X50254072Y-84701500D01*
X37410662Y-84701500D01*
X37410662Y-83945000D01*
X37392288Y-83847353D01*
X37334579Y-83757670D01*
X37246525Y-83697505D01*
X37142000Y-83676338D01*
X32062000Y-83676338D01*
X31964353Y-83694712D01*
X31874670Y-83752421D01*
X31814505Y-83840475D01*
X31793338Y-83945000D01*
X29526300Y-83945000D01*
X29526300Y-80977875D01*
X31744500Y-80977875D01*
X31744500Y-81983154D01*
X31792836Y-82099849D01*
X31882150Y-82189163D01*
X31998845Y-82237500D01*
X34334125Y-82237500D01*
X34413500Y-82158125D01*
X34413500Y-80898500D01*
X31823875Y-80898500D01*
X31744500Y-80977875D01*
X29526300Y-80977875D01*
X29526300Y-79436846D01*
X31744500Y-79436846D01*
X31744500Y-80442125D01*
X31823875Y-80521500D01*
X34413500Y-80521500D01*
X34413500Y-79261875D01*
X34790500Y-79261875D01*
X34790500Y-80521500D01*
X34810500Y-80521500D01*
X34810500Y-80898500D01*
X34790500Y-80898500D01*
X34790500Y-82158125D01*
X34869875Y-82237500D01*
X37205155Y-82237500D01*
X37321850Y-82189163D01*
X37411164Y-82099849D01*
X37429792Y-82054875D01*
X55536500Y-82054875D01*
X55536500Y-82226154D01*
X55584836Y-82342849D01*
X55674150Y-82432163D01*
X55790845Y-82480500D01*
X56186125Y-82480500D01*
X56265500Y-82401125D01*
X56265500Y-81975500D01*
X56642500Y-81975500D01*
X56642500Y-82401125D01*
X56721875Y-82480500D01*
X57117155Y-82480500D01*
X57233850Y-82432163D01*
X57323164Y-82342849D01*
X57371500Y-82226154D01*
X57371500Y-82054875D01*
X57292125Y-81975500D01*
X56642500Y-81975500D01*
X56265500Y-81975500D01*
X55615875Y-81975500D01*
X55536500Y-82054875D01*
X37429792Y-82054875D01*
X37459500Y-81983154D01*
X37459500Y-81025920D01*
X37775421Y-80710000D01*
X37459500Y-80394080D01*
X37459500Y-80071555D01*
X37670135Y-80071555D01*
X37810477Y-80211898D01*
X37780500Y-80241875D01*
X37780500Y-80595000D01*
X37800500Y-80595000D01*
X37800500Y-80825000D01*
X37780500Y-80825000D01*
X37780500Y-81178125D01*
X37810477Y-81208102D01*
X37670135Y-81348445D01*
X37726497Y-81464947D01*
X38039419Y-81528217D01*
X38352734Y-81466922D01*
X38357503Y-81464947D01*
X38413187Y-81349846D01*
X55536500Y-81349846D01*
X55536500Y-81521125D01*
X55615875Y-81600500D01*
X56265500Y-81600500D01*
X56265500Y-81174875D01*
X56642500Y-81174875D01*
X56642500Y-81600500D01*
X57292125Y-81600500D01*
X57371500Y-81521125D01*
X57371500Y-81349846D01*
X57323164Y-81233151D01*
X57233850Y-81143837D01*
X57117155Y-81095500D01*
X56721875Y-81095500D01*
X56642500Y-81174875D01*
X56265500Y-81174875D01*
X56186125Y-81095500D01*
X55790845Y-81095500D01*
X55674150Y-81143837D01*
X55584836Y-81233151D01*
X55536500Y-81349846D01*
X38413187Y-81349846D01*
X38413865Y-81348445D01*
X38245717Y-81180296D01*
X38306164Y-81119849D01*
X38354500Y-81003154D01*
X38354500Y-80904375D01*
X38348627Y-80898502D01*
X38354500Y-80898502D01*
X38354500Y-80755921D01*
X38680445Y-81081865D01*
X38796947Y-81025503D01*
X38860217Y-80712581D01*
X38798922Y-80399266D01*
X38796947Y-80394497D01*
X38680445Y-80338135D01*
X38354500Y-80664079D01*
X38354500Y-80521498D01*
X38348627Y-80521498D01*
X38354500Y-80515625D01*
X38354500Y-80416846D01*
X38306164Y-80300151D01*
X38245717Y-80239704D01*
X38413865Y-80071555D01*
X38357503Y-79955053D01*
X38044581Y-79891783D01*
X37731266Y-79953078D01*
X37726497Y-79955053D01*
X37670135Y-80071555D01*
X37459500Y-80071555D01*
X37459500Y-79436846D01*
X37411164Y-79320151D01*
X37351888Y-79260875D01*
X56044500Y-79260875D01*
X56044500Y-79432154D01*
X56092836Y-79548849D01*
X56182150Y-79638163D01*
X56298845Y-79686500D01*
X56694125Y-79686500D01*
X56773500Y-79607125D01*
X56773500Y-79181500D01*
X57150500Y-79181500D01*
X57150500Y-79607125D01*
X57229875Y-79686500D01*
X57625155Y-79686500D01*
X57741850Y-79638163D01*
X57831164Y-79548849D01*
X57879500Y-79432154D01*
X57879500Y-79260875D01*
X57800125Y-79181500D01*
X57150500Y-79181500D01*
X56773500Y-79181500D01*
X56123875Y-79181500D01*
X56044500Y-79260875D01*
X37351888Y-79260875D01*
X37321850Y-79230837D01*
X37205155Y-79182500D01*
X34869875Y-79182500D01*
X34790500Y-79261875D01*
X34413500Y-79261875D01*
X34334125Y-79182500D01*
X31998845Y-79182500D01*
X31882150Y-79230837D01*
X31792836Y-79320151D01*
X31744500Y-79436846D01*
X29526300Y-79436846D01*
X29526300Y-78555846D01*
X56044500Y-78555846D01*
X56044500Y-78727125D01*
X56123875Y-78806500D01*
X56773500Y-78806500D01*
X56773500Y-78380875D01*
X57150500Y-78380875D01*
X57150500Y-78806500D01*
X57800125Y-78806500D01*
X57879500Y-78727125D01*
X57879500Y-78555846D01*
X57831164Y-78439151D01*
X57741850Y-78349837D01*
X57625155Y-78301500D01*
X57229875Y-78301500D01*
X57150500Y-78380875D01*
X56773500Y-78380875D01*
X56694125Y-78301500D01*
X56298845Y-78301500D01*
X56182150Y-78349837D01*
X56092836Y-78439151D01*
X56044500Y-78555846D01*
X29526300Y-78555846D01*
X29526300Y-72176000D01*
X31561338Y-72176000D01*
X31561338Y-77176000D01*
X31579712Y-77273647D01*
X31637421Y-77363330D01*
X31725475Y-77423495D01*
X31830000Y-77444662D01*
X41830000Y-77444662D01*
X41927647Y-77426288D01*
X42017330Y-77368579D01*
X42077495Y-77280525D01*
X42098662Y-77176000D01*
X42098662Y-76080500D01*
X43529828Y-76080500D01*
X43529828Y-76492100D01*
X43548202Y-76589747D01*
X43605911Y-76679430D01*
X43693965Y-76739595D01*
X43798490Y-76760762D01*
X46798230Y-76760762D01*
X46895877Y-76742388D01*
X46985560Y-76684679D01*
X47045725Y-76596625D01*
X47066892Y-76492100D01*
X47066892Y-75959875D01*
X47880270Y-75959875D01*
X47880270Y-76555254D01*
X47928606Y-76671949D01*
X48017920Y-76761263D01*
X48134615Y-76809600D01*
X49429765Y-76809600D01*
X49509140Y-76730225D01*
X49509140Y-75880500D01*
X49886140Y-75880500D01*
X49886140Y-76730225D01*
X49965515Y-76809600D01*
X51260665Y-76809600D01*
X51377360Y-76761263D01*
X51466674Y-76671949D01*
X51515010Y-76555254D01*
X51515010Y-75959875D01*
X51435635Y-75880500D01*
X49886140Y-75880500D01*
X49509140Y-75880500D01*
X47959645Y-75880500D01*
X47880270Y-75959875D01*
X47066892Y-75959875D01*
X47066892Y-74891900D01*
X47055009Y-74828746D01*
X47880270Y-74828746D01*
X47880270Y-75424125D01*
X47959645Y-75503500D01*
X49509140Y-75503500D01*
X49509140Y-74653775D01*
X49886140Y-74653775D01*
X49886140Y-75503500D01*
X51435635Y-75503500D01*
X51515010Y-75424125D01*
X51515010Y-74828746D01*
X51466674Y-74712051D01*
X51377360Y-74622737D01*
X51260665Y-74574400D01*
X49965515Y-74574400D01*
X49886140Y-74653775D01*
X49509140Y-74653775D01*
X49429765Y-74574400D01*
X48134615Y-74574400D01*
X48017920Y-74622737D01*
X47928606Y-74712051D01*
X47880270Y-74828746D01*
X47055009Y-74828746D01*
X47048518Y-74794253D01*
X46990809Y-74704570D01*
X46902755Y-74644405D01*
X46798230Y-74623238D01*
X43798490Y-74623238D01*
X43700843Y-74641612D01*
X43611160Y-74699321D01*
X43550995Y-74787375D01*
X43529828Y-74891900D01*
X43529828Y-75303500D01*
X42098662Y-75303500D01*
X42098662Y-72176000D01*
X42080288Y-72078353D01*
X42022579Y-71988670D01*
X41934525Y-71928505D01*
X41830000Y-71907338D01*
X35440500Y-71907338D01*
X35440500Y-70285515D01*
X46888400Y-70285515D01*
X46888400Y-71580665D01*
X46936737Y-71697360D01*
X47026051Y-71786674D01*
X47142746Y-71835010D01*
X47738125Y-71835010D01*
X47817500Y-71755635D01*
X47817500Y-70206140D01*
X48194500Y-70206140D01*
X48194500Y-71755635D01*
X48273875Y-71835010D01*
X48869254Y-71835010D01*
X48985949Y-71786674D01*
X49075263Y-71697360D01*
X49123600Y-71580665D01*
X49123600Y-70285515D01*
X49044225Y-70206140D01*
X48194500Y-70206140D01*
X47817500Y-70206140D01*
X46967775Y-70206140D01*
X46888400Y-70285515D01*
X35440500Y-70285515D01*
X35440500Y-69791345D01*
X35769056Y-69571811D01*
X35988879Y-69242823D01*
X36066070Y-68854755D01*
X36066070Y-68514500D01*
X36523930Y-68514500D01*
X36523930Y-69013610D01*
X36677368Y-69407994D01*
X36970050Y-69713639D01*
X37241360Y-69833984D01*
X37403500Y-69795669D01*
X37403500Y-68514500D01*
X37780500Y-68514500D01*
X37780500Y-69795669D01*
X37942640Y-69833984D01*
X38213950Y-69713639D01*
X38506632Y-69407994D01*
X38660070Y-69013610D01*
X38660070Y-68514500D01*
X37780500Y-68514500D01*
X37403500Y-68514500D01*
X36523930Y-68514500D01*
X36066070Y-68514500D01*
X36066070Y-67797245D01*
X36034472Y-67638390D01*
X36523930Y-67638390D01*
X36523930Y-68137500D01*
X37403500Y-68137500D01*
X37403500Y-66856331D01*
X37780500Y-66856331D01*
X37780500Y-68137500D01*
X38660070Y-68137500D01*
X38660070Y-67797245D01*
X39117930Y-67797245D01*
X39117930Y-68854755D01*
X39195121Y-69242823D01*
X39414944Y-69571811D01*
X39743932Y-69791634D01*
X40132000Y-69868825D01*
X40520068Y-69791634D01*
X40849056Y-69571811D01*
X41068879Y-69242823D01*
X41146070Y-68854755D01*
X41146070Y-68714500D01*
X44196000Y-68714500D01*
X44344673Y-68684927D01*
X44470711Y-68600711D01*
X44616807Y-68454615D01*
X46888400Y-68454615D01*
X46888400Y-69749765D01*
X46967775Y-69829140D01*
X47817500Y-69829140D01*
X47817500Y-68279645D01*
X48194500Y-68279645D01*
X48194500Y-69829140D01*
X49044225Y-69829140D01*
X49123600Y-69749765D01*
X49123600Y-69100875D01*
X52488500Y-69100875D01*
X52488500Y-69272154D01*
X52536836Y-69388849D01*
X52626150Y-69478163D01*
X52742845Y-69526500D01*
X53138125Y-69526500D01*
X53217500Y-69447125D01*
X53217500Y-69021500D01*
X53594500Y-69021500D01*
X53594500Y-69447125D01*
X53673875Y-69526500D01*
X54069155Y-69526500D01*
X54185850Y-69478163D01*
X54275164Y-69388849D01*
X54323500Y-69272154D01*
X54323500Y-69100875D01*
X54244125Y-69021500D01*
X53594500Y-69021500D01*
X53217500Y-69021500D01*
X52567875Y-69021500D01*
X52488500Y-69100875D01*
X49123600Y-69100875D01*
X49123600Y-68454615D01*
X49099257Y-68395846D01*
X52488500Y-68395846D01*
X52488500Y-68567125D01*
X52567875Y-68646500D01*
X53217500Y-68646500D01*
X53217500Y-68220875D01*
X53594500Y-68220875D01*
X53594500Y-68646500D01*
X54244125Y-68646500D01*
X54323500Y-68567125D01*
X54323500Y-68395846D01*
X54275164Y-68279151D01*
X54185850Y-68189837D01*
X54069155Y-68141500D01*
X53673875Y-68141500D01*
X53594500Y-68220875D01*
X53217500Y-68220875D01*
X53138125Y-68141500D01*
X52742845Y-68141500D01*
X52626150Y-68189837D01*
X52536836Y-68279151D01*
X52488500Y-68395846D01*
X49099257Y-68395846D01*
X49075263Y-68337920D01*
X48985949Y-68248606D01*
X48869254Y-68200270D01*
X48273875Y-68200270D01*
X48194500Y-68279645D01*
X47817500Y-68279645D01*
X47738125Y-68200270D01*
X47142746Y-68200270D01*
X47026051Y-68248606D01*
X46936737Y-68337920D01*
X46888400Y-68454615D01*
X44616807Y-68454615D01*
X46937238Y-66134184D01*
X46937238Y-67118230D01*
X46955612Y-67215877D01*
X47013321Y-67305560D01*
X47101375Y-67365725D01*
X47205900Y-67386892D01*
X48806100Y-67386892D01*
X48903747Y-67368518D01*
X48993430Y-67310809D01*
X49053595Y-67222755D01*
X49074762Y-67118230D01*
X49074762Y-66174500D01*
X52241338Y-66174500D01*
X52241338Y-66436000D01*
X52259712Y-66533647D01*
X52317421Y-66623330D01*
X52405475Y-66683495D01*
X52510000Y-66704662D01*
X54010000Y-66704662D01*
X54107647Y-66686288D01*
X54197330Y-66628579D01*
X54257495Y-66540525D01*
X54278662Y-66436000D01*
X54278662Y-65136000D01*
X54260288Y-65038353D01*
X54202579Y-64948670D01*
X54114525Y-64888505D01*
X54010000Y-64867338D01*
X52510000Y-64867338D01*
X52412353Y-64885712D01*
X52322670Y-64943421D01*
X52262505Y-65031475D01*
X52241338Y-65136000D01*
X52241338Y-65397500D01*
X49074762Y-65397500D01*
X49074762Y-64118490D01*
X49056388Y-64020843D01*
X48998679Y-63931160D01*
X48910625Y-63870995D01*
X48806100Y-63849828D01*
X47205900Y-63849828D01*
X47108253Y-63868202D01*
X47018570Y-63925911D01*
X46958405Y-64013965D01*
X46937238Y-64118490D01*
X46937238Y-65153995D01*
X46841328Y-65173072D01*
X46715289Y-65257289D01*
X44035078Y-67937500D01*
X41146070Y-67937500D01*
X41146070Y-67797245D01*
X41068879Y-67409177D01*
X40849056Y-67080189D01*
X40520068Y-66860366D01*
X40132000Y-66783175D01*
X39743932Y-66860366D01*
X39414944Y-67080189D01*
X39195121Y-67409177D01*
X39117930Y-67797245D01*
X38660070Y-67797245D01*
X38660070Y-67638390D01*
X38506632Y-67244006D01*
X38213950Y-66938361D01*
X37942640Y-66818016D01*
X37780500Y-66856331D01*
X37403500Y-66856331D01*
X37241360Y-66818016D01*
X36970050Y-66938361D01*
X36677368Y-67244006D01*
X36523930Y-67638390D01*
X36034472Y-67638390D01*
X35988879Y-67409177D01*
X35769056Y-67080189D01*
X35440068Y-66860366D01*
X35052000Y-66783175D01*
X34663932Y-66860366D01*
X34334944Y-67080189D01*
X34115121Y-67409177D01*
X34037930Y-67797245D01*
X34037930Y-68854755D01*
X34115121Y-69242823D01*
X34334944Y-69571811D01*
X34663500Y-69791345D01*
X34663500Y-71907338D01*
X31830000Y-71907338D01*
X31732353Y-71925712D01*
X31642670Y-71983421D01*
X31582505Y-72071475D01*
X31561338Y-72176000D01*
X29526300Y-72176000D01*
X29526300Y-62732845D01*
X59116500Y-62732845D01*
X59116500Y-65068125D01*
X59195875Y-65147500D01*
X60455500Y-65147500D01*
X60455500Y-62557875D01*
X60832500Y-62557875D01*
X60832500Y-65147500D01*
X62092125Y-65147500D01*
X62171500Y-65068125D01*
X62171500Y-62796000D01*
X63610338Y-62796000D01*
X63610338Y-67876000D01*
X63628712Y-67973647D01*
X63686421Y-68063330D01*
X63774475Y-68123495D01*
X63879000Y-68144662D01*
X64419600Y-68144662D01*
X64419600Y-74369337D01*
X64330453Y-74386112D01*
X64240770Y-74443821D01*
X64180605Y-74531875D01*
X64159438Y-74636400D01*
X64159438Y-76036400D01*
X64177812Y-76134047D01*
X64235521Y-76223730D01*
X64323575Y-76283895D01*
X64428100Y-76305062D01*
X65188100Y-76305062D01*
X65285747Y-76286688D01*
X65375430Y-76228979D01*
X65435595Y-76140925D01*
X65456762Y-76036400D01*
X65456762Y-74636400D01*
X65438388Y-74538753D01*
X65380679Y-74449070D01*
X65292625Y-74388905D01*
X65196600Y-74369459D01*
X65196600Y-68773419D01*
X68585783Y-68773419D01*
X68647078Y-69086734D01*
X68649053Y-69091503D01*
X68765555Y-69147865D01*
X68933704Y-68979717D01*
X68994151Y-69040164D01*
X69110846Y-69088500D01*
X69209625Y-69088500D01*
X69215498Y-69082627D01*
X69215498Y-69088500D01*
X69358079Y-69088500D01*
X69032135Y-69414445D01*
X69088497Y-69530947D01*
X69401419Y-69594217D01*
X69714734Y-69532922D01*
X69719503Y-69530947D01*
X69775865Y-69414445D01*
X69449921Y-69088500D01*
X69592502Y-69088500D01*
X69592502Y-69082627D01*
X69598375Y-69088500D01*
X69697154Y-69088500D01*
X69813849Y-69040164D01*
X69874296Y-68979717D01*
X70042445Y-69147865D01*
X70158947Y-69091503D01*
X70222217Y-68778581D01*
X70160922Y-68465266D01*
X70158947Y-68460497D01*
X70042445Y-68404135D01*
X69902102Y-68544477D01*
X69872125Y-68514500D01*
X69519000Y-68514500D01*
X69519000Y-68534500D01*
X69289000Y-68534500D01*
X69289000Y-68514500D01*
X68935875Y-68514500D01*
X68905898Y-68544477D01*
X68765555Y-68404135D01*
X68649053Y-68460497D01*
X68585783Y-68773419D01*
X65196600Y-68773419D01*
X65196600Y-68144662D01*
X66169000Y-68144662D01*
X66266647Y-68126288D01*
X66356330Y-68068579D01*
X66416495Y-67980525D01*
X66437662Y-67876000D01*
X66437662Y-65603875D01*
X67876500Y-65603875D01*
X67876500Y-67939155D01*
X67924837Y-68055850D01*
X68014151Y-68145164D01*
X68130846Y-68193500D01*
X69088080Y-68193500D01*
X69404000Y-68509421D01*
X69719920Y-68193500D01*
X70677154Y-68193500D01*
X70793849Y-68145164D01*
X70883163Y-68055850D01*
X70931500Y-67939155D01*
X70931500Y-65603875D01*
X70852125Y-65524500D01*
X69592500Y-65524500D01*
X69592500Y-65544500D01*
X69215500Y-65544500D01*
X69215500Y-65524500D01*
X67955875Y-65524500D01*
X67876500Y-65603875D01*
X66437662Y-65603875D01*
X66437662Y-62796000D01*
X66425779Y-62732845D01*
X67876500Y-62732845D01*
X67876500Y-65068125D01*
X67955875Y-65147500D01*
X69215500Y-65147500D01*
X69215500Y-62557875D01*
X69592500Y-62557875D01*
X69592500Y-65147500D01*
X70852125Y-65147500D01*
X70931500Y-65068125D01*
X70931500Y-62732845D01*
X70883163Y-62616150D01*
X70793849Y-62526836D01*
X70677154Y-62478500D01*
X69671875Y-62478500D01*
X69592500Y-62557875D01*
X69215500Y-62557875D01*
X69136125Y-62478500D01*
X68130846Y-62478500D01*
X68014151Y-62526836D01*
X67924837Y-62616150D01*
X67876500Y-62732845D01*
X66425779Y-62732845D01*
X66419288Y-62698353D01*
X66361579Y-62608670D01*
X66273525Y-62548505D01*
X66169000Y-62527338D01*
X63879000Y-62527338D01*
X63781353Y-62545712D01*
X63691670Y-62603421D01*
X63631505Y-62691475D01*
X63610338Y-62796000D01*
X62171500Y-62796000D01*
X62171500Y-62732845D01*
X62123163Y-62616150D01*
X62033849Y-62526836D01*
X61917154Y-62478500D01*
X60911875Y-62478500D01*
X60832500Y-62557875D01*
X60455500Y-62557875D01*
X60376125Y-62478500D01*
X59370846Y-62478500D01*
X59254151Y-62526836D01*
X59164837Y-62616150D01*
X59116500Y-62732845D01*
X29526300Y-62732845D01*
X29526300Y-61631900D01*
X81420900Y-61631900D01*
X81420900Y-107074900D01*
G36*
X61768500Y-84251500D02*
X62691500Y-84251500D01*
X62691500Y-84231500D01*
X63068500Y-84231500D01*
X63068500Y-84251500D01*
X63088500Y-84251500D01*
X63088500Y-84628500D01*
X63068500Y-84628500D01*
X63068500Y-85551500D01*
X63088500Y-85551500D01*
X63088500Y-85928500D01*
X63068500Y-85928500D01*
X63068500Y-85948500D01*
X62691500Y-85948500D01*
X62691500Y-85928500D01*
X61768500Y-85928500D01*
X61768500Y-85948500D01*
X61391500Y-85948500D01*
X61391500Y-85928500D01*
X61371500Y-85928500D01*
X61371500Y-85551500D01*
X61391500Y-85551500D01*
X61391500Y-84628500D01*
X61768500Y-84628500D01*
X61768500Y-85551500D01*
X62691500Y-85551500D01*
X62691500Y-84628500D01*
X61768500Y-84628500D01*
X61391500Y-84628500D01*
X61371500Y-84628500D01*
X61371500Y-84251500D01*
X61391500Y-84251500D01*
X61391500Y-84231500D01*
X61768500Y-84231500D01*
X61768500Y-84251500D01*
X61768500Y-84251500D01*
G37*
X61768500Y-84251500D02*
X62691500Y-84251500D01*
X62691500Y-84231500D01*
X63068500Y-84231500D01*
X63068500Y-84251500D01*
X63088500Y-84251500D01*
X63088500Y-84628500D01*
X63068500Y-84628500D01*
X63068500Y-85551500D01*
X63088500Y-85551500D01*
X63088500Y-85928500D01*
X63068500Y-85928500D01*
X63068500Y-85948500D01*
X62691500Y-85948500D01*
X62691500Y-85928500D01*
X61768500Y-85928500D01*
X61768500Y-85948500D01*
X61391500Y-85948500D01*
X61391500Y-85928500D01*
X61371500Y-85928500D01*
X61371500Y-85551500D01*
X61391500Y-85551500D01*
X61391500Y-84628500D01*
X61768500Y-84628500D01*
X61768500Y-85551500D01*
X62691500Y-85551500D01*
X62691500Y-84628500D01*
X61768500Y-84628500D01*
X61391500Y-84628500D01*
X61371500Y-84628500D01*
X61371500Y-84251500D01*
X61391500Y-84251500D01*
X61391500Y-84231500D01*
X61768500Y-84231500D01*
X61768500Y-84251500D01*
G36*
X65971500Y-82069078D02*
X64616842Y-83423736D01*
X64605000Y-83421338D01*
X63947500Y-83421338D01*
X63947500Y-83407875D01*
X63868125Y-83328500D01*
X63555000Y-83328500D01*
X63555000Y-83348500D01*
X63405000Y-83348500D01*
X63405000Y-83328500D01*
X63055000Y-83328500D01*
X63055000Y-83365375D01*
X63012500Y-83407875D01*
X63012500Y-83472500D01*
X62905000Y-83472500D01*
X62905000Y-83328500D01*
X62898662Y-83328500D01*
X62898662Y-82951500D01*
X62905000Y-82951500D01*
X62905000Y-82651845D01*
X63012500Y-82651845D01*
X63012500Y-82872125D01*
X63055000Y-82914625D01*
X63055000Y-82951500D01*
X63405000Y-82951500D01*
X63405000Y-82914625D01*
X63447500Y-82872125D01*
X63447500Y-82651845D01*
X63405000Y-82549242D01*
X63405000Y-82476875D01*
X63555000Y-82476875D01*
X63555000Y-82951500D01*
X63868125Y-82951500D01*
X63947500Y-82872125D01*
X63947500Y-82651845D01*
X63899163Y-82535150D01*
X63809849Y-82445836D01*
X63693154Y-82397500D01*
X63634375Y-82397500D01*
X63555000Y-82476875D01*
X63405000Y-82476875D01*
X63325625Y-82397500D01*
X63266846Y-82397500D01*
X63230000Y-82412762D01*
X63193154Y-82397500D01*
X63134375Y-82397500D01*
X63055000Y-82476875D01*
X63055000Y-82549242D01*
X63012500Y-82651845D01*
X62905000Y-82651845D01*
X62905000Y-82476875D01*
X62868500Y-82440375D01*
X62868500Y-81922500D01*
X65024000Y-81922500D01*
X65172672Y-81892928D01*
X65298711Y-81808711D01*
X65382928Y-81682672D01*
X65412500Y-81534000D01*
X65382928Y-81385328D01*
X65298711Y-81259289D01*
X65196600Y-81157178D01*
X65196600Y-79643563D01*
X65285747Y-79626788D01*
X65375430Y-79569079D01*
X65435595Y-79481025D01*
X65456762Y-79376500D01*
X65456762Y-77976500D01*
X65438388Y-77878853D01*
X65380679Y-77789170D01*
X65292625Y-77729005D01*
X65188100Y-77707838D01*
X64428100Y-77707838D01*
X64330453Y-77726212D01*
X64240770Y-77783921D01*
X64204175Y-77837479D01*
X64187264Y-77796651D01*
X64097950Y-77707337D01*
X63981255Y-77659000D01*
X63805975Y-77659000D01*
X63726600Y-77738375D01*
X63726600Y-78488000D01*
X63746600Y-78488000D01*
X63746600Y-78865000D01*
X63726600Y-78865000D01*
X63726600Y-79614625D01*
X63805975Y-79694000D01*
X63981255Y-79694000D01*
X64097950Y-79645663D01*
X64187264Y-79556349D01*
X64204277Y-79515275D01*
X64235521Y-79563830D01*
X64323575Y-79623995D01*
X64419600Y-79643441D01*
X64419600Y-81145500D01*
X62484000Y-81145500D01*
X62386536Y-81164886D01*
X62542811Y-81008611D01*
X62578524Y-80955163D01*
X62627027Y-80882573D01*
X62656600Y-80733900D01*
X62656600Y-79643563D01*
X62745747Y-79626788D01*
X62835430Y-79569079D01*
X62872025Y-79515521D01*
X62888936Y-79556349D01*
X62978250Y-79645663D01*
X63094945Y-79694000D01*
X63270225Y-79694000D01*
X63349600Y-79614625D01*
X63349600Y-78865000D01*
X63329600Y-78865000D01*
X63329600Y-78488000D01*
X63349600Y-78488000D01*
X63349600Y-77738375D01*
X63270225Y-77659000D01*
X63094945Y-77659000D01*
X62978250Y-77707337D01*
X62888936Y-77796651D01*
X62871923Y-77837725D01*
X62840679Y-77789170D01*
X62752625Y-77729005D01*
X62648100Y-77707838D01*
X61888100Y-77707838D01*
X61790453Y-77726212D01*
X61700770Y-77783921D01*
X61640605Y-77871975D01*
X61619438Y-77976500D01*
X61619438Y-79376500D01*
X61637812Y-79474147D01*
X61695521Y-79563830D01*
X61783575Y-79623995D01*
X61879600Y-79643441D01*
X61879600Y-80572978D01*
X61705289Y-80747289D01*
X61621073Y-80873327D01*
X61591500Y-81022000D01*
X61591500Y-82440375D01*
X61555000Y-82476875D01*
X61555000Y-82951500D01*
X61561338Y-82951500D01*
X61561338Y-83328500D01*
X61555000Y-83328500D01*
X61555000Y-83472500D01*
X61405000Y-83472500D01*
X61405000Y-83328500D01*
X61398662Y-83328500D01*
X61398662Y-82951500D01*
X61405000Y-82951500D01*
X61405000Y-82476875D01*
X61368500Y-82440375D01*
X61368500Y-81808000D01*
X61338927Y-81659327D01*
X61254711Y-81533289D01*
X61234711Y-81513289D01*
X61108673Y-81429073D01*
X60960000Y-81399500D01*
X59226730Y-81399500D01*
X59250500Y-81280000D01*
X59250500Y-79637662D01*
X59462000Y-79637662D01*
X59559647Y-79619288D01*
X59649330Y-79561579D01*
X59709495Y-79473525D01*
X59730662Y-79369000D01*
X59730662Y-78619000D01*
X59712288Y-78521353D01*
X59654579Y-78431670D01*
X59566525Y-78371505D01*
X59462000Y-78350338D01*
X59250500Y-78350338D01*
X59250500Y-77096500D01*
X65971500Y-77096500D01*
X65971500Y-82069078D01*
X65971500Y-82069078D01*
G37*
X65971500Y-82069078D02*
X64616842Y-83423736D01*
X64605000Y-83421338D01*
X63947500Y-83421338D01*
X63947500Y-83407875D01*
X63868125Y-83328500D01*
X63555000Y-83328500D01*
X63555000Y-83348500D01*
X63405000Y-83348500D01*
X63405000Y-83328500D01*
X63055000Y-83328500D01*
X63055000Y-83365375D01*
X63012500Y-83407875D01*
X63012500Y-83472500D01*
X62905000Y-83472500D01*
X62905000Y-83328500D01*
X62898662Y-83328500D01*
X62898662Y-82951500D01*
X62905000Y-82951500D01*
X62905000Y-82651845D01*
X63012500Y-82651845D01*
X63012500Y-82872125D01*
X63055000Y-82914625D01*
X63055000Y-82951500D01*
X63405000Y-82951500D01*
X63405000Y-82914625D01*
X63447500Y-82872125D01*
X63447500Y-82651845D01*
X63405000Y-82549242D01*
X63405000Y-82476875D01*
X63555000Y-82476875D01*
X63555000Y-82951500D01*
X63868125Y-82951500D01*
X63947500Y-82872125D01*
X63947500Y-82651845D01*
X63899163Y-82535150D01*
X63809849Y-82445836D01*
X63693154Y-82397500D01*
X63634375Y-82397500D01*
X63555000Y-82476875D01*
X63405000Y-82476875D01*
X63325625Y-82397500D01*
X63266846Y-82397500D01*
X63230000Y-82412762D01*
X63193154Y-82397500D01*
X63134375Y-82397500D01*
X63055000Y-82476875D01*
X63055000Y-82549242D01*
X63012500Y-82651845D01*
X62905000Y-82651845D01*
X62905000Y-82476875D01*
X62868500Y-82440375D01*
X62868500Y-81922500D01*
X65024000Y-81922500D01*
X65172672Y-81892928D01*
X65298711Y-81808711D01*
X65382928Y-81682672D01*
X65412500Y-81534000D01*
X65382928Y-81385328D01*
X65298711Y-81259289D01*
X65196600Y-81157178D01*
X65196600Y-79643563D01*
X65285747Y-79626788D01*
X65375430Y-79569079D01*
X65435595Y-79481025D01*
X65456762Y-79376500D01*
X65456762Y-77976500D01*
X65438388Y-77878853D01*
X65380679Y-77789170D01*
X65292625Y-77729005D01*
X65188100Y-77707838D01*
X64428100Y-77707838D01*
X64330453Y-77726212D01*
X64240770Y-77783921D01*
X64204175Y-77837479D01*
X64187264Y-77796651D01*
X64097950Y-77707337D01*
X63981255Y-77659000D01*
X63805975Y-77659000D01*
X63726600Y-77738375D01*
X63726600Y-78488000D01*
X63746600Y-78488000D01*
X63746600Y-78865000D01*
X63726600Y-78865000D01*
X63726600Y-79614625D01*
X63805975Y-79694000D01*
X63981255Y-79694000D01*
X64097950Y-79645663D01*
X64187264Y-79556349D01*
X64204277Y-79515275D01*
X64235521Y-79563830D01*
X64323575Y-79623995D01*
X64419600Y-79643441D01*
X64419600Y-81145500D01*
X62484000Y-81145500D01*
X62386536Y-81164886D01*
X62542811Y-81008611D01*
X62578524Y-80955163D01*
X62627027Y-80882573D01*
X62656600Y-80733900D01*
X62656600Y-79643563D01*
X62745747Y-79626788D01*
X62835430Y-79569079D01*
X62872025Y-79515521D01*
X62888936Y-79556349D01*
X62978250Y-79645663D01*
X63094945Y-79694000D01*
X63270225Y-79694000D01*
X63349600Y-79614625D01*
X63349600Y-78865000D01*
X63329600Y-78865000D01*
X63329600Y-78488000D01*
X63349600Y-78488000D01*
X63349600Y-77738375D01*
X63270225Y-77659000D01*
X63094945Y-77659000D01*
X62978250Y-77707337D01*
X62888936Y-77796651D01*
X62871923Y-77837725D01*
X62840679Y-77789170D01*
X62752625Y-77729005D01*
X62648100Y-77707838D01*
X61888100Y-77707838D01*
X61790453Y-77726212D01*
X61700770Y-77783921D01*
X61640605Y-77871975D01*
X61619438Y-77976500D01*
X61619438Y-79376500D01*
X61637812Y-79474147D01*
X61695521Y-79563830D01*
X61783575Y-79623995D01*
X61879600Y-79643441D01*
X61879600Y-80572978D01*
X61705289Y-80747289D01*
X61621073Y-80873327D01*
X61591500Y-81022000D01*
X61591500Y-82440375D01*
X61555000Y-82476875D01*
X61555000Y-82951500D01*
X61561338Y-82951500D01*
X61561338Y-83328500D01*
X61555000Y-83328500D01*
X61555000Y-83472500D01*
X61405000Y-83472500D01*
X61405000Y-83328500D01*
X61398662Y-83328500D01*
X61398662Y-82951500D01*
X61405000Y-82951500D01*
X61405000Y-82476875D01*
X61368500Y-82440375D01*
X61368500Y-81808000D01*
X61338927Y-81659327D01*
X61254711Y-81533289D01*
X61234711Y-81513289D01*
X61108673Y-81429073D01*
X60960000Y-81399500D01*
X59226730Y-81399500D01*
X59250500Y-81280000D01*
X59250500Y-79637662D01*
X59462000Y-79637662D01*
X59559647Y-79619288D01*
X59649330Y-79561579D01*
X59709495Y-79473525D01*
X59730662Y-79369000D01*
X59730662Y-78619000D01*
X59712288Y-78521353D01*
X59654579Y-78431670D01*
X59566525Y-78371505D01*
X59462000Y-78350338D01*
X59250500Y-78350338D01*
X59250500Y-77096500D01*
X65971500Y-77096500D01*
X65971500Y-82069078D01*
M02*
